<svg xmlns="http://www.w3.org/2000/svg" xmlns:xlink="http://www.w3.org/1999/xlink" width="736.778" height="784.199" viewBox="0 0 736.778 784.199">
  <defs>
    <clipPath id="clip-path">
      <path id="Path_76" data-name="Path 76" d="M80.766,388.229s-2.5,52.325-2.214,66.828.63,19.927,7.82,21.206,34.938,4.063,42.656,1.259,10.156-5.281,12.756-9.567,14.828-62.1,17.591-78.325S173.289,200.48,173.289,200.48s.427-3.677-6.988-6.947c-6.094-2.742-35.994-4.063-45.663-4.388a10.156,10.156,0,0,0-10.258,7.475s0,.162,0,.223C108.533,204.3,80.766,388.229,80.766,388.229Z" transform="translate(-78.529 -189.135)" fill="#1f426c" stroke="#263238" stroke-linecap="round" stroke-linejoin="round" stroke-width="1"/>
    </clipPath>
    <clipPath id="clip-path-2">
      <path id="Path_82" data-name="Path 82" d="M137.488,293.43c-8.673,0-46.028-3.941-51.817-5.18a45.4,45.4,0,0,1-4.875-1.3v.406s-2.5,52.325-2.214,66.828.63,19.927,7.82,21.206,34.938,4.063,42.656,1.259,10.156-5.281,12.756-9.567,14.219-58.906,17.347-76.9C151.849,293.978,144.618,293.369,137.488,293.43Z" transform="translate(-78.559 -286.95)" fill="#263238" stroke="#263238" stroke-linecap="round" stroke-linejoin="round" stroke-width="1"/>
    </clipPath>
    <clipPath id="clip-path-3">
      <path id="Path_115" data-name="Path 115" d="M452.435,653.66,351.847,479.785S340.594,400.789,316.6,369s-57.627-54.986-38.106-71.236,69.063-47.328,79.219-45.338,78.528,36.563,97.846,42.149,26.081,13.792,23.2,30.469S474.7,458.66,480.405,474.808s69.2,131.239,69.2,131.239" transform="translate(-272.652 -252.335)" fill="#fff" stroke="#263238" stroke-linecap="round" stroke-miterlimit="10" stroke-width="1"/>
    </clipPath>
    <clipPath id="clip-path-4">
      <path id="Path_129" data-name="Path 129" d="M405.206,333.606s-23.034,5.4-33.333,2.966-31.322-32.013-45.764-41.742-23.238-12.045-38.35-14.32-25.553,5.017-22.344,18.85,20.78,30.591,33.6,41.681,25.045,30.063,32.642,52.1S344,435.433,360.9,457.7s37.984,31.424,45.074,32.663" transform="translate(-264.834 -280.098)" fill="#fff" stroke="#263238" stroke-linecap="round" stroke-miterlimit="10" stroke-width="1"/>
    </clipPath>
    <clipPath id="clip-path-5">
      <path id="Path_139" data-name="Path 139" d="M492,342.615l2.762-8.917c2.762-8.9.67-22.019-6.906-29.474s-34.531-20.577-42.413-27.463-66.869-49.014-77.35-46.434-23.1,17.57-33.78,25.9-48.994,39.691-48.994,39.691-26.914,11.659-25.7,17.144,6.8,12.492,23.684,11.944,45.013-17.367,49.278-19.845S363.4,285.294,363.4,285.294a92.991,92.991,0,0,0,23.4,16.859c12.533,5.809,14.219,6.4,14.219,6.4s3.27,11.883,12.472,17.977" transform="translate(-259.58 -230.214)" fill="#fff" stroke="#263238" stroke-linecap="round" stroke-miterlimit="10" stroke-width="1"/>
    </clipPath>
  </defs>
  <g id="Notes-bro" transform="translate(-78.022 -64.18)">
    <g id="freepik--Notebook--inject-17" transform="translate(182.475 211.649)">
      <path id="Path_1" data-name="Path 1" d="M505.851,176.207a2.031,2.031,0,1,0-.589-3.839l-7.7,1.2-.223-1.463,7.7-1.2a2.031,2.031,0,0,0-.589-3.839l-7.719,1.219-1.645-10.623L471.969,136.78,169.17,693.344l23.2,15.681,379.317-59.11L567.459,622.7l7.7-1.2a2.031,2.031,0,1,0-.589-3.819l-7.719,1.2-.223-1.483,7.719-1.2a1.909,1.909,0,0,0,1.6-2.194,2.031,2.031,0,0,0-2.214-1.625l-7.7,1.2-2.234-14.32,7.719-1.2a2.031,2.031,0,0,0-.508-3.8l-7.7,1.2L563.091,594l7.7-1.2a2.031,2.031,0,0,0-.589-3.839l-7.719,1.2-2.214-14.219,7.7-1.219a1.889,1.889,0,0,0,1.6-2.194,2.031,2.031,0,0,0-2.194-1.625l-7.719,1.2-.223-1.462,7.7-1.2a2.031,2.031,0,0,0-.589-3.839l-7.7,1.2-2.234-14.219,7.7-1.2a2.031,2.031,0,0,0-.589-3.839l-7.7,1.2-.244-1.462,7.719-1.2a2.031,2.031,0,0,0,1.6-2.214,1.889,1.889,0,0,0-2.194-1.6l-7.719,1.2-2.214-14.219,7.7-1.2a2.031,2.031,0,0,0,1.6-2.214,1.889,1.889,0,0,0-2.194-1.6l-7.719,1.2-.223-1.483,7.7-1.2a2.031,2.031,0,1,0-.589-3.819l-7.7,1.2L549.32,505.8l7.7-1.2a2.031,2.031,0,1,0-.589-3.819l-7.7,1.2-.244-1.483,7.719-1.2a2.031,2.031,0,1,0-.609-3.819l-7.7,1.2-2.234-14.32,7.719-1.2a2.031,2.031,0,1,0-.609-3.819l-7.7,1.2-.223-1.483,7.7-1.2a1.932,1.932,0,1,0-.589-3.819l-7.719,1.2-2.214-14.219,7.7-1.2a1.932,1.932,0,1,0-.589-3.819l-7.7,1.2-.244-1.463,7.719-1.2a2.031,2.031,0,0,0-.609-3.839l-7.7,1.2-2.234-14.219,7.719-1.2a2.031,2.031,0,0,0-.609-3.839l-7.7,1.2-.223-1.463,7.7-1.2a2.031,2.031,0,0,0-.589-3.839l-7.719,1.219-2.214-14.219,7.7-1.2a2.031,2.031,0,0,0-.589-3.839l-7.719,1.2-.223-1.463,7.7-1.2a2.031,2.031,0,1,0-.589-3.819l-7.7,1.2-2.234-14.32,7.7-1.2a2.031,2.031,0,1,0-.589-3.819l-7.7,1.2-.223-1.483,7.7-1.2a2.031,2.031,0,0,0-.589-3.819l-7.719,1.2-2.214-14.219,7.7-1.2a2.031,2.031,0,0,0-.589-3.819l-7.719,1.2-.223-1.483,7.7-1.2a1.932,1.932,0,1,0-.589-3.819l-7.7,1.2-2.234-14.32,7.7-1.2a2.031,2.031,0,1,0-.589-3.819l-7.7,1.2-.244-1.463,7.719-1.2a2.031,2.031,0,0,0-.609-3.839l-7.7,1.2-2.234-14.219,7.719-1.219a2.031,2.031,0,0,0-.589-3.819l-7.719,1.2-.223-1.462,7.7-1.2a2.031,2.031,0,0,0-.589-3.839l-7.7,1.2-2.234-14.219,7.7-1.2a2.031,2.031,0,1,0-.589-3.839l-7.7,1.2-.244-1.462,7.719-1.2a2.031,2.031,0,1,0-.609-3.819l-7.7,1.2-2.234-14.219,7.719-1.2a2.031,2.031,0,0,0-.609-3.819l-7.7,1.2-.223-1.483,7.7-1.2a2.031,2.031,0,1,0-.589-3.819l-7.719,1.2-2.214-14.32,7.7-1.2a2.031,2.031,0,1,0-.589-3.819l-7.719,1.2-.223-1.483,7.719-1.2a2.031,2.031,0,0,0-.609-3.819l-7.7,1.2-2.234-14.32,7.719-1.2a2.031,2.031,0,0,0-.609-3.819l-7.7,1.2-.223-1.483,7.7-1.2a1.932,1.932,0,1,0-.589-3.819l-7.719,1.2-2.214-14.32,7.7-1.2a1.932,1.932,0,1,0-.589-3.819l-7.719,1.2-.223-1.463,7.7-1.2a2.031,2.031,0,0,0-.589-3.839l-7.7,1.2-2.234-14.219Z" transform="translate(-89.001 -136.78)" opacity="0.3"/>
      <path id="Path_2" data-name="Path 2" d="M222.12,697.284l351.712-54.722L495.344,138.1,143.612,192.944A16.433,16.433,0,0,0,129.9,211.713l73.531,471.861a16.413,16.413,0,0,0,18.688,13.711Z" transform="translate(-129.702 -135.419)" fill="#263238" stroke="#263238" stroke-linecap="round" stroke-miterlimit="10" stroke-width="1"/>
      <path id="Path_3" data-name="Path 3" d="M0,0H20.313A5.383,5.383,0,0,1,25.7,5.383V51.289a5.383,5.383,0,0,1-5.383,5.383H0Z" transform="translate(98.949 544.237) rotate(171.15)" fill="#fff" stroke="#263238" stroke-linecap="round" stroke-miterlimit="10" stroke-width="1"/>
      <path id="Path_4" data-name="Path 4" d="M0,0H20.313A5.383,5.383,0,0,1,25.7,5.383V51.289a5.383,5.383,0,0,1-5.383,5.383H0Z" transform="translate(89.801 485.372) rotate(171.15)" fill="#1f426c" stroke="#263238" stroke-linecap="round" stroke-miterlimit="10" stroke-width="1"/>
      <path id="Path_5" data-name="Path 5" d="M0,0H20.313A5.383,5.383,0,0,1,25.7,5.383V51.289a5.383,5.383,0,0,1-5.383,5.383H0Z" transform="translate(80.617 426.408) rotate(171.15)" fill="#fff" stroke="#263238" stroke-linecap="round" stroke-miterlimit="10" stroke-width="1"/>
      <path id="Path_6" data-name="Path 6" d="M0,0H20.313A5.383,5.383,0,0,1,25.7,5.383V51.289a5.383,5.383,0,0,1-5.383,5.383H0Z" transform="translate(71.472 367.564) rotate(171.15)" fill="#1f426c" stroke="#263238" stroke-linecap="round" stroke-miterlimit="10" stroke-width="1"/>
      <path id="Path_7" data-name="Path 7" d="M155.686,392.565l12-1.869L137.08,194.071,505.062,136.81,583.55,641.252l-367.962,57.2L176.405,446.7l-12,1.869a5.362,5.362,0,0,1-6.094-4.489l-7.17-45.358a5.383,5.383,0,0,1,4.55-6.155Z" transform="translate(-122.094 -136.749)" fill="#fff"/>
      <path id="Path_8" data-name="Path 8" d="M165.61,226.976l1.219,27.564,137.313-22.4-3.6-23.075Z" transform="translate(-92.672 -62.241)" fill="#1f426c"/>
      <path id="Path_9" data-name="Path 9" d="M308.208,156.17a7.191,7.191,0,1,0,5.992-8.125,7.191,7.191,0,0,0-5.992,8.125Z" transform="translate(54.306 -125.254)" fill="#263238" stroke="#263238" stroke-linecap="round" stroke-miterlimit="10" stroke-width="1"/>
      <path id="Path_10" data-name="Path 10" d="M313.1,154.547,334.59,151.2a2.031,2.031,0,0,0,1.6-2.214h0a2.031,2.031,0,0,0-2.214-1.6l-21.409,3.311a2.031,2.031,0,0,0-1.625,2.214h0A2.031,2.031,0,0,0,313.1,154.547Z" transform="translate(57.194 -125.865)" fill="#fff" stroke="#263238" stroke-linecap="round" stroke-miterlimit="10" stroke-width="1"/>
      <path id="Path_11" data-name="Path 11" d="M313.581,157.147l21.45-3.331a2.031,2.031,0,0,0,1.625-2.214h0a2.031,2.031,0,0,0-2.214-1.625l-21.491,3.352a2.031,2.031,0,0,0-1.6,2.214h0A2.031,2.031,0,0,0,313.581,157.147Z" transform="translate(57.606 -123.184)" fill="#fff" stroke="#263238" stroke-linecap="round" stroke-miterlimit="10" stroke-width="1"/>
      <path id="Path_12" data-name="Path 12" d="M310.037,167.693a7.191,7.191,0,1,0,6.094-8.125,7.191,7.191,0,0,0-6.094,8.125Z" transform="translate(56.194 -113.357)" fill="#263238" stroke="#263238" stroke-linecap="round" stroke-miterlimit="10" stroke-width="1"/>
      <path id="Path_13" data-name="Path 13" d="M314.961,166.077l21.47-3.331a2.031,2.031,0,0,0,1.625-2.214h0a2.031,2.031,0,0,0-2.214-1.625l-21.491,3.352a2.031,2.031,0,0,0-1.6,2.214h0A2.031,2.031,0,0,0,314.961,166.077Z" transform="translate(59.05 -113.975)" fill="#fff" stroke="#263238" stroke-linecap="round" stroke-miterlimit="10" stroke-width="1"/>
      <path id="Path_14" data-name="Path 14" d="M315.36,168.647l21.491-3.331a2.031,2.031,0,0,0,1.6-2.214h0a2.031,2.031,0,0,0-2.214-1.625l-21.47,3.352a2.031,2.031,0,0,0-1.625,2.214h0A2.031,2.031,0,0,0,315.36,168.647Z" transform="translate(59.463 -111.325)" fill="#fff" stroke="#263238" stroke-linecap="round" stroke-miterlimit="10" stroke-width="1"/>
      <path id="Path_15" data-name="Path 15" d="M311.8,179.24a7.191,7.191,0,1,0,5.992-8.125,7.19,7.19,0,0,0-5.992,8.125Z" transform="translate(58.008 -101.463)" fill="#263238" stroke="#263238" stroke-linecap="round" stroke-miterlimit="10" stroke-width="1"/>
      <path id="Path_16" data-name="Path 16" d="M316.75,177.647l21.491-3.331a2.031,2.031,0,0,0,1.6-2.214h0a2.031,2.031,0,0,0-2.214-1.625l-21.47,3.352a2.031,2.031,0,0,0-1.625,2.214h0A2.031,2.031,0,0,0,316.75,177.647Z" transform="translate(60.896 -102.043)" fill="#fff" stroke="#263238" stroke-linecap="round" stroke-miterlimit="10" stroke-width="1"/>
      <path id="Path_17" data-name="Path 17" d="M317.129,180.227l21.47-3.352a2.031,2.031,0,0,0,1.625-2.194h0a2.031,2.031,0,0,0-2.214-1.625l-21.47,3.352a2.031,2.031,0,0,0-1.625,2.194h0A2.031,2.031,0,0,0,317.129,180.227Z" transform="translate(61.289 -99.383)" fill="#fff" stroke="#263238" stroke-linecap="round" stroke-miterlimit="10" stroke-width="1"/>
      <path id="Path_18" data-name="Path 18" d="M313.587,190.773a7.191,7.191,0,1,0,6.094-8.125,7.191,7.191,0,0,0-6.094,8.125Z" transform="translate(59.855 -89.555)" fill="#263238" stroke="#263238" stroke-linecap="round" stroke-miterlimit="10" stroke-width="1"/>
      <path id="Path_19" data-name="Path 19" d="M318.546,189.157l21.491-3.352a2.031,2.031,0,0,0,1.625-2.194h0a2.031,2.031,0,0,0-2.214-1.625l-21.491,3.352a1.909,1.909,0,0,0-1.6,2.194h0A2.031,2.031,0,0,0,318.546,189.157Z" transform="translate(62.757 -90.173)" fill="#fff" stroke="#263238" stroke-linecap="round" stroke-miterlimit="10" stroke-width="1"/>
      <path id="Path_20" data-name="Path 20" d="M318.94,191.773l21.491-3.352a1.909,1.909,0,0,0,1.6-2.214h0a1.909,1.909,0,0,0-2.194-1.6l-21.491,3.331a2.031,2.031,0,0,0-1.6,2.214h0A2.031,2.031,0,0,0,318.94,191.773Z" transform="translate(63.175 -87.488)" fill="#fff" stroke="#263238" stroke-linecap="round" stroke-miterlimit="10" stroke-width="1"/>
      <path id="Path_21" data-name="Path 21" d="M315.388,202.32a7.191,7.191,0,1,0,5.992-8.125A7.191,7.191,0,0,0,315.388,202.32Z" transform="translate(61.71 -77.662)" fill="#263238" stroke="#263238" stroke-linecap="round" stroke-miterlimit="10" stroke-width="1"/>
      <path id="Path_22" data-name="Path 22" d="M320.33,200.7l21.491-3.352a2.031,2.031,0,0,0,1.6-2.214h0a1.909,1.909,0,0,0-2.194-1.6l-21.491,3.331a2.031,2.031,0,0,0-1.6,2.214h0A2.031,2.031,0,0,0,320.33,200.7Z" transform="translate(64.608 -78.279)" fill="#fff" stroke="#263238" stroke-linecap="round" stroke-miterlimit="10" stroke-width="1"/>
      <path id="Path_23" data-name="Path 23" d="M320.75,203.317l21.47-3.372a2.031,2.031,0,0,0,1.625-2.214h0a2.031,2.031,0,0,0-2.214-1.6l-21.47,3.331a2.031,2.031,0,0,0-1.625,2.214h0A2.031,2.031,0,0,0,320.75,203.317Z" transform="translate(65.021 -75.592)" fill="#fff" stroke="#263238" stroke-linecap="round" stroke-miterlimit="10" stroke-width="1"/>
      <path id="Path_24" data-name="Path 24" d="M317.184,213.9a7.19,7.19,0,1,0,1.327-5.388,7.191,7.191,0,0,0-1.327,5.388Z" transform="translate(63.55 -65.805)" fill="#263238" stroke="#263238" stroke-linecap="round" stroke-miterlimit="10" stroke-width="1"/>
      <path id="Path_25" data-name="Path 25" d="M322.13,212.237l21.47-3.352a2.031,2.031,0,0,0,1.625-2.214h0a2.031,2.031,0,0,0-2.214-1.6l-21.47,3.331a2.031,2.031,0,0,0-1.625,2.214h0a2.031,2.031,0,0,0,2.214,1.625Z" transform="translate(66.444 -66.372)" fill="#fff" stroke="#263238" stroke-linecap="round" stroke-miterlimit="10" stroke-width="1"/>
      <path id="Path_26" data-name="Path 26" d="M322.54,214.837l21.491-3.331a2.031,2.031,0,0,0,1.625-2.214h0a2.031,2.031,0,0,0-2.214-1.625l-21.491,3.352a2.031,2.031,0,0,0-1.6,2.214h0A2.031,2.031,0,0,0,322.54,214.837Z" transform="translate(66.888 -63.691)" fill="#fff" stroke="#263238" stroke-linecap="round" stroke-miterlimit="10" stroke-width="1"/>
      <path id="Path_27" data-name="Path 27" d="M318.978,225.39a7.191,7.191,0,1,0,5.992-8.125,7.191,7.191,0,0,0-5.992,8.125Z" transform="translate(65.413 -53.871)" fill="#263238" stroke="#263238" stroke-linecap="round" stroke-miterlimit="10" stroke-width="1"/>
      <path id="Path_28" data-name="Path 28" d="M323.92,223.756l21.491-3.331a2.031,2.031,0,0,0,1.625-2.214h0a2.031,2.031,0,0,0-2.214-1.6l-21.491,3.331a2.031,2.031,0,0,0-1.6,2.214h0a1.889,1.889,0,0,0,2.194,1.6Z" transform="translate(68.311 -54.472)" fill="#fff" stroke="#263238" stroke-linecap="round" stroke-miterlimit="10" stroke-width="1"/>
      <path id="Path_29" data-name="Path 29" d="M324.34,226.377l21.491-3.331a2.031,2.031,0,0,0,1.6-2.214h0a2.031,2.031,0,0,0-2.214-1.625l-21.47,3.352a2.031,2.031,0,0,0-1.625,2.214h0A2.031,2.031,0,0,0,324.34,226.377Z" transform="translate(68.723 -51.79)" fill="#fff" stroke="#263238" stroke-linecap="round" stroke-miterlimit="10" stroke-width="1"/>
      <path id="Path_30" data-name="Path 30" d="M320.778,236.93a7.191,7.191,0,1,0,5.992-8.125,7.191,7.191,0,0,0-5.992,8.125Z" transform="translate(67.269 -41.97)" fill="#263238" stroke="#263238" stroke-linecap="round" stroke-miterlimit="10" stroke-width="1"/>
      <path id="Path_31" data-name="Path 31" d="M325.73,235.327l21.491-3.372a2.031,2.031,0,0,0,1.6-2.214h0a2.031,2.031,0,0,0-2.214-1.625l-21.47,3.352a2.031,2.031,0,0,0-1.625,2.214h0a2.031,2.031,0,0,0,2.214,1.645Z" transform="translate(70.157 -42.602)" fill="#fff" stroke="#263238" stroke-linecap="round" stroke-miterlimit="10" stroke-width="1"/>
      <path id="Path_32" data-name="Path 32" d="M326.131,237.917l21.47-3.352a2.031,2.031,0,0,0,1.625-2.194h0a2.031,2.031,0,0,0-2.214-1.625L325.521,234.1a2.031,2.031,0,0,0-1.6,2.214h0A2.031,2.031,0,0,0,326.131,237.917Z" transform="translate(70.569 -39.889)" fill="#fff" stroke="#263238" stroke-linecap="round" stroke-miterlimit="10" stroke-width="1"/>
      <path id="Path_33" data-name="Path 33" d="M322.567,248.463a7.191,7.191,0,1,0,6.094-8.125,7.191,7.191,0,0,0-6.094,8.125Z" transform="translate(69.116 -30.062)" fill="#263238" stroke="#263238" stroke-linecap="round" stroke-miterlimit="10" stroke-width="1"/>
      <path id="Path_34" data-name="Path 34" d="M327.5,246.847l21.531-3.331a2.031,2.031,0,0,0,1.625-2.214h0a2.031,2.031,0,0,0-2.214-1.625l-21.491,3.352a2.031,2.031,0,0,0-1.6,2.214h0A2.031,2.031,0,0,0,327.5,246.847Z" transform="translate(72.044 -30.68)" fill="#fff" stroke="#263238" stroke-linecap="round" stroke-miterlimit="10" stroke-width="1"/>
      <path id="Path_35" data-name="Path 35" d="M327.929,249.457l21.491-3.352a2.031,2.031,0,0,0,1.6-2.214h0a2.031,2.031,0,0,0-2.214-1.6l-21.47,3.352a2.031,2.031,0,0,0-1.625,2.194h0a2.031,2.031,0,0,0,2.214,1.625Z" transform="translate(72.427 -27.989)" fill="#fff" stroke="#263238" stroke-linecap="round" stroke-miterlimit="10" stroke-width="1"/>
      <path id="Path_36" data-name="Path 36" d="M324.368,260.01a7.191,7.191,0,1,0,5.992-8.125A7.191,7.191,0,0,0,324.368,260.01Z" transform="translate(70.971 -18.169)" fill="#263238" stroke="#263238" stroke-linecap="round" stroke-miterlimit="10" stroke-width="1"/>
      <path id="Path_37" data-name="Path 37" d="M329.319,258.387l21.491-3.352a2.031,2.031,0,0,0,1.6-2.214h0a2.031,2.031,0,0,0-2.214-1.6l-21.47,3.352a2.031,2.031,0,0,0-1.625,2.194h0a2.031,2.031,0,0,0,2.214,1.625Z" transform="translate(73.86 -18.78)" fill="#fff" stroke="#263238" stroke-linecap="round" stroke-miterlimit="10" stroke-width="1"/>
      <path id="Path_38" data-name="Path 38" d="M329.73,261l21.47-3.352a2.031,2.031,0,0,0,1.625-2.214h0a2.031,2.031,0,0,0-2.214-1.6l-21.491,3.331a2.031,2.031,0,0,0-1.6,2.214h0A2.031,2.031,0,0,0,329.73,261Z" transform="translate(74.282 -16.088)" fill="#fff" stroke="#263238" stroke-linecap="round" stroke-miterlimit="10" stroke-width="1"/>
      <path id="Path_39" data-name="Path 39" d="M326.164,271.593a7.191,7.191,0,1,0,1.327-5.387A7.191,7.191,0,0,0,326.164,271.593Z" transform="translate(72.811 -6.311)" fill="#263238" stroke="#263238" stroke-linecap="round" stroke-miterlimit="10" stroke-width="1"/>
      <path id="Path_40" data-name="Path 40" d="M331.131,269.927l21.47-3.352a2.031,2.031,0,0,0,1.625-2.214h0a2.031,2.031,0,0,0-2.214-1.6l-21.491,3.331a2.031,2.031,0,0,0-1.6,2.214h0A2.031,2.031,0,0,0,331.131,269.927Z" transform="translate(75.725 -6.879)" fill="#fff" stroke="#263238" stroke-linecap="round" stroke-miterlimit="10" stroke-width="1"/>
      <path id="Path_41" data-name="Path 41" d="M331.52,272.524l21.552-3.331a2.031,2.031,0,0,0,1.6-2.214h0a1.889,1.889,0,0,0-2.194-1.6l-21.552,3.331a2.031,2.031,0,0,0-1.625,2.214h0A2.031,2.031,0,0,0,331.52,272.524Z" transform="translate(76.128 -4.195)" fill="#fff" stroke="#263238" stroke-linecap="round" stroke-miterlimit="10" stroke-width="1"/>
      <path id="Path_42" data-name="Path 42" d="M327.958,283.08a7.191,7.191,0,1,0,5.992-8.125,7.191,7.191,0,0,0-5.992,8.125Z" transform="translate(74.673 5.622)" fill="#263238" stroke="#263238" stroke-linecap="round" stroke-miterlimit="10" stroke-width="1"/>
      <path id="Path_43" data-name="Path 43" d="M332.91,281.466l21.491-3.352a2.031,2.031,0,0,0,1.6-2.214h0a2.031,2.031,0,0,0-2.194-1.6l-21.491,3.331a2.031,2.031,0,0,0-1.625,2.214h0A2.031,2.031,0,0,0,332.91,281.466Z" transform="translate(77.561 5.023)" fill="#fff" stroke="#263238" stroke-linecap="round" stroke-miterlimit="10" stroke-width="1"/>
      <path id="Path_44" data-name="Path 44" d="M333.32,284.067l21.47-3.331a2.031,2.031,0,0,0,1.625-2.214h0A2.031,2.031,0,0,0,354.2,276.9l-21.47,3.352a2.031,2.031,0,0,0-1.625,2.214h0a2.031,2.031,0,0,0,2.214,1.6Z" transform="translate(77.984 7.703)" fill="#fff" stroke="#263238" stroke-linecap="round" stroke-miterlimit="10" stroke-width="1"/>
      <path id="Path_45" data-name="Path 45" d="M329.745,294.613a7.191,7.191,0,1,0,6.094-8.125,7.19,7.19,0,0,0-6.094,8.125Z" transform="translate(76.522 17.53)" fill="#263238" stroke="#263238" stroke-linecap="round" stroke-miterlimit="10" stroke-width="1"/>
      <path id="Path_46" data-name="Path 46" d="M334.71,293l21.47-3.331a2.031,2.031,0,0,0,1.625-2.214h0a2.031,2.031,0,0,0-2.214-1.625l-21.47,3.352a2.031,2.031,0,0,0-1.625,2.214h0a2.031,2.031,0,0,0,2.214,1.6Z" transform="translate(79.418 16.912)" fill="#fff" stroke="#263238" stroke-linecap="round" stroke-miterlimit="10" stroke-width="1"/>
      <path id="Path_47" data-name="Path 47" d="M335.12,295.646l21.491-3.331a2.031,2.031,0,0,0,1.6-2.214h0a2.031,2.031,0,0,0-2.194-1.625l-21.491,3.352a2.031,2.031,0,0,0-1.6,2.214h0a1.909,1.909,0,0,0,2.194,1.6Z" transform="translate(79.861 19.646)" fill="#fff" stroke="#263238" stroke-linecap="round" stroke-miterlimit="10" stroke-width="1"/>
      <path id="Path_48" data-name="Path 48" d="M331.548,306.17a7.191,7.191,0,1,0,5.992-8.125,7.191,7.191,0,0,0-5.992,8.125Z" transform="translate(78.376 29.434)" fill="#263238" stroke="#263238" stroke-linecap="round" stroke-miterlimit="10" stroke-width="1"/>
      <path id="Path_49" data-name="Path 49" d="M336.5,304.535,358.09,301.2a1.909,1.909,0,0,0,1.6-2.214h0a2.031,2.031,0,0,0-2.194-1.625L335.909,300.7a1.909,1.909,0,0,0-1.6,2.214h0a1.909,1.909,0,0,0,2.194,1.625Z" transform="translate(81.266 28.814)" fill="#fff" stroke="#263238" stroke-linecap="round" stroke-miterlimit="10" stroke-width="1"/>
      <path id="Path_50" data-name="Path 50" d="M336.909,307.147l21.47-3.352A1.91,1.91,0,0,0,360,301.6h0a2.031,2.031,0,0,0-2.214-1.625l-21.47,3.352a2.031,2.031,0,0,0-1.625,2.194h0A2.031,2.031,0,0,0,336.909,307.147Z" transform="translate(81.687 31.504)" fill="#fff" stroke="#263238" stroke-linecap="round" stroke-miterlimit="10" stroke-width="1"/>
      <path id="Path_51" data-name="Path 51" d="M333.335,317.693a7.191,7.191,0,1,0,6.094-8.125A7.191,7.191,0,0,0,333.335,317.693Z" transform="translate(80.224 41.332)" fill="#263238" stroke="#263238" stroke-linecap="round" stroke-miterlimit="10" stroke-width="1"/>
      <path id="Path_52" data-name="Path 52" d="M338.3,316.077l21.47-3.352a2.031,2.031,0,0,0,1.625-2.194h0a2.031,2.031,0,0,0-2.214-1.625l-21.47,3.352a2.031,2.031,0,0,0-1.625,2.194h0A2.031,2.031,0,0,0,338.3,316.077Z" transform="translate(83.121 40.714)" fill="#fff" stroke="#263238" stroke-linecap="round" stroke-miterlimit="10" stroke-width="1"/>
      <path id="Path_53" data-name="Path 53" d="M338.71,318.647l21.47-3.352a2.031,2.031,0,0,0,1.625-2.214h0a2.031,2.031,0,0,0-2.214-1.6L338.1,314.808a2.031,2.031,0,0,0-1.6,2.214h0A2.031,2.031,0,0,0,338.71,318.647Z" transform="translate(83.542 43.364)" fill="#fff" stroke="#263238" stroke-linecap="round" stroke-miterlimit="10" stroke-width="1"/>
      <path id="Path_54" data-name="Path 54" d="M335.138,329.24a7.191,7.191,0,1,0,5.992-8.125,7.191,7.191,0,0,0-5.992,8.125Z" transform="translate(82.078 53.225)" fill="#263238" stroke="#263238" stroke-linecap="round" stroke-miterlimit="10" stroke-width="1"/>
      <path id="Path_55" data-name="Path 55" d="M340.131,327.647,361.6,324.3a2.031,2.031,0,0,0,1.625-2.214h0a2.031,2.031,0,0,0-2.214-1.6l-21.491,3.331a2.031,2.031,0,0,0-1.6,2.214h0A2.031,2.031,0,0,0,340.131,327.647Z" transform="translate(85.007 52.645)" fill="#fff" stroke="#263238" stroke-linecap="round" stroke-miterlimit="10" stroke-width="1"/>
      <path id="Path_56" data-name="Path 56" d="M340.449,330.227l21.592-3.352a2.031,2.031,0,0,0,1.6-2.214h0a2.031,2.031,0,0,0-2.214-1.6l-21.47,3.331a2.031,2.031,0,0,0-1.625,2.214h0A2.031,2.031,0,0,0,340.449,330.227Z" transform="translate(85.44 55.306)" fill="#fff" stroke="#263238" stroke-linecap="round" stroke-miterlimit="10" stroke-width="1"/>
      <path id="Path_57" data-name="Path 57" d="M336.944,340.823a7.191,7.191,0,1,0,1.327-5.387A7.191,7.191,0,0,0,336.944,340.823Z" transform="translate(83.928 65.083)" fill="#263238" stroke="#263238" stroke-linecap="round" stroke-miterlimit="10" stroke-width="1"/>
      <path id="Path_58" data-name="Path 58" d="M341.932,339.142l21.491-3.352a2.031,2.031,0,0,0,1.6-2.214h0a2.031,2.031,0,0,0-2.3-1.564l-21.47,3.331a2.031,2.031,0,0,0-1.625,2.214h0A2.031,2.031,0,0,0,341.932,339.142Z" transform="translate(86.781 64.529)" fill="#fff" stroke="#263238" stroke-linecap="round" stroke-miterlimit="10" stroke-width="1"/>
      <path id="Path_59" data-name="Path 59" d="M342.3,341.757l21.47-3.331a2.031,2.031,0,0,0,1.625-2.214h0a2.031,2.031,0,0,0-2.214-1.625l-21.491,3.352a2.031,2.031,0,0,0-1.6,2.214h0A2.031,2.031,0,0,0,342.3,341.757Z" transform="translate(87.245 67.196)" fill="#fff" stroke="#263238" stroke-linecap="round" stroke-miterlimit="10" stroke-width="1"/>
      <path id="Path_60" data-name="Path 60" d="M338.728,352.31a7.191,7.191,0,1,0,5.992-8.125A7.191,7.191,0,0,0,338.728,352.31Z" transform="translate(85.78 77.016)" fill="#263238" stroke="#263238" stroke-linecap="round" stroke-miterlimit="10" stroke-width="1"/>
      <path id="Path_61" data-name="Path 61" d="M343.691,350.644l21.47-3.331a2.031,2.031,0,0,0,1.625-2.214h0a1.91,1.91,0,0,0-2.214-1.6l-21.491,3.331a2.031,2.031,0,0,0-1.6,2.214h0a1.91,1.91,0,0,0,2.214,1.6Z" transform="translate(88.678 76.366)" fill="#fff" stroke="#263238" stroke-linecap="round" stroke-miterlimit="10" stroke-width="1"/>
      <path id="Path_62" data-name="Path 62" d="M344.171,353.307l21.409-3.352a2.031,2.031,0,0,0,1.6-2.214h0a2.031,2.031,0,0,0-2.214-1.625l-21.47,3.352a2.031,2.031,0,0,0-1.625,2.214h0A2.031,2.031,0,0,0,344.171,353.307Z" transform="translate(89.091 79.087)" fill="#fff" stroke="#263238" stroke-linecap="round" stroke-miterlimit="10" stroke-width="1"/>
      <path id="Path_63" data-name="Path 63" d="M340.528,363.85a7.191,7.191,0,1,0,5.992-8.125,7.191,7.191,0,0,0-5.992,8.125Z" transform="translate(87.636 88.917)" fill="#263238" stroke="#263238" stroke-linecap="round" stroke-miterlimit="10" stroke-width="1"/>
      <path id="Path_64" data-name="Path 64" d="M345.48,362.227l21.491-3.331a2.031,2.031,0,0,0,1.6-2.214h0a2.031,2.031,0,0,0-2.214-1.625l-21.47,3.352a2.031,2.031,0,0,0-1.625,2.214h0a2.031,2.031,0,0,0,2.214,1.6Z" transform="translate(90.524 88.306)" fill="#fff" stroke="#263238" stroke-linecap="round" stroke-miterlimit="10" stroke-width="1"/>
      <path id="Path_65" data-name="Path 65" d="M345.891,364.837l21.47-3.352a2.031,2.031,0,0,0,1.625-2.194h0a2.031,2.031,0,0,0-2.214-1.625l-21.491,3.352a2.031,2.031,0,0,0-1.6,2.214h0A2.031,2.031,0,0,0,345.891,364.837Z" transform="translate(90.947 90.998)" fill="#fff" stroke="#263238" stroke-linecap="round" stroke-miterlimit="10" stroke-width="1"/>
      <path id="Path_66" data-name="Path 66" d="M342.317,375.383a7.191,7.191,0,1,0,6.094-8.125,7.191,7.191,0,0,0-6.094,8.125Z" transform="translate(89.483 100.825)" fill="#263238" stroke="#263238" stroke-linecap="round" stroke-miterlimit="10" stroke-width="1"/>
      <path id="Path_67" data-name="Path 67" d="M347.281,373.767l21.47-3.331a2.031,2.031,0,0,0,1.625-2.214h0a2.031,2.031,0,0,0-2.214-1.625l-21.491,3.352a2.031,2.031,0,0,0-1.6,2.214h0A2.031,2.031,0,0,0,347.281,373.767Z" transform="translate(92.38 100.207)" fill="#fff" stroke="#263238" stroke-linecap="round" stroke-miterlimit="10" stroke-width="1"/>
      <path id="Path_68" data-name="Path 68" d="M347.678,376.383l21.491-3.352a2.031,2.031,0,0,0,1.6-2.214h0a1.909,1.909,0,0,0-2.194-1.6l-21.491,3.352a1.889,1.889,0,0,0-1.6,2.194h0A2.031,2.031,0,0,0,347.678,376.383Z" transform="translate(92.795 102.892)" fill="#fff" stroke="#263238" stroke-linecap="round" stroke-miterlimit="10" stroke-width="1"/>
      <g id="Group_1" data-name="Group 1" transform="translate(55.835 60.633)" opacity="0.3">
        <line id="Line_1" data-name="Line 1" y1="0.813" x2="5.342" transform="translate(68.839 17.225)" fill="none" stroke="#000" stroke-linecap="round" stroke-miterlimit="10" stroke-width="1"/>
        <line id="Line_2" data-name="Line 2" y1="0.833" x2="5.342" transform="translate(79.524 15.559)" fill="none" stroke="#000" stroke-linecap="round" stroke-miterlimit="10" stroke-width="1"/>
        <line id="Line_3" data-name="Line 3" y1="0.833" x2="5.322" transform="translate(16.636 32.866)" fill="none" stroke="#000" stroke-linecap="round" stroke-miterlimit="10" stroke-width="1"/>
        <line id="Line_4" data-name="Line 4" y1="0.833" x2="5.342" transform="translate(27.3 31.2)" fill="none" stroke="#000" stroke-linecap="round" stroke-miterlimit="10" stroke-width="1"/>
        <line id="Line_5" data-name="Line 5" y1="0.833" x2="5.322" transform="translate(37.984 29.555)" fill="none" stroke="#000" stroke-linecap="round" stroke-miterlimit="10" stroke-width="1"/>
        <line id="Line_6" data-name="Line 6" y1="0.833" x2="5.342" transform="translate(48.649 27.889)" fill="none" stroke="#000" stroke-linecap="round" stroke-miterlimit="10" stroke-width="1"/>
        <line id="Line_7" data-name="Line 7" y1="0.833" x2="5.342" transform="translate(59.313 26.223)" fill="none" stroke="#000" stroke-linecap="round" stroke-miterlimit="10" stroke-width="1"/>
        <line id="Line_8" data-name="Line 8" y1="0.833" x2="5.322" transform="translate(69.997 24.558)" fill="none" stroke="#000" stroke-linecap="round" stroke-miterlimit="10" stroke-width="1"/>
        <line id="Line_9" data-name="Line 9" y1="0.813" x2="5.342" transform="translate(80.661 22.913)" fill="none" stroke="#000" stroke-linecap="round" stroke-miterlimit="10" stroke-width="1"/>
        <line id="Line_10" data-name="Line 10" y1="0.833" x2="5.342" transform="translate(17.773 40.219)" fill="none" stroke="#000" stroke-linecap="round" stroke-miterlimit="10" stroke-width="1"/>
        <line id="Line_11" data-name="Line 11" y1="0.833" x2="5.342" transform="translate(28.438 38.553)" fill="none" stroke="#000" stroke-linecap="round" stroke-miterlimit="10" stroke-width="1"/>
        <line id="Line_12" data-name="Line 12" y1="0.813" x2="5.342" transform="translate(39.122 36.908)" fill="none" stroke="#000" stroke-linecap="round" stroke-miterlimit="10" stroke-width="1"/>
        <line id="Line_13" data-name="Line 13" y1="0.833" x2="5.342" transform="translate(49.786 35.242)" fill="none" stroke="#000" stroke-linecap="round" stroke-miterlimit="10" stroke-width="1"/>
        <line id="Line_14" data-name="Line 14" y1="0.833" x2="5.322" transform="translate(60.47 33.577)" fill="none" stroke="#000" stroke-linecap="round" stroke-miterlimit="10" stroke-width="1"/>
        <line id="Line_15" data-name="Line 15" y1="0.833" x2="5.342" transform="translate(71.135 31.911)" fill="none" stroke="#000" stroke-linecap="round" stroke-miterlimit="10" stroke-width="1"/>
        <line id="Line_16" data-name="Line 16" y1="0.833" x2="5.342" transform="translate(81.799 30.245)" fill="none" stroke="#000" stroke-linecap="round" stroke-miterlimit="10" stroke-width="1"/>
        <line id="Line_17" data-name="Line 17" y1="0.833" x2="5.342" transform="translate(18.911 47.572)" fill="none" stroke="#000" stroke-linecap="round" stroke-miterlimit="10" stroke-width="1"/>
        <line id="Line_18" data-name="Line 18" y1="0.833" x2="5.322" transform="translate(29.595 45.906)" fill="none" stroke="#000" stroke-linecap="round" stroke-miterlimit="10" stroke-width="1"/>
        <line id="Line_19" data-name="Line 19" y1="0.833" x2="5.342" transform="translate(40.259 44.241)" fill="none" stroke="#000" stroke-linecap="round" stroke-miterlimit="10" stroke-width="1"/>
        <line id="Line_20" data-name="Line 20" y1="0.833" x2="5.322" transform="translate(50.944 42.595)" fill="none" stroke="#000" stroke-linecap="round" stroke-miterlimit="10" stroke-width="1"/>
        <line id="Line_21" data-name="Line 21" y1="0.833" x2="5.342" transform="translate(61.608 40.93)" fill="none" stroke="#000" stroke-linecap="round" stroke-miterlimit="10" stroke-width="1"/>
        <line id="Line_22" data-name="Line 22" y1="0.833" x2="5.342" transform="translate(72.272 39.264)" fill="none" stroke="#000" stroke-linecap="round" stroke-miterlimit="10" stroke-width="1"/>
        <line id="Line_23" data-name="Line 23" y1="0.833" x2="5.322" transform="translate(82.956 37.599)" fill="none" stroke="#000" stroke-linecap="round" stroke-miterlimit="10" stroke-width="1"/>
        <line id="Line_24" data-name="Line 24" y1="0.833" x2="5.322" transform="translate(20.069 54.925)" fill="none" stroke="#000" stroke-linecap="round" stroke-miterlimit="10" stroke-width="1"/>
        <line id="Line_25" data-name="Line 25" y1="0.833" x2="5.342" transform="translate(30.733 53.26)" fill="none" stroke="#000" stroke-linecap="round" stroke-miterlimit="10" stroke-width="1"/>
        <line id="Line_26" data-name="Line 26" y1="0.833" x2="5.342" transform="translate(41.397 51.594)" fill="none" stroke="#000" stroke-linecap="round" stroke-miterlimit="10" stroke-width="1"/>
        <line id="Line_27" data-name="Line 27" y1="0.813" x2="5.342" transform="translate(52.081 49.949)" fill="none" stroke="#000" stroke-linecap="round" stroke-miterlimit="10" stroke-width="1"/>
        <line id="Line_28" data-name="Line 28" y1="0.833" x2="5.342" transform="translate(62.745 48.283)" fill="none" stroke="#000" stroke-linecap="round" stroke-miterlimit="10" stroke-width="1"/>
        <line id="Line_29" data-name="Line 29" y1="0.833" x2="5.322" transform="translate(73.43 46.617)" fill="none" stroke="#000" stroke-linecap="round" stroke-miterlimit="10" stroke-width="1"/>
        <line id="Line_30" data-name="Line 30" y1="0.833" x2="5.342" transform="translate(84.094 44.952)" fill="none" stroke="#000" stroke-linecap="round" stroke-miterlimit="10" stroke-width="1"/>
        <line id="Line_31" data-name="Line 31" y1="0.833" x2="5.342" transform="translate(13.975 15.864)" fill="none" stroke="#000" stroke-linecap="round" stroke-miterlimit="10" stroke-width="1"/>
        <line id="Line_32" data-name="Line 32" y1="0.813" x2="5.342" transform="translate(24.659 14.219)" fill="none" stroke="#000" stroke-linecap="round" stroke-miterlimit="10" stroke-width="1"/>
        <line id="Line_33" data-name="Line 33" y1="0.833" x2="5.342" transform="translate(35.324 12.553)" fill="none" stroke="#000" stroke-linecap="round" stroke-miterlimit="10" stroke-width="1"/>
        <line id="Line_34" data-name="Line 34" y1="0.833" x2="5.322" transform="translate(46.008 10.888)" fill="none" stroke="#000" stroke-linecap="round" stroke-miterlimit="10" stroke-width="1"/>
        <line id="Line_35" data-name="Line 35" y1="0.833" x2="5.342" transform="translate(56.672 9.222)" fill="none" stroke="#000" stroke-linecap="round" stroke-miterlimit="10" stroke-width="1"/>
        <line id="Line_36" data-name="Line 36" y1="0.813" x2="5.322" transform="translate(67.356 7.577)" fill="none" stroke="#000" stroke-linecap="round" stroke-miterlimit="10" stroke-width="1"/>
        <line id="Line_37" data-name="Line 37" y1="0.833" x2="5.342" transform="translate(78.021 5.911)" fill="none" stroke="#000" stroke-linecap="round" stroke-miterlimit="10" stroke-width="1"/>
        <line id="Line_38" data-name="Line 38" x1="70.281" y2="10.928" transform="translate(14.178 9.973)" fill="none" stroke="#000" stroke-linecap="round" stroke-miterlimit="10" stroke-width="1"/>
        <line id="Line_39" data-name="Line 39" y1="4.225" x2="27.117" transform="translate(33.678)" fill="none" stroke="#000" stroke-linecap="round" stroke-miterlimit="10" stroke-width="1"/>
        <line id="Line_40" data-name="Line 40" y1="46.536" x2="299.062" transform="translate(0 33.495)" fill="none" stroke="#000" stroke-linecap="round" stroke-miterlimit="10" stroke-width="1"/>
        <line id="Line_41" data-name="Line 41" y1="46.536" x2="299.042" transform="translate(3.758 57.586)" fill="none" stroke="#000" stroke-linecap="round" stroke-miterlimit="10" stroke-width="1"/>
        <line id="Line_42" data-name="Line 42" y1="46.536" x2="299.062" transform="translate(7.495 81.656)" fill="none" stroke="#000" stroke-linecap="round" stroke-miterlimit="10" stroke-width="1"/>
        <line id="Line_43" data-name="Line 43" y1="46.536" x2="299.042" transform="translate(11.253 105.747)" fill="none" stroke="#000" stroke-linecap="round" stroke-miterlimit="10" stroke-width="1"/>
        <line id="Line_44" data-name="Line 44" y1="46.536" x2="299.062" transform="translate(14.991 129.838)" fill="none" stroke="#000" stroke-linecap="round" stroke-miterlimit="10" stroke-width="1"/>
        <line id="Line_45" data-name="Line 45" y1="46.556" x2="299.042" transform="translate(18.748 153.908)" fill="none" stroke="#000" stroke-linecap="round" stroke-miterlimit="10" stroke-width="1"/>
        <line id="Line_46" data-name="Line 46" y1="46.536" x2="299.062" transform="translate(22.486 177.999)" fill="none" stroke="#000" stroke-linecap="round" stroke-miterlimit="10" stroke-width="1"/>
        <line id="Line_47" data-name="Line 47" y1="46.536" x2="299.042" transform="translate(26.244 202.09)" fill="none" stroke="#000" stroke-linecap="round" stroke-miterlimit="10" stroke-width="1"/>
        <line id="Line_48" data-name="Line 48" y1="46.536" x2="299.062" transform="translate(29.981 226.18)" fill="none" stroke="#000" stroke-linecap="round" stroke-miterlimit="10" stroke-width="1"/>
        <line id="Line_49" data-name="Line 49" y1="46.556" x2="299.042" transform="translate(33.739 250.251)" fill="none" stroke="#000" stroke-linecap="round" stroke-miterlimit="10" stroke-width="1"/>
        <line id="Line_50" data-name="Line 50" y1="46.536" x2="299.062" transform="translate(37.477 274.341)" fill="none" stroke="#000" stroke-linecap="round" stroke-miterlimit="10" stroke-width="1"/>
        <line id="Line_51" data-name="Line 51" y1="46.536" x2="299.062" transform="translate(41.235 298.432)" fill="none" stroke="#000" stroke-linecap="round" stroke-miterlimit="10" stroke-width="1"/>
        <line id="Line_52" data-name="Line 52" y1="46.536" x2="299.062" transform="translate(44.972 322.523)" fill="none" stroke="#000" stroke-linecap="round" stroke-miterlimit="10" stroke-width="1"/>
        <line id="Line_53" data-name="Line 53" y1="46.536" x2="299.042" transform="translate(53.889 379.723)" fill="none" stroke="#000" stroke-linecap="round" stroke-miterlimit="10" stroke-width="1"/>
        <line id="Line_54" data-name="Line 54" y1="46.556" x2="299.042" transform="translate(56.855 398.776)" fill="none" stroke="#000" stroke-linecap="round" stroke-miterlimit="10" stroke-width="1"/>
        <line id="Line_55" data-name="Line 55" y1="46.536" x2="299.042" transform="translate(59.82 417.85)" fill="none" stroke="#000" stroke-linecap="round" stroke-miterlimit="10" stroke-width="1"/>
      </g>
      <path id="Path_69" data-name="Path 69" d="M185.985,217.867s-25.513,27.6-10.766,23.258,34.917-33.191,30.631-21.206-4.062,20.15,2.864,11.883,10.806-9.913,9.4-5.586,4.327,1.381,4.327,1.381,14.219-8.369,12.736-4.062-2.377,4.489,1.645,3.859l13.041-2.031s-.853,1.178,11.192-.711,16.738-4.652,22.77-5.586" transform="translate(-87.494 -54.026)" fill="none" stroke="#263238" stroke-linecap="round" stroke-miterlimit="10" stroke-width="1"/>
      <path id="Path_70" data-name="Path 70" d="M172.49,266.7s19.663-12.309,22.141-9.608-.914,7.333,7.963,4.936,16.961-9.831,17.591-5.83,6.337,1.077,6.337,1.077l5.017-.792s9.181-.386,12.045-1.869,5.83-15.3,3.636,3.555-9.892,2.559,8.409-5.423,21.694.731,21.694.731a28.049,28.049,0,0,0,5.87-2.031c3.839-1.645,7.231-6.277,10.867-2.722s10.156-7.739,10.156-7.739a59.544,59.544,0,0,1,7.5,1.909,17.55,17.55,0,0,0,7.333.914,55.7,55.7,0,0,0,9.181-.406c4.063-.63,7.414-5.261,10.725-3.717s8.328-12.614,5.809,4.225-18.809,24.517-12.188,14.219a84.317,84.317,0,0,1,22.12-22.974c7.414-5.261,9.567-4.57,11.192-.711s3.636,3.534,7.5,1.909.548-3.169,3.859-1.625a9.648,9.648,0,0,0,7.333.914c3.027-.467-11.091,7.9,3.027-.467s19.155-42.047,11.761-23.42-4.591,23.339,5.3,20.759" transform="translate(-85.577 -65.164)" fill="none" stroke="#263238" stroke-linecap="round" stroke-miterlimit="10" stroke-width="1"/>
      <path id="Path_71" data-name="Path 71" d="M173.54,273.035s24.131-23.278,22.648-26.142-9.181.406-14.808,10.522-1.666,15.681,13.467,7.17-6.886,2.031,8.653,2.763,20.13-9.3,20.6-6.3-4.713,2.783,7.5,2.031,6.236-6.094,18.749-4.977,18.078-2.823,18.078-2.823l8.023-1.239s-16.25,1.483,4.855-1.788,30.367-29.392,20.211-15.478-5.383,18.281,5.037,12.573l10.42-5.728s13.163-14.381,6.947,5.078-13.569,5.2,9.567-4.57,22.547-.427,30.266-3.677,6.459-11.294,11.578-4.9,4.794,4.408,12.817,3.148,5.87-2.031,12.9-3.027l15.153-2.4" transform="translate(-84.494 -37.836)" fill="none" stroke="#263238" stroke-linecap="round" stroke-miterlimit="10" stroke-width="1"/>
      <path id="Path_72" data-name="Path 72" d="M175.54,305.3s16.819-10.847,19.5-26.691-10.583,4.733-9.141,27.117-6.439-8.247,17.022-16.006-2.031,6.5.569,10.156,21.836-11.619,21.613-6.459,4.063,6.561,15.884-3.494-7.414-8.125-8.328-.752,4.794,4.388,19.378-.975.3,2.031,9.344.609,28.925-18.891,25-11.091-.142,12.37,4.245,7.577,13.731-17.57,14.5-12.553a12.187,12.187,0,0,1-1.808,8.511" transform="translate(-82.432 2.249)" fill="none" stroke="#263238" stroke-linecap="round" stroke-miterlimit="10" stroke-width="1"/>
    </g>
    <g id="freepik--highlighter-pen--inject-17" transform="translate(78.529 317.995)">
      <path id="Path_73" data-name="Path 73" d="M176.435,198.167a12.19,12.19,0,0,0-1.259-1.158,18.93,18.93,0,0,0-4.2-2.478l-.894-.325h-.223c-8-2.478-35.364-3.656-44.545-4.063a10.156,10.156,0,0,0-10.156,7.5v.223c-1.95,7.455-29.778,191.365-29.778,191.365s-.2,4.063-.487,10.42c-.122,2.783-.244,6.094-.406,9.445v2.641c0,1.788-.142,3.616-.223,5.464-.264,6.52-.508,13.386-.691,19.663-.142,4.469-.244,8.653-.3,12.188V456.1a104.14,104.14,0,0,0,.711,12.736c.792,5.241,2.62,7.658,7.13,8.45,1.117.2,2.742.447,4.713.691l1.219.142,5.586.609,1.544.142,4.773.386,3.291.2,3.311.162c2.173.1,4.327.142,6.378.142a62.663,62.663,0,0,0,8.938-.508h.264l.752-.142h0l.833-.2h.163l.833-.264,1.4-.528,1.28-.528a25.071,25.071,0,0,0,4.9-2.62,16.593,16.593,0,0,0,1.422-1.138,12.941,12.941,0,0,0,1.219-1.219l.528-.63a27.252,27.252,0,0,0,2.031-2.925h0a2.377,2.377,0,0,0,.244-.508l.122-.3.2-.528a4.243,4.243,0,0,1,.163-.467,2.17,2.17,0,0,1,.2-.65l.183-.569a3.116,3.116,0,0,1,.223-.792c.081-.284.142-.447.2-.67s.163-.609.264-.934.142-.548.223-.812.163-.65.264-1.016.162-.609.244-.914.183-.731.284-1.138l.244-.955.3-1.239a4.606,4.606,0,0,1,.284-1.1l.3-1.3c.1-.366.183-.772.284-1.158s.223-.914.325-1.381l.3-1.239a7.517,7.517,0,0,1,.325-1.422c.1-.488.2-.894.325-1.341s.223-.975.325-1.483a3.25,3.25,0,0,0,0-.427,4.338,4.338,0,0,1,.2-.853c.061-.284.244-1.1.386-1.666s.183-.853.284-1.3.244-1.117.386-1.686l.3-1.341.366-1.686a7.762,7.762,0,0,1,.325-1.483l.366-1.6a8.363,8.363,0,0,1,.325-1.544l.366-1.6a1.35,1.35,0,0,1,.142-.731,2.913,2.913,0,0,0,.2-.853c.061-.284.223-1.056.325-1.584s.223-1.036.345-1.564.223-1.1.345-1.625.223-1.056.345-1.584.2-1.016.325-1.523.223-1.117.345-1.686l.3-1.463c.122-.528.223-1.036.325-1.544s.223-1.077.345-1.6l.3-1.523a8.578,8.578,0,0,1,.284-1.4c.081-.467.142-.691.223-1.036l.122-.589a7.824,7.824,0,0,1,.264-1.341c.081-.447.223-1.016.325-1.523s.163-.873.264-1.3l.3-1.564a6.453,6.453,0,0,1,.2-1.056l.244-1.178v-.447c0-.162.142-.67.2-1.016l.3-1.483.183-1.016c.1-.467.183-.934.264-1.361l.183-.894.244-1.361a1.182,1.182,0,0,1,.142-.691l.244-1.32.122-.65a6.882,6.882,0,0,1,.2-1.158h0a7.465,7.465,0,0,1,.244-1.4c.345-2.031.813-6.52,1.381-12.8.223-2.356.447-4.956.691-7.8.873-10.359,1.889-23.684,2.966-38.309,0-1.32.183-2.661.284-4.062,4.063-55.291,8.572-126.243,8.572-126.243A4.773,4.773,0,0,0,176.435,198.167Z" transform="translate(-73.651 -188.101)" opacity="0.3"/>
      <path id="Path_74" data-name="Path 74" d="M80.766,388.229s-2.5,52.325-2.214,66.828.63,19.927,7.82,21.206,34.938,4.063,42.656,1.259,10.156-5.281,12.756-9.567,14.828-62.1,17.591-78.325S173.289,200.48,173.289,200.48s.427-3.677-6.988-6.947c-6.094-2.742-35.994-4.063-45.663-4.388a10.156,10.156,0,0,0-10.258,7.475s0,.162,0,.223C108.533,204.3,80.766,388.229,80.766,388.229Z" transform="translate(-78.529 -189.135)" fill="#1f426c"/>
      <g id="Group_2" data-name="Group 2" clip-path="url(#clip-path)">
        <path id="Path_75" data-name="Path 75" d="M101.37,476.5a18.286,18.286,0,0,0,4.063-.853c7.8-2.8,10.156-5.281,12.756-9.567s14.828-62.1,17.591-78.325,13.914-189.151,13.914-189.151.427-3.677-6.988-6.947a13.6,13.6,0,0,0-2.214-.711c-1.6,40.117-7.028,87.75-16.555,144.341C115.04,388.835,104.945,453.551,101.37,476.5Z" transform="translate(-54.974 -187.263)" opacity="0.5"/>
      </g>
      <path id="Path_77" data-name="Path 77" d="M80.766,388.229s-2.5,52.325-2.214,66.828.63,19.927,7.82,21.206,34.938,4.063,42.656,1.259,10.156-5.281,12.756-9.567,14.828-62.1,17.591-78.325S173.289,200.48,173.289,200.48s.427-3.677-6.988-6.947c-6.094-2.742-35.994-4.063-45.663-4.388a10.156,10.156,0,0,0-10.258,7.475s0,.162,0,.223C108.533,204.3,80.766,388.229,80.766,388.229Z" transform="translate(-78.529 -189.135)" fill="none" stroke="#263238" stroke-linecap="round" stroke-linejoin="round" stroke-width="1"/>
      <path id="Path_78" data-name="Path 78" d="M137.488,293.43c-8.673,0-46.028-3.941-51.817-5.18a45.4,45.4,0,0,1-4.875-1.3v.406s-2.5,52.325-2.214,66.828.63,19.927,7.82,21.206,34.938,4.063,42.656,1.259,10.156-5.281,12.756-9.567,14.219-58.906,17.347-76.9C151.849,293.978,144.618,293.369,137.488,293.43Z" transform="translate(-78.498 -88.262)" fill="#263238"/>
      <g id="Group_3" data-name="Group 3" transform="translate(0.061 198.688)" clip-path="url(#clip-path-2)">
        <path id="Path_79" data-name="Path 79" d="M101.37,476.5a18.286,18.286,0,0,0,4.063-.853c7.8-2.8,10.156-5.281,12.756-9.567s14.828-62.1,17.591-78.325,13.914-189.151,13.914-189.151.427-3.677-6.988-6.947a13.6,13.6,0,0,0-2.214-.711c-1.6,40.117-7.028,87.75-16.555,144.341C115.04,388.835,104.945,453.551,101.37,476.5Z" transform="translate(-55.035 -385.951)" opacity="0.5"/>
        <path id="Path_80" data-name="Path 80" d="M107.61,293.84a77.633,77.633,0,0,0,16.88-2.6" transform="translate(-48.6 -282.526)" fill="none" stroke="#fff" stroke-linecap="round" stroke-linejoin="round" stroke-width="1" opacity="0.26"/>
        <path id="Path_81" data-name="Path 81" d="M81.09,289.57s45.845,6.277,53.869,5.992" transform="translate(-75.949 -284.248)" fill="none" stroke="#fff" stroke-linecap="round" stroke-linejoin="round" stroke-width="1"/>
      </g>
      <path id="Path_83" data-name="Path 83" d="M137.488,293.43c-8.673,0-46.028-3.941-51.817-5.18a45.4,45.4,0,0,1-4.875-1.3v.406s-2.5,52.325-2.214,66.828.63,19.927,7.82,21.206,34.938,4.063,42.656,1.259,10.156-5.281,12.756-9.567,14.219-58.906,17.347-76.9C151.849,293.978,144.618,293.369,137.488,293.43Z" transform="translate(-78.498 -88.262)" fill="none" stroke="#263238" stroke-linecap="round" stroke-linejoin="round" stroke-width="1"/>
    </g>
    <g id="freepik--Plant--inject-17" transform="translate(546.565 64.18)">
      <circle id="Ellipse_1" data-name="Ellipse 1" cx="87.161" cy="87.161" r="87.161" transform="matrix(0.887, -0.462, 0.462, 0.887, 30.537, 130.081)" fill="#263238" stroke="#6aafd1" stroke-linecap="round" stroke-linejoin="round" stroke-width="1"/>
      <circle id="Ellipse_2" data-name="Ellipse 2" cx="87.161" cy="87.161" r="87.161" transform="matrix(0.123, -0.992, 0.992, 0.123, 44.335, 234.212)" fill="#fff" stroke="#6aafd1" stroke-linecap="round" stroke-linejoin="round" stroke-width="1"/>
      <circle id="Ellipse_3" data-name="Ellipse 3" cx="78.508" cy="78.508" r="78.508" transform="translate(51.404 223.227) rotate(-80.67)" fill="#263238" stroke="#6aafd1" stroke-linecap="round" stroke-linejoin="round" stroke-width="1"/>
      <path id="Path_84" data-name="Path 84" d="M441.352,147.78s-8.653-21.653-23.827-36.867-76.863-24.9-76.863-24.9a225.923,225.923,0,0,1,27.056,31.4c14.076,19.48,60.653,63.883,60.653,63.883s-22.75-19.5-43.327-21.653-72.536,8.653-75.786,8.653,19.48,8.673,35.73,16.25,79.036,14.077,79.036,14.077-27.056,7.577-45.48,14.077-35.73,54.133-35.73,54.133,23.827-21.653,44.4-27.077,49.806-15.092,49.806-15.092-18.4,20.577-22.73,34.653-1.1,46.556-1.1,46.556,9.75-30.327,21.653-42.23,24.9-32.5,24.9-32.5A296.319,296.319,0,0,1,476,261.449c8.653,18.423,14.077,45.48,14.077,45.48s14.077-30.306,13-45.48-17.306-42.21-17.306-42.21,10.827-7.577,27.056-1.077,44.4,33.577,44.4,33.577-6.5-35.73-17.327-49.806-57.383-18.424-57.383-18.424,25.98-15.153,42.23-18.4,37.9,4.327,37.9,4.327-24.924-34.531-44.4-36.806S469.5,160.78,469.5,160.78s6.5-32.5,8.673-43.306S476,79.57,476,79.57s-11.9,6.5-25.98,27.077a53.849,53.849,0,0,0-8.673,41.133Z" transform="translate(-308.946 -48.309)" fill="#1f426c"/>
      <path id="Path_85" data-name="Path 85" d="M441.352,147.78s-8.653-21.653-23.827-36.867-76.863-24.9-76.863-24.9a225.923,225.923,0,0,1,27.056,31.4c14.076,19.48,60.653,63.883,60.653,63.883s-22.75-19.5-43.327-21.653-72.536,8.653-75.786,8.653,19.48,8.673,35.73,16.25,79.036,14.077,79.036,14.077-27.056,7.577-45.48,14.077-35.73,54.133-35.73,54.133,23.827-21.653,44.4-27.077,49.806-15.092,49.806-15.092-18.4,20.577-22.73,34.653-1.1,46.556-1.1,46.556,9.75-30.327,21.653-42.23,24.9-32.5,24.9-32.5A296.319,296.319,0,0,1,476,261.449c8.653,18.423,14.077,45.48,14.077,45.48s14.077-30.306,13-45.48-17.306-42.21-17.306-42.21,10.827-7.577,27.056-1.077,44.4,33.577,44.4,33.577-6.5-35.73-17.327-49.806-57.383-18.424-57.383-18.424,25.98-15.153,42.23-18.4,37.9,4.327,37.9,4.327-24.924-34.531-44.4-36.806S469.5,160.78,469.5,160.78s6.5-32.5,8.673-43.306S476,79.57,476,79.57s-11.9,6.5-25.98,27.077a53.849,53.849,0,0,0-8.673,41.133Z" transform="translate(-308.946 -48.309)" opacity="0.5"/>
      <path id="Path_86" data-name="Path 86" d="M384.63,101.643c.752-3.128,1.584-6.216,2.5-9.283" transform="translate(-230.896 -35.119)" fill="none" stroke="#6aafd1" stroke-linecap="round" stroke-linejoin="round" stroke-width="0.5"/>
      <path id="Path_87" data-name="Path 87" d="M349,96.92c10.156,7.414,22.811,17.591,29.331,26.406,11.9,16.25,35.73,50.9,35.73,50.9a322.254,322.254,0,0,1,5.5-69.408" transform="translate(-267.64 -30.417)" fill="none" stroke="#6aafd1" stroke-linecap="round" stroke-linejoin="round" stroke-width="0.5"/>
      <path id="Path_88" data-name="Path 88" d="M341.62,91.83s3.148,2.031,7.881,5.261" transform="translate(-275.25 -35.666)" fill="none" stroke="#6aafd1" stroke-linecap="round" stroke-linejoin="round" stroke-width="0.5"/>
      <path id="Path_89" data-name="Path 89" d="M381.06,157.808s41.153-41.153,58.48-44.4,32.5,9.75,32.5,9.75" transform="translate(-234.577 -13.955)" fill="none" stroke="#6aafd1" stroke-linecap="round" stroke-linejoin="round" stroke-width="0.5"/>
      <path id="Path_90" data-name="Path 90" d="M350.408,152c-10.014,6.378-10.928,9.973-10.928,9.973" transform="translate(-277.457 26.385)" fill="none" stroke="#6aafd1" stroke-linecap="round" stroke-linejoin="round" stroke-width="0.5"/>
      <path id="Path_91" data-name="Path 91" d="M504.583,170.17s-6.5-16.25-29.25-23.827-58.46-8.673-58.46-8.673-50.111,16.413-68.433,24.964" transform="translate(-268.217 11.607)" fill="none" stroke="#6aafd1" stroke-linecap="round" stroke-linejoin="round" stroke-width="0.5"/>
      <path id="Path_92" data-name="Path 92" d="M371.36,134.63c12.188,3.514,21.877,6.094,21.877,6.094" transform="translate(-244.581 8.472)" fill="none" stroke="#6aafd1" stroke-linecap="round" stroke-linejoin="round" stroke-width="0.5"/>
      <path id="Path_93" data-name="Path 93" d="M333.81,125.16c11.761.711,26.914,2.316,35.344,5.931,6.866,2.945,20.414,7.211,33.17,11.009" transform="translate(-283.304 -1.294)" fill="none" stroke="#6aafd1" stroke-linecap="round" stroke-linejoin="round" stroke-width="0.5"/>
      <path id="Path_94" data-name="Path 94" d="M325.62,124.88s3.961,0,9.811.223" transform="translate(-291.75 -1.583)" fill="none" stroke="#6aafd1" stroke-linecap="round" stroke-linejoin="round" stroke-width="0.5"/>
      <path id="Path_95" data-name="Path 95" d="M398.664,140.87s-30.306,45.48-32.5,56.306a110.2,110.2,0,0,0-2.173,19.5" transform="translate(-252.181 14.907)" fill="none" stroke="#6aafd1" stroke-linecap="round" stroke-linejoin="round" stroke-width="0.5"/>
      <path id="Path_96" data-name="Path 96" d="M387.7,147.92c5.83,7.536,12.838,17.57,15.742,25.756a176.317,176.317,0,0,1,7.6,30.306" transform="translate(-227.73 22.177)" fill="none" stroke="#6aafd1" stroke-linecap="round" stroke-linejoin="round" stroke-width="0.5"/>
      <path id="Path_97" data-name="Path 97" d="M383.19,142.47s2.417,2.681,5.769,6.8" transform="translate(-232.381 16.557)" fill="none" stroke="#6aafd1" stroke-linecap="round" stroke-linejoin="round" stroke-width="0.5"/>
      <path id="Path_98" data-name="Path 98" d="M410.972,172.994s-5.606-22.649-2.133-43.814,47.938-65,47.938-65a225.115,225.115,0,0,0-3.677,41.3c0,24.05-12,87.344-12,87.344s7.109-29.108,22.567-42.86,63.964-35.364,66.6-37.4-10.766,18.4-19.541,34.044-56,57.525-56,57.525,26.406-9.628,45.155-15.092,60.674,23.217,60.674,23.217-31.972-3.7-51.838,3.9-49.3,16.738-49.3,16.738,26.955,5.992,38.594,14.889,28.011,37.192,28.011,37.192-25.594-18.952-42.209-21.673-39.183-11.863-39.183-11.863a301.018,301.018,0,0,0,4.489,34.1c3.7,20.008,15.092,45.155,15.092,45.155s-29.108-16.413-37.07-29.372-10.562-44.4-10.562-44.4-13.224.163-22.628,14.909-16.473,53.158-16.473,53.158-15.58-32.8-14.991-50.558,35.892-48.425,35.892-48.425-29.961,2.844-45.053,9.669-28.255,25.634-28.255,25.634,0-42.656,14.584-55.8,56.022-5.606,56.022-5.606l-32.3-30.144c-8.125-7.516-20.313-32.033-20.313-32.033s13.447-1.686,36.888,6.825A53.808,53.808,0,0,1,410.972,172.994Z" transform="translate(-292.318 -64.18)" fill="#1f426c"/>
      <path id="Path_99" data-name="Path 99" d="M353.144,113.784q-3.656-3.148-7.434-6.094" transform="translate(-271.032 -19.31)" fill="none" stroke="#6aafd1" stroke-linecap="round" stroke-linejoin="round" stroke-width="0.5"/>
      <path id="Path_100" data-name="Path 100" d="M405.02,89.92c-3.92,11.923-8.267,27.584-8.389,38.594-.2,20.13.67,62.177.67,62.177a321.575,321.575,0,0,0-44.952-53.178" transform="translate(-264.185 -37.635)" fill="none" stroke="#6aafd1" stroke-linecap="round" stroke-linejoin="round" stroke-width="0.5"/>
      <path id="Path_101" data-name="Path 101" d="M383.042,81.46s-1.422,3.473-3.352,8.877" transform="translate(-235.99 -46.36)" fill="none" stroke="#6aafd1" stroke-linecap="round" stroke-linejoin="round" stroke-width="0.5"/>
      <path id="Path_102" data-name="Path 102" d="M422.248,142.009s-57.424-9.425-73.389-2.031-20.7,26.853-20.7,26.853" transform="translate(-289.131 11.067)" fill="none" stroke="#6aafd1" stroke-linecap="round" stroke-linejoin="round" stroke-width="0.5"/>
      <path id="Path_103" data-name="Path 103" d="M413.77,132.237c11.862-.65,14.686,1.747,14.686,1.747" transform="translate(-200.845 5.889)" fill="none" stroke="#6aafd1" stroke-linecap="round" stroke-linejoin="round" stroke-width="0.5"/>
      <path id="Path_104" data-name="Path 104" d="M349.716,229.835s-4.184-16.981,9.852-36.4S402.021,152.3,402.021,152.3s50.253-15.9,70.139-19.642" transform="translate(-267.503 6.44)" fill="none" stroke="#6aafd1" stroke-linecap="round" stroke-linejoin="round" stroke-width="0.5"/>
      <path id="Path_105" data-name="Path 105" d="M389.359,133.58c-7.78,9.913-14.219,17.773-14.219,17.773" transform="translate(-240.682 7.389)" fill="none" stroke="#6aafd1" stroke-linecap="round" stroke-linejoin="round" stroke-width="0.5"/>
      <path id="Path_106" data-name="Path 106" d="M430.354,104c-9.161,7.434-20.516,17.57-25.269,25.431-3.859,6.4-12.35,17.773-20.5,28.3" transform="translate(-230.937 -23.115)" fill="none" stroke="#6aafd1" stroke-linecap="round" stroke-linejoin="round" stroke-width="0.5"/>
      <path id="Path_107" data-name="Path 107" d="M417.57,99s-3.209,2.3-7.82,5.891" transform="translate(-204.991 -28.272)" fill="none" stroke="#6aafd1" stroke-linecap="round" stroke-linejoin="round" stroke-width="0.5"/>
      <path id="Path_108" data-name="Path 108" d="M377.9,144.3s51.147,19.256,59.231,26.792a111.594,111.594,0,0,1,13.122,14.564" transform="translate(-237.836 18.444)" fill="none" stroke="#6aafd1" stroke-linecap="round" stroke-linejoin="round" stroke-width="0.5"/>
      <path id="Path_109" data-name="Path 109" d="M376.69,153.89c-.345,9.547-.183,21.8,2.214,30.124a176.056,176.056,0,0,0,11.538,29.047" transform="translate(-239.226 28.334)" fill="none" stroke="#6aafd1" stroke-linecap="round" stroke-linejoin="round" stroke-width="0.5"/>
      <path id="Path_110" data-name="Path 110" d="M377.461,146.85s-.406,3.555-.711,8.877" transform="translate(-239.022 21.074)" fill="none" stroke="#6aafd1" stroke-linecap="round" stroke-linejoin="round" stroke-width="0.5"/>
    </g>
    <g id="freepik--Hand--inject-17" transform="translate(405.34 401.438)">
      <path id="Path_111" data-name="Path 111" d="M526.976,499.21c-3.9-10.989-4.591-68.636-3.717-109.688l22.811,4.936a16.677,16.677,0,0,0,11.639-1.727,16.249,16.249,0,0,0,2.438-1.666,14.215,14.215,0,0,0,2.031-2.031,16.474,16.474,0,0,0,4.062-8.552,16.258,16.258,0,0,0,.162-1.706,16.636,16.636,0,0,0-2.377-9.384,16.942,16.942,0,0,0-1.909-2.58,16.7,16.7,0,0,0-9.973-5.342L524.6,357.408c.244-3.575.528-6.358.813-8.125a38.108,38.108,0,0,0,.609-8.125l1.889-6.094c2.783-8.917.67-22.039-6.906-29.494s-34.531-20.577-42.413-27.463S411.7,229.2,401.12,231.673s-23.1,17.57-33.759,25.919-49.075,39.853-49.075,39.853c.122-1.32-19.744,6.7-24.578,14.483a3.392,3.392,0,0,0-1.036,2.722,14.036,14.036,0,0,0,8.816,9.709l-17.225-2.539a5.18,5.18,0,0,0-5.078,2.275c-6.094-.914-18.525-2.275-27.5.183,0,0,14.645,7.17,25.594,9.567a5.18,5.18,0,0,0,3.819,3.392l22.852,4.9a26.085,26.085,0,0,0-.934,4.063,7.131,7.131,0,0,0,.508,3.7c.1.772.244,1.564.427,2.4,3.25,13.813,20.8,30.591,33.6,41.681s25.045,30.083,32.642,52.1,12.35,42.311,29.25,64.655a104.774,104.774,0,0,0,9.364,10.7l157.565,99.532S532.643,515.359,526.976,499.21ZM321.393,325.985c-.264.406-.528.813-.752,1.239l-4.347-.65a36.409,36.409,0,0,0,5.1-.589Z" transform="translate(-226.777 -228.818)" opacity="0.3"/>
      <path id="Path_112" data-name="Path 112" d="M452.435,653.66,351.847,479.785S340.594,400.789,316.6,369s-57.627-54.986-38.106-71.236,69.063-47.328,79.219-45.338,78.528,36.563,97.846,42.149,26.081,13.792,23.2,30.469S474.7,458.66,480.405,474.808s69.2,131.239,69.2,131.239" transform="translate(-205.15 -207.402)" fill="#fff"/>
      <g id="Group_4" data-name="Group 4" transform="translate(67.502 44.933)" clip-path="url(#clip-path-3)">
        <path id="Path_113" data-name="Path 113" d="M385.445,449.258c-5.748-16.148-4.53-133.047-1.645-149.765,1.767-10.156-.1-17.245-6.256-22.344a74.568,74.568,0,0,1-4.448,27.2c-5.423,15.377-8.125,26.224-8.125,26.224s-.894,55.149,2.722,83.281,21.694,77.756,38.878,104.894c12.716,20.069,30.855,38.147,39.447,46.211C428.345,532.784,389.751,461.69,385.445,449.258Z" transform="translate(-177.549 -226.744)" fill="#1f426c"/>
        <path id="Path_114" data-name="Path 114" d="M385.445,449.258c-5.748-16.148-4.53-133.047-1.645-149.765,1.767-10.156-.1-17.245-6.256-22.344a74.568,74.568,0,0,1-4.448,27.2c-5.423,15.377-8.125,26.224-8.125,26.224s-.894,55.149,2.722,83.281,21.694,77.756,38.878,104.894c12.716,20.069,30.855,38.147,39.447,46.211C428.345,532.784,389.751,461.69,385.445,449.258Z" transform="translate(-177.549 -226.744)" fill="#fff" opacity="0.5"/>
      </g>
      <path id="Path_116" data-name="Path 116" d="M452.435,653.66,351.847,479.785S340.594,400.789,316.6,369s-57.627-54.986-38.106-71.236,69.063-47.328,79.219-45.338,78.528,36.563,97.846,42.149,26.081,13.792,23.2,30.469S474.7,458.66,480.405,474.808s69.2,131.239,69.2,131.239" transform="translate(-205.15 -207.402)" fill="none" stroke="#263238" stroke-linecap="round" stroke-miterlimit="10" stroke-width="1"/>
      <path id="Path_117" data-name="Path 117" d="M262.5,300.567A90.513,90.513,0,0,0,306.8,286.1c22.608-14.463,15.377-17.184,15.377-17.184s11.741-3.616,18.972-6.317a94.492,94.492,0,0,0,17.184-9.953s28.945,18.992,42.494,24.375a145.7,145.7,0,0,0,19.988,6.825l18.911,24.822A64.715,64.715,0,0,0,413.5,331.28c-10.847,16.25-24.375,37.964-30.753,40.625s-3.616,5.423-31.647-5.424S260.692,316.858,262.5,300.567Z" transform="translate(-215.659 -207.077)" fill="#1f426c"/>
      <path id="Path_118" data-name="Path 118" d="M262.5,300.567A90.513,90.513,0,0,0,306.8,286.1c22.608-14.463,15.377-17.184,15.377-17.184s11.741-3.616,18.972-6.317a94.492,94.492,0,0,0,17.184-9.953s28.945,18.992,42.494,24.375a145.7,145.7,0,0,0,19.988,6.825l18.911,24.822A64.715,64.715,0,0,0,413.5,331.28c-10.847,16.25-24.375,37.964-30.753,40.625s-3.616,5.423-31.647-5.424S260.692,316.858,262.5,300.567Z" transform="translate(-215.659 -207.077)" fill="#fff" opacity="0.5"/>
      <path id="Path_119" data-name="Path 119" d="M287.14,295.87s21.734-2.681,37.05-30.57c0,0,18.038,7.638,36.806,2.742" transform="translate(-190.208 -194.031)" fill="none" stroke="#263238" stroke-linecap="round" stroke-miterlimit="10" stroke-width="1"/>
      <path id="Path_120" data-name="Path 120" d="M317.411,270.42s-10.481,27.747,11.619,64.452" transform="translate(-161.553 -188.751)" fill="none" stroke="#263238" stroke-linecap="round" stroke-miterlimit="10" stroke-width="1"/>
      <path id="Path_121" data-name="Path 121" d="M304.72,271.67s10.949,13.467,12.736,25.208" transform="translate(-172.079 -187.462)" fill="none" stroke="#263238" stroke-linecap="round" stroke-miterlimit="10" stroke-width="1"/>
      <path id="Path_122" data-name="Path 122" d="M314.81,335.621s18.281-11.558,28.011-23.583,14.117-24.7,29.453-29.758" transform="translate(-161.674 -176.521)" fill="none" stroke="#263238" stroke-linecap="round" stroke-miterlimit="10" stroke-width="1"/>
      <line id="Line_56" data-name="Line 56" x1="4.448" y1="5.261" transform="translate(129.533 66.008)" fill="none" stroke="#263238" stroke-linecap="round" stroke-miterlimit="10" stroke-width="1"/>
      <path id="Path_123" data-name="Path 123" d="M270.62,276.933s-18.891-3.819-31.2-.447c0,0,18.119,8.877,29.108,10.156Z" transform="translate(-239.42 -183.93)" fill="#263238" stroke="#263238" stroke-linecap="round" stroke-miterlimit="10" stroke-width="1"/>
      <path id="Path_124" data-name="Path 124" d="M526.912,314.371l-267.8-39.792a5.2,5.2,0,0,0-5.809,3.88l-1.219,5.159a5.18,5.18,0,0,0,3.941,6.358L521,347.257a16.738,16.738,0,0,0,20.089-13.894h0a16.738,16.738,0,0,0-14.178-18.992Z" transform="translate(-226.53 -184.521)" fill="#1f426c" stroke="#263238" stroke-linecap="round" stroke-miterlimit="10" stroke-width="1"/>
      <path id="Path_125" data-name="Path 125" d="M412.821,297.234l-40.483-6.094a20.313,20.313,0,0,0-9.2,22.2,20.558,20.558,0,0,0,3.9,8.125l39.792,8.592a16.737,16.737,0,0,0,20.089-13.894h0a16.738,16.738,0,0,0-14.1-18.931Z" transform="translate(-112.439 -167.384)" fill="#263238" stroke="#263238" stroke-linecap="round" stroke-miterlimit="10" stroke-width="1"/>
      <path id="Path_126" data-name="Path 126" d="M405.206,333.606s-23.034,5.4-33.333,2.966-31.322-32.013-45.764-41.742-23.238-12.045-38.35-14.32-25.553,5.017-22.344,18.85,20.78,30.591,33.6,41.681,25.045,30.063,32.642,52.1S344,435.433,360.9,457.7s37.984,31.424,45.074,32.663" transform="translate(-213.212 -178.771)" fill="#fff"/>
      <g id="Group_5" data-name="Group 5" transform="translate(51.622 101.326)" clip-path="url(#clip-path-4)">
        <path id="Path_127" data-name="Path 127" d="M385.844,336.868l-1.625-.833c-6.988,1.016-15.173,1.727-20.313.528-10.278-2.438-31.322-32.013-45.744-41.742s-23.238-12.045-38.35-14.32a33.35,33.35,0,0,0-7.292-.325,98.375,98.375,0,0,1,32.5,14.849c16.088,11.619,27.706,41.092,45.561,46.455S385.844,336.868,385.844,336.868Z" transform="translate(-256.907 -280.09)" fill="#1f426c"/>
        <path id="Path_128" data-name="Path 128" d="M385.844,336.868l-1.625-.833c-6.988,1.016-15.173,1.727-20.313.528-10.278-2.438-31.322-32.013-45.744-41.742s-23.238-12.045-38.35-14.32a33.35,33.35,0,0,0-7.292-.325,98.375,98.375,0,0,1,32.5,14.849c16.088,11.619,27.706,41.092,45.561,46.455S385.844,336.868,385.844,336.868Z" transform="translate(-256.907 -280.09)" fill="#fff" opacity="0.5"/>
      </g>
      <path id="Path_130" data-name="Path 130" d="M405.206,333.606s-23.034,5.4-33.333,2.966-31.322-32.013-45.764-41.742-23.238-12.045-38.35-14.32-25.553,5.017-22.344,18.85,20.78,30.591,33.6,41.681,25.045,30.063,32.642,52.1S344,435.433,360.9,457.7s37.984,31.424,45.074,32.663" transform="translate(-213.212 -178.771)" fill="none" stroke="#263238" stroke-linecap="round" stroke-miterlimit="10" stroke-width="1"/>
      <path id="Path_131" data-name="Path 131" d="M277.227,309.223s1.1-11.923,17.428-23.034c0,0-10.908-7.17-18.383-5.891s-10.42,5.363-11.558,12.919S277.227,309.223,277.227,309.223Z" transform="translate(-213.405 -178.723)" fill="#fff" stroke="#263238" stroke-linecap="round" stroke-miterlimit="10" stroke-width="1"/>
      <path id="Path_132" data-name="Path 132" d="M276.12,300.69a21.735,21.735,0,0,0,4.184,3.291" transform="translate(-201.573 -157.535)" fill="none" stroke="#263238" stroke-linecap="round" stroke-miterlimit="10" stroke-width="1"/>
      <path id="Path_133" data-name="Path 133" d="M289.548,286.82s-17.347,8.938-14.564,22.872" transform="translate(-203.057 -171.839)" fill="none" stroke="#263238" stroke-linecap="round" stroke-miterlimit="10" stroke-width="1"/>
      <path id="Path_134" data-name="Path 134" d="M492,342.615l2.762-8.917c2.762-8.9.67-22.019-6.906-29.474s-34.531-20.577-42.413-27.463-66.869-49.014-77.35-46.434-23.1,17.57-33.78,25.9-48.994,39.691-48.994,39.691-26.914,11.659-25.7,17.144,6.8,12.492,23.684,11.944,45.013-17.367,49.278-19.845S363.4,285.294,363.4,285.294a92.991,92.991,0,0,0,23.4,16.859c12.533,5.809,14.219,6.4,14.219,6.4s3.27,11.883,12.472,17.977" transform="translate(-218.63 -230.214)" fill="#fff"/>
      <g id="Group_6" data-name="Group 6" transform="translate(40.951)" clip-path="url(#clip-path-5)">
        <path id="Path_135" data-name="Path 135" d="M390.967,286.742c9.75,7.658,10.38,22.831,7.678,36.42l7.292,1.483,2.762-8.917c2.763-8.9.67-22.019-6.906-29.474s-34.531-20.577-42.413-27.463c-2.031-1.788-7.638-5.992-14.889-11.152l-1.442.223S378.313,276.809,390.967,286.742Z" transform="translate(-173.502 -212.243)" fill="#1f426c"/>
        <path id="Path_136" data-name="Path 136" d="M390.967,286.742c9.75,7.658,10.38,22.831,7.678,36.42l7.292,1.483,2.762-8.917c2.763-8.9.67-22.019-6.906-29.474s-34.531-20.577-42.413-27.463c-2.031-1.788-7.638-5.992-14.889-11.152l-1.442.223S378.313,276.809,390.967,286.742Z" transform="translate(-173.502 -212.243)" fill="#fff" opacity="0.5"/>
        <path id="Path_137" data-name="Path 137" d="M262.5,300.567A90.513,90.513,0,0,0,306.8,286.1c22.608-14.463,15.377-17.184,15.377-17.184s11.741-3.616,18.972-6.317a94.492,94.492,0,0,0,17.184-9.953s28.945,18.992,42.494,24.375a145.7,145.7,0,0,0,19.988,6.825l18.911,24.822A64.715,64.715,0,0,0,413.5,331.28c-10.847,16.25-24.375,37.964-30.753,40.625s-3.616,5.423-31.647-5.424S260.692,316.858,262.5,300.567Z" transform="translate(-256.609 -207.077)" fill="#1f426c"/>
        <path id="Path_138" data-name="Path 138" d="M262.5,300.567A90.513,90.513,0,0,0,306.8,286.1c22.608-14.463,15.377-17.184,15.377-17.184s11.741-3.616,18.972-6.317a94.492,94.492,0,0,0,17.184-9.953s28.945,18.992,42.494,24.375a145.7,145.7,0,0,0,19.988,6.825l18.911,24.822A64.715,64.715,0,0,0,413.5,331.28c-10.847,16.25-24.375,37.964-30.753,40.625s-3.616,5.423-31.647-5.424S260.692,316.858,262.5,300.567Z" transform="translate(-256.609 -207.077)" fill="#fff" opacity="0.5"/>
      </g>
      <path id="Path_140" data-name="Path 140" d="M492,342.615l2.762-8.917c2.762-8.9.67-22.019-6.906-29.474s-34.531-20.577-42.413-27.463-66.869-49.014-77.35-46.434-23.1,17.57-33.78,25.9-48.994,39.691-48.994,39.691-26.914,11.659-25.7,17.144,6.8,12.492,23.684,11.944,45.013-17.367,49.278-19.845S363.4,285.294,363.4,285.294a92.991,92.991,0,0,0,23.4,16.859c12.533,5.809,14.219,6.4,14.219,6.4s3.27,11.883,12.472,17.977" transform="translate(-218.63 -230.214)" fill="none" stroke="#263238" stroke-linecap="round" stroke-miterlimit="10" stroke-width="1"/>
      <path id="Path_141" data-name="Path 141" d="M259.6,279.847s2.722,1.3,8.491-1.016,16.981-14.666,17.1-16.25S260.514,271.418,259.6,279.847Z" transform="translate(-218.609 -197.001)" fill="#fff" stroke="#263238" stroke-linecap="round" stroke-miterlimit="10" stroke-width="1"/>
      <path id="Path_142" data-name="Path 142" d="M310.16,249.475a36.327,36.327,0,0,1,.955-3.6" transform="translate(-166.469 -214.058)" fill="none" stroke="#263238" stroke-linecap="round" stroke-miterlimit="10" stroke-width="1"/>
      <path id="Path_143" data-name="Path 143" d="M311.631,265.023A39.528,39.528,0,0,1,309.9,249.91" transform="translate(-166.863 -209.902)" fill="none" stroke="#263238" stroke-linecap="round" stroke-miterlimit="10" stroke-width="1"/>
    </g>
  </g>
</svg>
