<svg xmlns="http://www.w3.org/2000/svg" xmlns:xlink="http://www.w3.org/1999/xlink" preserveAspectRatio="none" viewBox="0 0 35 35">
  <defs>
    <linearGradient id="linear-gradient" x1="0.5" y1="1" x2="0.5" gradientUnits="objectBoundingBox">
      <stop offset="0" stop-color="#1f426c"/>
      <stop offset="1" stop-color="#a5b8ce"/>
    </linearGradient>
    <linearGradient id="linear-gradient-2" x1="0.5" y1="1" x2="0.5" gradientUnits="objectBoundingBox">
      <stop offset="0" stop-color="#a5b8ce"/>
      <stop offset="1" stop-color="#a5b8ce"/>
    </linearGradient>
    <linearGradient id="linear-gradient-3" x1="0.5" y1="1" x2="0.5" gradientUnits="objectBoundingBox">
      <stop offset="0" stop-color="#e8eef5"/>
      <stop offset="1" stop-color="#a5b8ce"/>
    </linearGradient>
  </defs>
  <g id="layers_1_" data-name="layers (1)" transform="translate(0 0)">
    <path id="Path_54" data-name="Path 54" d="M17.5,315.293a1.033,1.033,0,0,1-.459-.107L.567,306.99a1.012,1.012,0,0,1,0-1.818l8.271-4.064a1.035,1.035,0,0,1,.917,0l7.745,3.837,7.744-3.837a1.035,1.035,0,0,1,.917,0l8.271,4.064a1.012,1.012,0,0,1,0,1.818l-16.475,8.2a1.033,1.033,0,0,1-.459.107Z" transform="translate(0 -280.293)" fill="url(#linear-gradient)"/>
    <path id="Path_55" data-name="Path 55" d="M17.5,195.226a1.032,1.032,0,0,1-.459-.107L.567,186.99a1.012,1.012,0,0,1,0-1.818l8.271-4.064a1.035,1.035,0,0,1,.917,0l7.745,3.837,7.744-3.837a1.035,1.035,0,0,1,.917,0l8.271,4.064a1.012,1.012,0,0,1,0,1.818l-16.475,8.129a1.032,1.032,0,0,1-.459.107Z" transform="translate(0 -168.549)" fill="url(#linear-gradient-2)"/>
    <path id="Path_56" data-name="Path 56" d="M17.5,18.358a1.033,1.033,0,0,1-.459-.107L.567,10.122a1.012,1.012,0,0,1,0-1.818L17.041.107a1.035,1.035,0,0,1,.917,0L34.433,8.3a1.012,1.012,0,0,1,0,1.818L17.959,18.25a1.033,1.033,0,0,1-.459.107Z" transform="translate(0 0)" fill="url(#linear-gradient-3)"/>
  </g>
</svg>
