<svg xmlns="http://www.w3.org/2000/svg" preserveAspectRatio="none" viewBox="0 0 20.505 20.508">
  <path id="Call" d="M2.99,4.873c.316-.524,2.059-2.429,3.3-2.371a1.636,1.636,0,0,1,.967.517,16.863,16.863,0,0,1,2.468,3.34C9.971,7.526,8.578,8.2,9,9.378a9.873,9.873,0,0,0,5.619,5.616c1.177.426,1.851-.966,3.019-.723a16.892,16.892,0,0,1,3.34,2.468,1.638,1.638,0,0,1,.517.967c.046,1.309-1.977,3.077-2.371,3.3-.93.666-2.144.654-3.624-.034C11.374,19.257,4.774,12.782,3.024,8.5,2.355,7.025,2.308,5.8,2.99,4.873Z" transform="translate(-1.746 -1.748)" fill="none" stroke="#200e32" stroke-linecap="round" stroke-linejoin="round" stroke-width="1.5" fill-rule="evenodd"/>
</svg>
