<svg xmlns="http://www.w3.org/2000/svg" preserveAspectRatio="none" viewBox="0 0 13.234 16.542">
  <path id="Profile" d="M10.62,2a4.413,4.413,0,1,0,4.394,4.413A4.4,4.4,0,0,0,10.62,2Zm0,1.2a3.215,3.215,0,1,1-3.2,3.215A3.209,3.209,0,0,1,10.62,3.2ZM8.822,12.6a13.829,13.829,0,0,0-1.935.274,3.6,3.6,0,0,0-2.65,1.611A2.384,2.384,0,0,0,4,15.534a2.423,2.423,0,0,0,.232,1.036,3.3,3.3,0,0,0,2.461,1.573l.212.044a12.711,12.711,0,0,0,1.929.28,1.88,1.88,0,0,0,.334.039l.119,0c.061,0,.131,0,.235,0a20.775,20.775,0,0,0,2.888-.046,12.951,12.951,0,0,0,1.555-.2l.387-.08A3.414,3.414,0,0,0,17,16.571,2.421,2.421,0,0,0,17,14.5a3.446,3.446,0,0,0-2.659-1.623,14,14,0,0,0-1.549-.241l-.381-.032A20.417,20.417,0,0,0,8.822,12.6ZM12.307,13.8h.01a12.841,12.841,0,0,1,1.78.251c.965.2,1.619.528,1.827.965a1.218,1.218,0,0,1,0,1.042,2.313,2.313,0,0,1-1.631.916l-.186.039a11.931,11.931,0,0,1-1.788.26,19.9,19.9,0,0,1-2.765.043l-.326-.006a1.6,1.6,0,0,1-.237-.027,12.838,12.838,0,0,1-1.55-.206l-.292-.062c-.968-.19-1.628-.521-1.842-.963a1.22,1.22,0,0,1-.115-.52,1.177,1.177,0,0,1,.115-.515,2.673,2.673,0,0,1,1.824-.967A12.729,12.729,0,0,1,8.915,13.8,19.274,19.274,0,0,1,12.307,13.8Z" transform="translate(-4 -2)" fill="#fff" fill-rule="evenodd"/>
</svg>
