<svg xmlns="http://www.w3.org/2000/svg" preserveAspectRatio="none" viewBox="0 0 47 47">
  <path id="Graph" d="M28.844,2a3.428,3.428,0,0,0-2.422.882A3.3,3.3,0,0,0,25.4,4.675l-.052.387-.012.344,1.044,15.332a3.621,3.621,0,0,0,3.852,3.329l15.617-1.018a3.43,3.43,0,0,0,2.34-1.151,3.283,3.283,0,0,0,.807-1.9L49,19.523l-.023-.272A20.864,20.864,0,0,0,28.844,2Zm-.027,3.4.511.024a17.412,17.412,0,0,1,16.113,13.8l.077.423-15.5,1.014a.167.167,0,0,1-.165-.157Zm-10.88,5.631a3.853,3.853,0,0,1,4.034,2.151,3.517,3.517,0,0,1,.365,1.317l.913,12.9a.66.66,0,0,0,.233.458.68.68,0,0,0,.369.157l.145,0,13.1-.789a3.913,3.913,0,0,1,2.882,1.023,3.788,3.788,0,0,1,1.208,2.865A19.3,19.3,0,0,1,25.874,48.545,19.742,19.742,0,0,1,4.486,39.094a18.009,18.009,0,0,1-2.218-6.133l-.111-.8A12.179,12.179,0,0,1,2,30.387l.007-.569a19.274,19.274,0,0,1,15-18.6l.6-.132Zm.552,3.367-.2.023-.537.121A15.883,15.883,0,0,0,5.5,29.309l-.012.576a8.82,8.82,0,0,0,.052,1.343l.065.477A14.719,14.719,0,0,0,7.52,37.431a16.244,16.244,0,0,0,17.6,7.792A15.848,15.848,0,0,0,37.71,31a.371.371,0,0,0-.12-.274.388.388,0,0,0-.181-.094l-.1-.008-13.078.788a4.219,4.219,0,0,1-3.029-.987,4.033,4.033,0,0,1-1.421-2.79l-.912-12.887a.36.36,0,0,0-.047-.125A.383.383,0,0,0,18.489,14.4Z" transform="translate(-2 -2)" fill="#fff" fill-rule="evenodd"/>
</svg>
