<svg xmlns="http://www.w3.org/2000/svg" width="19" height="20" viewBox="0 0 19 20">
  <path id="Setting" d="M12.616,2H11.381a2.642,2.642,0,0,0-1.853.755,2.539,2.539,0,0,0-.752,1.593l-.009.194A1.139,1.139,0,0,1,7.621,5.666,1.075,1.075,0,0,1,7.2,5.571L7.062,5.5a2.646,2.646,0,0,0-3.553.96L2.86,7.507a2.542,2.542,0,0,0,.765,3.407l.155.1a1.135,1.135,0,0,1,.6.988,1.116,1.116,0,0,1-.493.923l-.105.065a2.527,2.527,0,0,0-1.029,3.3l.085.16.637,1.078a2.606,2.606,0,0,0,1.57,1.214,2.674,2.674,0,0,0,1.793-.128l.178-.087a1.184,1.184,0,0,1,.9-.134,1.125,1.125,0,0,1,.687.519,1.045,1.045,0,0,1,.148.422l.008.148A2.586,2.586,0,0,0,11.381,22h1.235a2.6,2.6,0,0,0,2.615-2.359l.008-.172a1.128,1.128,0,0,1,.334-.828,1.149,1.149,0,0,1,.809-.326,1.189,1.189,0,0,1,.435.1l.136.069a2.646,2.646,0,0,0,3.428-.776l.1-.152.66-1.077a2.521,2.521,0,0,0,.272-1.957,2.562,2.562,0,0,0-1.028-1.439l-.167-.1a1.141,1.141,0,0,1-.559-.695,1.117,1.117,0,0,1,.447-1.2l.257-.158a2.537,2.537,0,0,0,.884-3.2l-.057-.112a.715.715,0,0,0-.043-.085l-.613-1.042a2.652,2.652,0,0,0-3.387-1.044l-.164.083a1.187,1.187,0,0,1-.9.137,1.134,1.134,0,0,1-.695-.515,1.034,1.034,0,0,1-.144-.415l-.009-.148a2.493,2.493,0,0,0-.74-1.8A2.65,2.65,0,0,0,12.616,2ZM11.381,3.448h1.235a1.157,1.157,0,0,1,.822.34,1.11,1.11,0,0,1,.324.815l.013.252a2.488,2.488,0,0,0,.342,1.022,2.607,2.607,0,0,0,1.6,1.18A2.661,2.661,0,0,0,17.7,6.784l.1-.052.111-.044a1.157,1.157,0,0,1,1.34.513l.585,1,.013.028.071.134a1.106,1.106,0,0,1-.473,1.417l-.161.1a2.584,2.584,0,0,0-.793.837,2.513,2.513,0,0,0-.264,1.945,2.563,2.563,0,0,0,1.062,1.462l.272.169a1.1,1.1,0,0,1,.3,1.455L19.224,16.8l-.073.111a1.152,1.152,0,0,1-1.382.361l-.316-.158a2.74,2.74,0,0,0-1.048-.241,2.651,2.651,0,0,0-1.877.75,2.536,2.536,0,0,0-.766,1.824l-.006.109a1.132,1.132,0,0,1-1.14,1H11.381a1.138,1.138,0,0,1-1.139-1l-.02-.354a2.488,2.488,0,0,0-.343-1.022A2.591,2.591,0,0,0,8.3,16.989a2.652,2.652,0,0,0-1.987.261L6.2,17.3a1.16,1.16,0,0,1-1.443-.493L4.13,15.745l-.056-.107a1.1,1.1,0,0,1,.472-1.413l.156-.1a2.541,2.541,0,0,0,0-4.259l-.261-.162a1.1,1.1,0,0,1-.312-1.465L4.781,7.2a1.163,1.163,0,0,1,1.571-.428l.192.1a2.6,2.6,0,0,0,3.693-2.129l.014-.3a1.091,1.091,0,0,1,.325-.661A1.149,1.149,0,0,1,11.381,3.448ZM12,8.732A3.269,3.269,0,1,0,15.339,12,3.3,3.3,0,0,0,12,8.732Zm0,1.448A1.821,1.821,0,1,1,10.145,12,1.84,1.84,0,0,1,12,10.18Z" transform="translate(-2.5 -2)" fill="#fff" fill-rule="evenodd"/>
</svg>
