<svg id="Capa_1" enable-background="new 0 0 512 512" height="512" viewBox="0 0 512 512" width="512" xmlns="http://www.w3.org/2000/svg"><g><g><path d="m209.646 179.93c7.995-8.881 12.048-20.338 11.411-32.261-.636-11.921-5.884-22.878-14.777-30.855-18.356-16.467-46.705-14.958-63.196 3.36-7.995 8.881-12.048 20.338-11.411 32.262.636 11.92 5.884 22.878 14.776 30.853 8.537 7.659 19.234 11.43 29.896 11.43 12.263-.001 24.479-4.99 33.301-14.789zm-58.002-28.562c-.351-6.578 1.887-12.901 6.302-17.805 4.882-5.423 11.64-8.182 18.427-8.182 5.903 0 11.829 2.089 16.557 6.33 4.91 4.404 7.806 10.45 8.157 17.025.351 6.578-1.887 12.901-6.302 17.805-9.128 10.139-24.821 10.97-34.984 1.852-4.909-4.404-7.806-10.45-8.157-17.025z"/><path d="m298.327 259.444c-7.995 8.882-12.048 20.339-11.412 32.263.637 11.92 5.885 22.877 14.777 30.853 8.537 7.658 19.235 11.428 29.896 11.428 12.263 0 24.479-4.988 33.299-14.787 7.996-8.881 12.048-20.344 11.411-32.277-.637-11.928-5.884-22.891-14.776-30.867-.002-.002-.005-.004-.007-.007-18.361-16.437-46.707-14.913-63.188 3.394zm14.861 13.39c4.885-5.426 11.65-8.188 18.445-8.188 5.898 0 11.818 2.082 16.543 6.312 4.906 4.403 7.801 10.452 8.152 17.033.352 6.588-1.887 12.916-6.302 17.82-9.126 10.139-24.82 10.97-34.984 1.852-4.909-4.403-7.806-10.449-8.157-17.024-.349-6.577 1.888-12.901 6.303-17.805z"/><path d="m324.152 141.711c-18.348-16.458-46.684-14.951-63.167 3.36-7.995 8.881-12.048 20.338-11.411 32.261.636 11.92 5.884 22.878 14.769 30.847 8.533 7.671 19.231 11.448 29.896 11.447 12.261 0 24.479-4.993 33.307-14.799 7.987-8.872 12.035-20.319 11.399-32.234-.637-11.929-5.891-22.896-14.793-30.882zm-11.467 49.726c-9.136 10.149-24.826 10.985-34.984 1.853-4.909-4.404-7.806-10.45-8.157-17.025-.351-6.578 1.887-12.901 6.302-17.805 4.878-5.419 11.631-8.176 18.413-8.176 5.898 0 11.819 2.087 16.542 6.324 4.919 4.412 7.822 10.467 8.173 17.052.351 6.57-1.883 12.883-6.289 17.777z"/><path d="m78.586 248.471c-11.58 10.05-18.546 24.007-19.614 39.3-1.068 15.302 3.894 30.102 13.979 41.681 11.347 13.006 27.324 19.667 43.385 19.666 13.377 0 26.813-4.622 37.674-14.048 11.598-10.082 18.566-24.063 19.622-39.367 1.054-15.279-3.916-30.056-13.994-41.607-20.798-23.876-57.159-26.396-81.052-5.625zm75.094 45.853c-.687 9.965-5.229 19.072-12.782 25.637-15.59 13.53-39.312 11.885-52.874-3.66-6.565-7.537-9.797-17.174-9.101-27.137.695-9.954 5.229-19.038 12.774-25.586 7.085-6.159 15.848-9.178 24.575-9.178 10.473 0 20.894 4.35 28.293 12.845.001.002.003.004.005.006 6.561 7.519 9.795 17.133 9.11 27.073z"/><path d="m479.272 74.415c-13.067-17.959-11.526-37.381-10.507-50.233.746-9.404 1.451-18.287-6.416-22.604-8.215-4.507-16.905 1.224-28.282 9.812-24.855 18.749-41.198 37.849-54.646 63.861-6.651 12.855-11.841 27.386-14.655 42.107-28.488-28.382-64.669-48.435-103.918-57.266-5.39-1.211-10.738 2.175-11.95 7.565s2.174 10.743 7.562 11.955c41.26 9.283 78.784 32.26 106.029 64.837.623 19.251 6.516 37.198 19.871 50.287v31.892c0 9.952 8.585 18.048 19.137 18.048h.953v67.312c-10.13 43.654-35.427 82.694-71.335 110.019-.097.073-.192.148-.286.226-9.757 8.003-17.82 11.437-23.969 10.208-10.313-2.063-19.39-17.661-27.803-33.46-16.319-30.651-37.695-45.55-65.35-45.55s-49.032 14.9-65.349 45.549c-8.413 15.8-17.49 31.397-27.804 33.46-6.146 1.227-14.212-2.205-23.969-10.208-.093-.077-.188-.151-.284-.225-48.491-36.915-76.302-92.962-76.302-153.771 0-89.642 63.485-168.97 150.952-188.623 5.389-1.211 8.776-6.562 7.565-11.953-1.21-5.39-6.557-8.779-11.948-7.568-46.561 10.462-88.835 36.732-119.037 73.971-30.65 37.793-47.531 85.444-47.531 134.172 0 33.846 7.709 66.213 22.913 96.204 14.47 28.542 35.607 53.913 61.136 73.382 14.762 12.067 27.987 16.724 40.426 14.237 18.893-3.778 30.427-22.814 41.535-43.673 12.868-24.17 27.578-34.948 47.698-34.948 20.119 0 34.83 10.779 47.699 34.949 11.107 20.859 22.641 39.894 41.534 43.673 2.159.432 4.341.648 6.55.648 10.524 0 21.676-4.913 33.876-14.886 24.631-18.777 44.726-42.565 59.083-69.467v108.32c0 19.479 15.866 35.326 35.367 35.326s35.367-15.847 35.367-35.326v-231.999h.953c10.552 0 19.137-8.096 19.137-18.048v-30.043c7.958-4.733 13.6-12.076 16.477-21.581 8.671-28.646-9.061-71.162-30.479-100.588zm-82.088 10.03c12.144-23.49 26.317-40.027 48.927-57.082.896-.677 1.726-1.292 2.492-1.852-1.122 15.034-1.826 38.243 14.501 60.681 21.193 29.116 33.018 64.804 27.507 83.014-1.635 5.404-4.638 8.958-9.349 11.106h-85.019c-21.095-21.001-15.813-63.486.941-95.867zm40.633 407.547c-8.474 0-15.368-6.872-15.368-15.318v-45.824h30.736v45.823c.001 8.447-6.894 15.319-15.368 15.319zm15.369-81.149h-30.736v-166.168h30.736zm20.089-186.176-70.916-.004v-24.344h70.916z"/><path d="m213.708 74.898c5.523 0 10-4.479 10-10.004s-4.477-10.004-10-10.004h-.029c-5.523 0-9.985 4.479-9.985 10.004s4.491 10.004 10.014 10.004z"/></g></g></svg>