<svg xmlns="http://www.w3.org/2000/svg" width="365.209" height="153.142"><g data-name="Group 2"><path data-name="Path 23" d="M29.939 153.141a70.549 70.549 0 01-10.705-.544l.408-4.536c3.448.318 6.9.454 10.343.5zm10.705-.272l-.318-4.536a78.413 78.413 0 0010.3-1.043l.635 4.536a86.019 86.019 0 01-10.751.953zm-32.025-1.59q-4.536-.726-8.619-1.724l1.043-4.536q4.128 1 8.3 1.678zm53.21-1.315l-.953-4.536a156.094 156.094 0 0010.07-2.54l1.27 4.536c-3.538.817-7.031 1.769-10.524 2.495zm20.549-5.942l-1.588-4.309c3.221-1.179 6.487-2.54 9.617-3.947l1.905 4.173a291.335 291.335 0 01-10.025 4.083zm19.46-8.8l-2.177-4.037c3.039-1.633 6.033-3.4 9.072-5.262l2.495 3.856c-3.266 1.86-6.351 3.72-9.481 5.4zm18.145-11.567l-2.767-3.674c2.767-2.087 5.443-4.309 8.029-6.577l3.039 3.447c-3.085 2.313-5.67 4.582-8.528 6.759zm16.013-14.2l-3.311-3.175q1.815-1.905 3.584-3.856l3.311-3.9 3.538 2.9q-1.678 2.041-3.448 3.992t-3.9 3.992zM149.6 93.079l-3.674-2.722c2.087-2.812 4.083-5.67 6.078-8.528l3.765 2.586q-3.357 4.309-6.305 8.619zm11.885-17.419l-3.81-2.54.862-1.27 5.035-7.485 3.765 2.586-5.035 7.485zm11.885-17.328l-3.72-2.676c2.087-2.858 4.219-5.716 6.441-8.483l3.584 2.858q-3.2 4.015-6.26 8.3zm186.846-13.064a100.114 100.114 0 00-7.076-7.53l3.175-3.266c2.586 2.495 5.035 5.126 7.349 7.8zm-173.827-3.085l-3.357-3.13 3.266-3.448q2.132-2.132 4.536-4.128l3.085 3.4q-2.132 1.951-4.173 3.992zm159.039-11.25a122.914 122.914 0 00-8.3-6.169l2.54-3.81c2.948 2 5.852 4.128 8.619 6.4zm-143.752-2.586l-2.764-3.668a90.226 90.226 0 019.072-6.078l2.4 3.9a77.645 77.645 0 00-8.664 5.761zm126.654-9.068a112.647 112.647 0 00-9.073-4.536l1.86-4.173c3.266 1.452 6.487 3.085 9.617 4.808zm-109.1-1.951l-2.087-4.083c3.175-1.633 6.487-3.085 9.753-4.536l1.724 4.264c-3.13 1.406-6.305 2.812-9.344 4.355zm90.27-6.487a112.06 112.06 0 00-9.889-2.949l1.089-4.536c3.448.862 6.9 1.905 10.3 3.085zm-70.9-1.225l-1.315-4.536c3.4-1.043 6.9-1.951 10.388-2.676l.953 4.536A84.7 84.7 0 00238.6 9.616zm51.078-3.765c-3.4-.544-6.85-.907-10.252-1.134l.272-4.536a70.97 70.97 0 0110.66 1.179zm-30.892-.5l-.544-4.536a141.7 141.7 0 0110.706-.816v4.536c-3.448.136-6.94.408-10.343.816z"/><path data-name="Path 24" d="M365.208 20.094l-4.582-.045-.045 22.59-22.5-1.678-.363 4.581 27.444 2.041z"/></g></svg>