<svg xmlns="http://www.w3.org/2000/svg" xmlns:xlink="http://www.w3.org/1999/xlink" width="281.4" height="226.86"><defs><linearGradient id="a" x1=".5" y1="1" x2=".5" gradientUnits="objectBoundingBox"><stop offset="0" stop-color="gray" stop-opacity=".251"/><stop offset=".54" stop-color="gray" stop-opacity=".122"/><stop offset="1" stop-color="gray" stop-opacity=".102"/></linearGradient><linearGradient id="b" x1=".5" y1="1" x2=".5" y2="0" xlink:href="#a"/></defs><g data-name="Group 9" transform="translate(-868 -421.015)"><rect data-name="Rectangle 10" width="64.011" height="6.912" rx="3.456" transform="translate(1070.806 428.953)" fill="#f2f2f2"/><rect data-name="Rectangle 11" width="64.011" height="6.912" rx="3.456" transform="translate(1085.143 434.842)" fill="#f2f2f2"/><rect data-name="Rectangle 12" width="64.011" height="6.912" rx="3.456" transform="translate(1060.818 439.964)" fill="#f2f2f2"/><rect data-name="Rectangle 13" width="64.011" height="6.912" rx="3.456" transform="translate(961.216 508.073)" fill="#f2f2f2"/><rect data-name="Rectangle 14" width="64.011" height="6.912" rx="3.456" transform="translate(975.553 513.963)" fill="#f2f2f2"/><rect data-name="Rectangle 15" width="64.011" height="6.912" rx="3.456" transform="translate(951.228 519.081)" fill="#f2f2f2"/><g data-name="Group 2"><path data-name="Path 26" d="M430.153 678.187c-1.536 0-36.872 15.364-77.839-25.093-22.247-21.967-44.039-24.306-59.311-21.856a45.929 45.929 0 00-24.743 12.725c-5.459 5.36-18.672 12.665-49.629 10.67-47.624-3.072-60.171 30.983-60.171 30.983h281.4s-8.181-7.429-9.707-7.429z" transform="translate(709.54 -38.506)" fill="url(#a)" opacity=".5"/></g><path data-name="Path 27" d="M868.013 647.875s12.547-34.055 60.171-30.983c30.957 2 44.173-5.309 49.616-10.666a45.759 45.759 0 0124.713-12.726c15.271-2.451 37.066-.112 59.311 21.856 40.967 40.457 76.3 25.093 77.839 25.093s9.729 7.425 9.729 7.425z" fill="#f2f2f2"/><path data-name="Path 28" d="M868.013 647.875s12.547-34.055 60.171-30.983c30.957 2 44.173-5.309 49.616-10.666a45.759 45.759 0 0124.713-12.726c15.271-2.451 37.066-.112 59.311 21.856 40.967 40.457 76.3 25.093 77.839 25.093s9.729 7.425 9.729 7.425z" opacity=".02"/><rect data-name="Rectangle 16" width="64.011" height="6.912" rx="3.456" transform="translate(897.201 460.446)" fill="#f2f2f2"/><rect data-name="Rectangle 17" width="64.011" height="6.912" rx="3.456" transform="translate(911.542 466.335)" fill="#f2f2f2"/><rect data-name="Rectangle 18" width="64.011" height="6.912" rx="3.456" transform="translate(887.217 471.456)" fill="#f2f2f2"/><g data-name="Group 3"><circle data-name="Ellipse 9" cx="25.861" cy="25.861" r="25.861" fill="url(#b)" transform="translate(905.653 421.015)" opacity=".5"/></g><circle data-name="Ellipse 10" cx="23.044" cy="23.044" r="23.044" transform="translate(908.47 423.832)" fill="#fccc63"/><path data-name="Path 35" d="M1015.001 603.508a.251.251 0 01-.073-.2h.054a.252.252 0 00.073.2c.1.118.319.261.214.319h-.054c.095-.058-.112-.201-.214-.319z" fill="#fff" opacity=".2"/><path data-name="Path 74" d="M1020.317 600.54h-.112s.551.112.44.319h.112c.111-.211-.44-.319-.44-.319z" fill="#fff" opacity=".2"/><path data-name="Path 75" d="M1022.077 600.54h-.112s.551.112.44.319h.112c.113-.211-.44-.319-.44-.319z" fill="#fff" opacity=".2"/></g></svg>