<svg xmlns="http://www.w3.org/2000/svg" preserveAspectRatio="none" viewBox="0 0 290.37 200.484"><defs><linearGradient id="a" y1=".5" x2="1" y2=".5" gradientUnits="objectBoundingBox"><stop offset="0" stop-color="#fff"/><stop offset="1" stop-color="#fff" stop-opacity=".302"/></linearGradient></defs><g data-name="Group 14" transform="translate(-1391.125 -134.1)"><circle data-name="Ellipse 11" cx="48.154" cy="48.154" r="48.154" transform="translate(1579.369 151.045)" fill="#c9c9c9"/><circle data-name="Ellipse 12" cx="5.526" cy="5.526" r="5.526" transform="translate(1617.261 160.517)" opacity=".2"/><circle data-name="Ellipse 13" cx="5.526" cy="5.526" r="5.526" transform="translate(1626.734 215.776)" opacity=".2"/><circle data-name="Ellipse 14" cx="3.947" cy="3.947" r="3.947" transform="translate(1649.627 186.568)" opacity=".2"/><circle data-name="Ellipse 15" cx="12.631" cy="12.631" r="12.631" transform="translate(1595.947 190.515)" opacity=".2"/><path data-name="Path 79" d="M730.162 410.213l23.986-28.08 23.985-28.08 13.54-15.851c.749-.877-.407-2.245-1.156-1.368l-23.986 28.079-23.985 28.08-13.54 15.851c-.749.877.407 2.245 1.156 1.368z" transform="translate(745.988 -78.781)" opacity=".8" fill="url(#a)"/><path data-name="Path 80" d="M727.162 240.213l23.986-28.08 23.985-28.08 13.54-15.851c.749-.877-.407-2.245-1.156-1.368l-23.986 28.08-23.985 28.08-13.54 15.851c-.749.877.407 2.245 1.156 1.368z" transform="translate(746.806 -32.452)" opacity=".8" fill="url(#a)"/><circle data-name="Ellipse 16" cx="3.794" cy="3.794" r="3.794" transform="translate(1673.906 279.155)" fill="#e6e6e6"/><circle data-name="Ellipse 17" cx="3.794" cy="3.794" r="3.794" transform="translate(1428.746 247.873)" fill="#e6e6e6"/><path data-name="Path 83" d="M1605.689 268.639l-1.894 1.881-1.881-1.894-1.262 1.254 1.88 1.894-1.894 1.881 1.253 1.262 1.894-1.881 1.88 1.894 1.263-1.254-1.881-1.894 1.895-1.883z" fill="#e6e6e6"/><path data-name="Path 84" d="M1396.175 306.468l-1.894 1.881-1.881-1.894-1.262 1.254 1.881 1.894-1.894 1.881 1.253 1.262 1.894-1.881 1.881 1.894 1.263-1.254-1.881-1.894 1.893-1.883z" fill="#e6e6e6"/><path data-name="Path 85" d="M1584.592 328.292l-1.894 1.881-1.881-1.894-1.262 1.254 1.88 1.894-1.893 1.881 1.253 1.262 1.894-1.881 1.88 1.894 1.263-1.254-1.881-1.894 1.895-1.883z" fill="#e6e6e6"/><path data-name="Path 86" d="M1456.556 160.972l-1.894 1.881-1.881-1.894-1.262 1.254 1.88 1.894-1.894 1.881 1.253 1.262 1.894-1.881 1.881 1.894 1.263-1.254-1.881-1.894 1.895-1.883z" fill="#e6e6e6"/></g></svg>