<svg preserveAspectRatio="none" xmlns="http://www.w3.org/2000/svg" viewBox="0 0 47 52.222"><path d="M13.416 52.222a18.129 18.129 0 01-3.058-.248l-.569-.107C3.6 50.58 0 45.838 0 38.621V13.6a19.338 19.338 0 01.157-2.507C1.068 4.084 5.885 0 13.416 0h20.17C41.932 0 46.921 5.013 47 13.4v25.221c0 8.5-5 13.6-13.413 13.6zm0-48.418C7 3.8 3.752 7.1 3.752 13.6v25.02c0 6.5 3.251 9.8 9.664 9.8h20.147c6.41 0 9.64-3.3 9.64-9.8V13.6c0-6.5-3.23-9.8-9.64-9.8zm21.327 33.363a1.876 1.876 0 00-1.862-1.89H14.053a1.891 1.891 0 000 3.781h18.828a1.876 1.876 0 001.862-1.891zm-1.862-12.959a1.886 1.886 0 011.8.885 1.945 1.945 0 010 2.037 1.886 1.886 0 01-1.8.885H14.053a1.919 1.919 0 010-3.807zm-9.964-9.139a1.9 1.9 0 00-1.679-1.9h-7.162a1.917 1.917 0 000 3.8h7.162a1.9 1.9 0 001.679-1.9z" fill="#fff" fill-rule="evenodd"/></svg>