<svg preserveAspectRatio="none" fill="none" xmlns="http://www.w3.org/2000/svg"><path fill-rule="evenodd" clip-rule="evenodd" d="M7.695 13.39a1.17 1.17 0 01-1.168-1.168 1.169 1.169 0 012.337 0 1.17 1.17 0 01-1.169 1.169zm4.543 0a1.17 1.17 0 01-1.168-1.168 1.169 1.169 0 012.337 0 1.17 1.17 0 01-1.169 1.169zm3.375-1.168a1.17 1.17 0 002.337 0 1.169 1.169 0 00-2.337 0z" fill="#200E32"/><path clip-rule="evenodd" d="M12.02 2C6.21 2 2 6.746 2 12.015c0 1.682.49 3.414 1.35 4.997.16.26.18.59.07.902l-.67 2.243c-.15.541.31.94.82.78l2.02-.6c.55-.18.98.05 1.49.361C8.54 21.558 10.36 22 12 22c4.96 0 10-3.836 10-10.015C22 6.656 17.7 2 12.02 2z" stroke="#200E32" stroke-width="1.5" stroke-linecap="round" stroke-linejoin="round"/></svg>