<svg xmlns="http://www.w3.org/2000/svg" preserveAspectRatio="none" viewBox="0 0 20.505 20.508"><path d="M1.244 3.125C1.56 2.601 3.303.696 4.544.754a1.636 1.636 0 01.967.517 16.863 16.863 0 012.468 3.34c.246 1.167-1.147 1.841-.725 3.019a9.873 9.873 0 005.619 5.616c1.177.426 1.851-.966 3.019-.723a16.892 16.892 0 013.34 2.468 1.638 1.638 0 01.517.967c.046 1.309-1.977 3.077-2.371 3.3-.93.666-2.144.654-3.624-.034-4.126-1.715-10.726-8.19-12.476-12.472-.669-1.475-.716-2.7-.034-3.627z" fill="none" stroke="#200e32" stroke-linecap="round" stroke-linejoin="round" stroke-width="1.5"/></svg>