<svg preserveAspectRatio="none" xmlns="http://www.w3.org/2000/svg" viewBox="0 0 18 20"><path d="M12.939 1.39A1.988 1.988 0 0011.064 0H6.936l-.157.006a1.993 1.993 0 00-1.756 1.5l-.248 1.262-.029.111a.878.878 0 01-.829.61H.731l-.1.007a.752.752 0 00.1 1.493h16.538l.1-.007a.752.752 0 00-.1-1.493h-3.187l-.112-.007a.885.885 0 01-.746-.714l-.237-1.216zm-1.025 2.1a2.442 2.442 0 01-.086-.261l-.038-.166-.226-1.169a.521.521 0 00-.413-.385l-.087-.009H6.936a.525.525 0 00-.463.278l-.026.068-.237 1.216a2.448 2.448 0 01-.124.427zm4.064 3.23a.742.742 0 01.672.706l-.01.206-.314 3.851L16 15.241c-.07.75-.132 1.383-.186 1.881a2.938 2.938 0 01-3.014 2.842 201.75 201.75 0 01-7.663 0A2.916 2.916 0 012.19 17.13l-.127-1.26-.223-2.443-.228-2.681-.26-3.218a.744.744 0 01.67-.808.734.734 0 01.773.587l.03.295.245 3.017.267 3.127c.12 1.354.224 2.449.307 3.219a1.453 1.453 0 001.521 1.494c2.452.053 4.977.054 7.606.005a1.476 1.476 0 001.586-1.507l.127-1.253c.037-.386.077-.812.119-1.275l.267-3.076.322-3.946a.74.74 0 01.688-.689z" fill="#506e93" fill-rule="evenodd"/></svg>