<svg xmlns="http://www.w3.org/2000/svg" viewBox="0 0 384.97 384.97"><path d="M192.485 96.242c26.575 0 48.121-21.546 48.121-48.121S219.06 0 192.485 0s-48.121 21.546-48.121 48.121 21.546 48.121 48.121 48.121zm0-72.181c13.293 0 24.061 10.779 24.061 24.061s-10.767 24.061-24.061 24.061-24.061-10.767-24.061-24.061 10.767-24.061 24.061-24.061zm0 264.666c-26.575 0-48.121 21.546-48.121 48.121 0 26.575 21.546 48.121 48.121 48.121s48.121-21.546 48.121-48.121c0-26.574-21.546-48.121-48.121-48.121zm0 72.182c-13.293 0-24.061-10.767-24.061-24.061s10.767-24.061 24.061-24.061 24.061 10.779 24.061 24.061-10.768 24.061-24.061 24.061zm0-216.545c-26.575 0-48.121 21.546-48.121 48.121s21.546 48.121 48.121 48.121 48.121-21.546 48.121-48.121-21.546-48.121-48.121-48.121zm0 72.181c-13.293 0-24.061-10.767-24.061-24.061s10.767-24.061 24.061-24.061 24.061 10.779 24.061 24.061c-.001 13.282-10.768 24.061-24.061 24.061z"/></svg>