<svg xmlns="http://www.w3.org/2000/svg" preserveAspectRatio="none" viewBox="0 0 20 20"><g data-name="More Square"><path data-name="Path 1" d="M14.334.75H5.665C2.644.75.75 2.889.75 5.916v8.168c0 3.027 1.884 5.166 4.915 5.166h8.668c3.031 0 4.917-2.139 4.917-5.166V5.916c0-3.027-1.886-5.166-4.916-5.166z" fill="none" stroke="#200e32" stroke-linecap="round" stroke-linejoin="round" stroke-width="1.5"/><path data-name="Path 2" d="M5.52 11.2a1.2 1.2 0 111.2-1.2 1.2 1.2 0 01-1.2 1.2z" fill="#200e32"/><path data-name="Path 3" d="M9.999 11.2a1.2 1.2 0 111.2-1.2 1.2 1.2 0 01-1.2 1.2z" fill="#200e32"/><path data-name="Path 4" d="M14.478 11.2a1.2 1.2 0 111.2-1.2 1.2 1.2 0 01-1.2 1.2z" fill="#200e32"/></g></svg>