<svg xmlns="http://www.w3.org/2000/svg" preserveAspectRatio="none" viewBox="0 0 13.234 16.542"><path d="M6.62 0a4.413 4.413 0 104.394 4.413A4.4 4.4 0 006.62 0zm0 1.2a3.215 3.215 0 11-3.2 3.215A3.209 3.209 0 016.62 1.2zm-1.798 9.4a13.829 13.829 0 00-1.935.274 3.6 3.6 0 00-2.65 1.611A2.384 2.384 0 000 13.534a2.423 2.423 0 00.232 1.036 3.3 3.3 0 002.461 1.573l.212.044a12.711 12.711 0 001.929.28 1.88 1.88 0 00.334.039h.354a20.775 20.775 0 002.888-.046 12.951 12.951 0 001.555-.2l.387-.08A3.414 3.414 0 0013 14.571a2.421 2.421 0 000-2.071 3.446 3.446 0 00-2.659-1.623 14 14 0 00-1.549-.241l-.381-.032a20.417 20.417 0 00-3.589-.004zm3.485 1.2h.01a12.841 12.841 0 011.78.251c.965.2 1.619.528 1.827.965a1.218 1.218 0 010 1.042 2.313 2.313 0 01-1.631.916l-.186.039a11.931 11.931 0 01-1.788.26 19.9 19.9 0 01-2.765.043l-.326-.006a1.6 1.6 0 01-.237-.027 12.838 12.838 0 01-1.55-.206l-.292-.062c-.968-.19-1.628-.521-1.842-.963a1.22 1.22 0 01-.115-.52 1.177 1.177 0 01.115-.515 2.673 2.673 0 011.824-.967 12.729 12.729 0 011.784-.25 19.274 19.274 0 013.392 0z" fill="#fff" fill-rule="evenodd"/></svg>