<svg preserveAspectRatio="none" viewBox="0 0 24 24" fill="none" xmlns="http://www.w3.org/2000/svg"><path clip-rule="evenodd" d="M20.807 7.624l-.623-1.08a1.913 1.913 0 00-2.608-.705v0a1.904 1.904 0 01-2.61-.678 1.832 1.832 0 01-.255-.915v0a1.913 1.913 0 00-1.914-1.968h-1.254A1.904 1.904 0 009.64 4.191v0a1.913 1.913 0 01-1.913 1.886 1.83 1.83 0 01-.916-.257v0a1.913 1.913 0 00-2.608.705l-.669 1.099a1.913 1.913 0 00.696 2.608v0a1.913 1.913 0 010 3.314v0a1.904 1.904 0 00-.696 2.6v0l.632 1.089a1.913 1.913 0 002.609.741v0a1.894 1.894 0 012.6.696c.164.277.252.593.255.915v0c0 1.056.857 1.913 1.913 1.913h1.255a1.91 1.91 0 001.912-1.904v0a1.904 1.904 0 011.914-1.913c.321.009.636.097.915.256v0a1.913 1.913 0 002.609-.695v0l.659-1.099a1.904 1.904 0 00-.696-2.608v0a1.904 1.904 0 01-.696-2.61 1.88 1.88 0 01.696-.695v0a1.913 1.913 0 00.696-2.6v0-.008z" stroke="#200E32" stroke-width="1.5" stroke-linecap="round" stroke-linejoin="round"/><circle cx="12.175" cy="11.889" r="2.636" stroke="#200E32" stroke-width="1.5" stroke-linecap="round" stroke-linejoin="round"/></svg>