<svg xmlns="http://www.w3.org/2000/svg" viewBox="0 0 463 463"><path d="M451.431 136.823L326.176 11.57C318.716 4.109 308.797 0 298.245 0H31.5C14.131 0 0 14.131 0 31.5v400C0 448.869 14.131 463 31.5 463h400c17.369 0 31.5-14.131 31.5-31.5V164.755c0-10.55-4.108-20.47-11.569-27.932zM71 15h209v104.5c0 13.51-10.991 24.5-24.5 24.5h-160C81.991 144 71 133.01 71 119.5V15zm321 433H71V279.5c0-13.51 10.991-24.5 24.5-24.5h272c13.509 0 24.5 10.99 24.5 24.5V448zm56-16.5c0 9.099-7.402 16.5-16.5 16.5H407V279.5c0-21.78-17.72-39.5-39.5-39.5h-272C73.72 240 56 257.72 56 279.5V448H31.5c-9.098 0-16.5-7.401-16.5-16.5v-400C15 22.401 22.402 15 31.5 15H56v104.5c0 21.78 17.72 39.5 39.5 39.5h160c21.78 0 39.5-17.72 39.5-39.5V15h3.245a24.338 24.338 0 0117.324 7.177L440.824 147.43c4.627 4.629 7.176 10.781 7.176 17.325V431.5z"/><path d="M207.5 127h48a7.5 7.5 0 007.5-7.5v-80a7.5 7.5 0 00-7.5-7.5h-48a7.5 7.5 0 00-7.5 7.5v80a7.5 7.5 0 007.5 7.5zm7.5-80h33v65h-33V47zm128.5 265H199.501c-4.142 0-7.5 3.357-7.5 7.5s3.358 7.5 7.5 7.5H343.5c4.142 0 7.5-3.357 7.5-7.5s-3.358-7.5-7.5-7.5zm-224 15h48.002c4.142 0 7.5-3.357 7.5-7.5s-3.358-7.5-7.5-7.5H119.5c-4.142 0-7.5 3.357-7.5 7.5s3.358 7.5 7.5 7.5zm224 49h-224c-4.142 0-7.5 3.357-7.5 7.5s3.358 7.5 7.5 7.5h224c4.142 0 7.5-3.357 7.5-7.5s-3.358-7.5-7.5-7.5z"/></svg>