<svg xmlns="http://www.w3.org/2000/svg" viewBox="0 0 330 330"><path d="M325.606 84.668L245.334 4.394A15 15 0 00234.727.001H195.02L195 0H75l-.02.001H15c-8.284 0-15 6.716-15 15V315c0 8.284 6.716 15 15 15h300c8.284 0 15-6.716 15-15V95.274c0-3.978-1.58-7.794-4.394-10.606zM90 30.001h30V70c0 8.284 6.716 15 15 15s15-6.716 15-15V30.001h30V110H90V30.001zM240 240H90v-30h150v30zM90 300v-30h150v30H90zm210 0h-30V195c0-8.284-6.716-15-15-15H75c-8.284 0-15 6.716-15 15v105H30V30.001h30V125c0 8.284 6.716 15 15 15h120c8.284 0 15-6.716 15-15V30.001h18.515L300 101.487V300z"/></svg>