<svg xmlns="http://www.w3.org/2000/svg" preserveAspectRatio="none" viewBox="0 0 35 35"><defs><linearGradient id="a" x1=".5" y1="1" x2=".5" gradientUnits="objectBoundingBox"><stop offset="0" stop-color="#506e93"/><stop offset="1" stop-color="#a5b8ce"/></linearGradient><linearGradient id="b" x1=".5" y1="1" x2=".5" gradientUnits="objectBoundingBox"><stop offset="0" stop-color="#a5b8ce"/><stop offset="1" stop-color="#a5b8ce"/></linearGradient></defs><g data-name="Group 88"><path data-name="Path 35" d="M37.239 257.815V241.04A1.03 1.03 0 0036.2 240h-4.16a1.03 1.03 0 00-1.04 1.04v16.776z" transform="translate(-28.851 -223.855)" fill="url(#a)"/><path data-name="Path 36" d="M157.239 341.577V331.04A1.03 1.03 0 00156.2 330h-4.16a1.03 1.03 0 00-1.04 1.04v10.537z" transform="translate(-140.709 -307.617)" fill="url(#a)"/><path data-name="Path 37" d="M277.239 257.815V241.04A1.03 1.03 0 00276.2 240h-4.16a1.03 1.03 0 00-1.04 1.04v16.776z" transform="translate(-252.53 -223.855)" fill="url(#a)"/><path data-name="Path 38" d="M397.239 174.054V151.04A1.03 1.03 0 00396.2 150h-4.16a1.03 1.03 0 00-1.04 1.04v23.014z" transform="translate(-364.388 -140.094)" fill="url(#a)"/><g data-name="Group 54"><g data-name="Group 53"><g data-name="Group 52"><path data-name="Path 39" d="M12.673 18.157a1.025 1.025 0 001.45 0L28.779 3.5v1.627a1.025 1.025 0 002.051 0v-4.1A1.029 1.029 0 0029.8 0h-4.1a1.025 1.025 0 000 2.051h1.626L13.4 15.982 5.92 8.5a1.025 1.025 0 00-1.45 1.45zm21.3 14.793H1.025a1.025 1.025 0 100 2.051h32.95a1.025 1.025 0 100-2.051z" fill="url(#b)"/></g></g></g></g></svg>