<svg xmlns="http://www.w3.org/2000/svg" preserveAspectRatio="none" viewBox="0 0 47 47"><path d="M26.844 0a3.428 3.428 0 00-2.422.882A3.3 3.3 0 0023.4 2.675l-.052.387-.012.344 1.044 15.332a3.621 3.621 0 003.852 3.329l15.617-1.018a3.43 3.43 0 002.34-1.151 3.283 3.283 0 00.807-1.9l.004-.475-.023-.272A20.864 20.864 0 0026.844 0zm-.027 3.4l.511.024a17.412 17.412 0 0116.113 13.8l.077.423-15.5 1.014a.167.167 0 01-.165-.157zm-10.88 5.631a3.853 3.853 0 014.034 2.151 3.517 3.517 0 01.365 1.317l.913 12.9a.66.66 0 00.233.458.68.68 0 00.369.157h.145l13.1-.789a3.913 3.913 0 012.882 1.023 3.788 3.788 0 011.208 2.865 19.3 19.3 0 01-15.312 17.432 19.742 19.742 0 01-21.388-9.451 18.009 18.009 0 01-2.218-6.133l-.111-.8A12.179 12.179 0 010 28.387l.007-.569a19.274 19.274 0 0115-18.6l.6-.132zm.552 3.367l-.2.023-.537.121A15.883 15.883 0 003.5 27.309l-.012.576a8.82 8.82 0 00.052 1.343l.065.477a14.719 14.719 0 001.915 5.726 16.244 16.244 0 0017.6 7.792A15.848 15.848 0 0035.71 29a.371.371 0 00-.12-.274.388.388 0 00-.181-.094l-.1-.008-13.078.788a4.219 4.219 0 01-3.029-.987 4.033 4.033 0 01-1.421-2.79l-.912-12.887a.36.36 0 00-.047-.125.383.383 0 00-.333-.223z" fill="#fff" fill-rule="evenodd"/></svg>