<svg xmlns="http://www.w3.org/2000/svg" width="19" height="20"><path d="M10.116 0H8.881a2.642 2.642 0 00-1.853.755 2.539 2.539 0 00-.752 1.593l-.009.194a1.139 1.139 0 01-1.146 1.124 1.075 1.075 0 01-.421-.095L4.562 3.5a2.646 2.646 0 00-3.553.96L.36 5.507a2.542 2.542 0 00.765 3.407l.155.1a1.135 1.135 0 01.6.988 1.116 1.116 0 01-.493.923l-.105.065a2.527 2.527 0 00-1.029 3.3l.085.16.637 1.078a2.606 2.606 0 001.57 1.214 2.674 2.674 0 001.793-.128l.178-.087a1.184 1.184 0 01.9-.134 1.125 1.125 0 01.687.519 1.045 1.045 0 01.148.422l.008.148A2.586 2.586 0 008.881 20h1.235a2.6 2.6 0 002.615-2.359l.008-.172a1.128 1.128 0 01.334-.828 1.149 1.149 0 01.809-.326 1.189 1.189 0 01.435.1l.136.069a2.646 2.646 0 003.428-.776l.1-.152.66-1.077a2.521 2.521 0 00.272-1.957 2.562 2.562 0 00-1.028-1.439l-.167-.1a1.141 1.141 0 01-.559-.695 1.117 1.117 0 01.447-1.2l.257-.158a2.537 2.537 0 00.884-3.2l-.057-.112a.715.715 0 00-.043-.085l-.613-1.042a2.652 2.652 0 00-3.387-1.044l-.164.083a1.187 1.187 0 01-.9.137 1.134 1.134 0 01-.695-.515 1.034 1.034 0 01-.144-.415l-.009-.148a2.493 2.493 0 00-.74-1.8A2.65 2.65 0 0010.116 0zM8.881 1.448h1.235a1.157 1.157 0 01.822.34 1.11 1.11 0 01.324.815l.013.252a2.488 2.488 0 00.342 1.022 2.607 2.607 0 001.6 1.18 2.661 2.661 0 001.983-.273l.1-.052.111-.044a1.157 1.157 0 011.34.513l.585 1 .013.028.071.134a1.106 1.106 0 01-.473 1.417l-.161.1a2.584 2.584 0 00-.793.837 2.513 2.513 0 00-.264 1.945 2.563 2.563 0 001.062 1.462l.272.169a1.1 1.1 0 01.3 1.455l-.639 1.052-.073.111a1.152 1.152 0 01-1.382.361l-.316-.158a2.74 2.74 0 00-1.048-.241 2.651 2.651 0 00-1.877.75 2.536 2.536 0 00-.766 1.824l-.006.109a1.132 1.132 0 01-1.14 1H8.881a1.138 1.138 0 01-1.139-1l-.02-.354a2.488 2.488 0 00-.343-1.022A2.591 2.591 0 005.8 14.989a2.652 2.652 0 00-1.987.261l-.113.05a1.16 1.16 0 01-1.443-.493l-.627-1.062-.056-.107a1.1 1.1 0 01.472-1.413l.156-.1a2.541 2.541 0 000-4.259l-.261-.162a1.1 1.1 0 01-.312-1.465L2.281 5.2a1.163 1.163 0 011.571-.428l.192.1a2.6 2.6 0 003.693-2.129l.014-.3a1.091 1.091 0 01.325-.661 1.149 1.149 0 01.805-.334zM9.5 6.732A3.269 3.269 0 1012.839 10 3.3 3.3 0 009.5 6.732zm0 1.448A1.821 1.821 0 117.645 10 1.84 1.84 0 019.5 8.18z" fill="#fff" fill-rule="evenodd"/></svg>