<svg xmlns="http://www.w3.org/2000/svg" preserveAspectRatio="none" height="40" viewBox="0 0 19 14.636"><path data-name="3 User" d="M9.496 0a3.978 3.978 0 103.978 3.978A3.967 3.967 0 009.496 0zm0 1.295a2.684 2.684 0 11-2.684 2.683 2.672 2.672 0 012.684-2.684zM4.62.813a.647.647 0 010 1.295 1.857 1.857 0 100 3.714.647.647 0 110 1.295 3.152 3.152 0 110-6.3zm12.912 3.149A3.153 3.153 0 0014.379.81a.647.647 0 100 1.295 1.857 1.857 0 110 3.714.647.647 0 100 1.295 3.153 3.153 0 003.153-3.152zm-.648 4.769a8.7 8.7 0 00-1.308-.189.648.648 0 00-.089 1.292 7.493 7.493 0 011.131.164c.571.112.944.3 1.036.492a.545.545 0 010 .466c-.091.192-.46.377-1.024.492a.647.647 0 10.261 1.268 2.485 2.485 0 001.932-1.205 1.84 1.84 0 000-1.579 2.478 2.478 0 00-1.94-1.199zm-12.769.413a.647.647 0 00-.69-.6 8.792 8.792 0 00-1.326.192l-.178.038a2.339 2.339 0 00-1.742 1.16 1.834 1.834 0 000 1.579 2.481 2.481 0 001.931 1.2.647.647 0 10.261-1.268c-.563-.116-.932-.3-1.023-.492a.54.54 0 010-.466c.092-.194.464-.38 1.018-.488l.288-.059a7.585 7.585 0 01.861-.109.647.647 0 00.599-.685zm-.464 2.718c0-2.06 2.13-2.784 5.845-2.784h.266c3.559.033 5.582.759 5.582 2.768 0 1.961-1.933 2.712-5.325 2.779l-.52.005c-3.726.006-5.848-.706-5.848-2.768zm10.395-.015c0-.959-1.537-1.474-4.55-1.474s-4.55.524-4.55 1.489 1.537 1.474 4.55 1.474 4.549-.519 4.549-1.484z" fill="#fff" fill-rule="evenodd"/></svg>