<svg xmlns="http://www.w3.org/2000/svg" viewBox="0 0 500 500"><g id="freepik--Floor--inject-36"><ellipse id="freepik--floor--inject-36" cx="250" cy="345.53" rx="234.21" ry="135.22" style="fill:#f0f0f0"></ellipse></g><g id="freepik--Shadows--inject-36"><ellipse id="freepik--Shadow--inject-36" cx="400.7" cy="297.23" rx="54.88" ry="31.68" style="fill:#e0e0e0"></ellipse><ellipse id="freepik--shadow--inject-36" cx="100.3" cy="297.23" rx="54.88" ry="31.68" style="fill:#e0e0e0"></ellipse></g><g id="freepik--Trees--inject-36"><g id="freepik--Pine--inject-36"><path d="M389.43,150.21V293.79c0,1.72,1.14,3.44,3.41,4.76,4.56,2.63,11.94,2.63,16.49,0,2.28-1.32,3.42-3,3.42-4.76V150.21Z" style="fill:#b16668"></path><path d="M478.35,224.52,406.12,50.08H396.06L323.82,224.53a9.23,9.23,0,0,0,6.74,12.59l1.17.23a9.24,9.24,0,0,1,7.37,10.2h0a9.23,9.23,0,0,0,11.87,10l3.57-1.1a9.23,9.23,0,0,1,11.12,5l3.59,7.92a9.23,9.23,0,0,0,13.11,4.13l14-8.31a9.24,9.24,0,0,1,9.42,0l14,8.31a9.23,9.23,0,0,0,13.11-4.13l3.6-7.92a9.23,9.23,0,0,1,11.12-5l3.57,1.1a9.24,9.24,0,0,0,11.87-10h0a9.23,9.23,0,0,1,7.36-10.2l1.19-.24A9.22,9.22,0,0,0,478.35,224.52Z" style="fill:#405F88"></path><path d="M478.35,224.52,406.12,50.08H396.06L323.82,224.53a9.23,9.23,0,0,0,6.74,12.59l1.17.23a9.24,9.24,0,0,1,7.37,10.2h0a9.23,9.23,0,0,0,11.87,10l3.57-1.1a9.23,9.23,0,0,1,11.12,5l3.59,7.92a9.23,9.23,0,0,0,13.11,4.13l14-8.31a9.24,9.24,0,0,1,9.42,0l14,8.31a9.23,9.23,0,0,0,13.11-4.13l3.6-7.92a9.23,9.23,0,0,1,11.12-5l3.57,1.1a9.24,9.24,0,0,0,11.87-10h0a9.23,9.23,0,0,1,7.36-10.2l1.19-.24A9.22,9.22,0,0,0,478.35,224.52Z" style="opacity:0.30000000000000004"></path><path d="M388,69.57l8.07-18.34h10.06L419.46,82.3l43.6,105.28a5.35,5.35,0,0,1-4.55,4.32h0a7,7,0,0,0-5.8,7.69l.16,1.34a7,7,0,0,1-9.42,7.33l-3.57-1.36a7,7,0,0,0-8.86,3.68l-4.43,9.95a7,7,0,0,1-9.95,3.15l-12-8a7,7,0,0,0-7.15,0l-13.37,8a7,7,0,0,1-9.95-3.15l-4.43-9.95a7,7,0,0,0-8.86-3.68l-3.57,1.36a7,7,0,0,1-9.41-7.33l.15-1.33a7,7,0,0,0-5.8-7.7,5.3,5.3,0,0,1-3.87-2.58Z" style="opacity:0.1"></path><path d="M462.25,173.8,406.12,43.11H396.06L338.53,173.8c-2.07,4.2-.89,9.21,3.74,10a7,7,0,0,1,5.8,7.7l-.15,1.33a7,7,0,0,0,9.41,7.33l3.57-1.36a7,7,0,0,1,8.86,3.69l4.43,9.94a7,7,0,0,0,9.95,3.15l13.37-8a7,7,0,0,1,7.15,0l12,8a7,7,0,0,0,9.95-3.15l4.43-10a7,7,0,0,1,8.86-3.68l3.57,1.36a7,7,0,0,0,9.42-7.33l-.16-1.33a7,7,0,0,1,5.8-7.7h0C463.14,183,464.32,178,462.25,173.8Z" style="fill:#405F88"></path><path d="M462.25,173.8,406.12,43.11H396.06L338.53,173.8c-2.07,4.2-.89,9.21,3.74,10a7,7,0,0,1,5.8,7.7l-.15,1.33a7,7,0,0,0,9.41,7.33l3.57-1.36a7,7,0,0,1,8.86,3.69l4.43,9.94a7,7,0,0,0,9.95,3.15l13.37-8a7,7,0,0,1,7.15,0l12,8a7,7,0,0,0,9.95-3.15l4.43-10a7,7,0,0,1,8.86-3.68l3.57,1.36a7,7,0,0,0,9.42-7.33l-.16-1.33a7,7,0,0,1,5.8-7.7h0C463.14,183,464.32,178,462.25,173.8Z" style="opacity:0.2"></path><path d="M396.06,43.11h10.06L447,138.35a5.91,5.91,0,0,1-1,.72l-.31.18a6.28,6.28,0,0,0-3.19,6h0a6.29,6.29,0,0,1-7.87,6.61l-2.44-.64a6.28,6.28,0,0,0-7.14,3.11l-3.35,6.24a6.28,6.28,0,0,1-8.45,2.6L404,158.37a6.3,6.3,0,0,0-5.82,0l-9.24,4.82a6.27,6.27,0,0,1-8.45-2.6l-3.35-6.24a6.29,6.29,0,0,0-7.15-3.11l-2.43.64a6.28,6.28,0,0,1-7.87-6.61,6.29,6.29,0,0,0-3.19-6l-.32-.18a6.23,6.23,0,0,1-1.72-1.45Z" style="opacity:0.1"></path><path d="M448.27,122.4,406.08,33.71l-.33-.53a5.36,5.36,0,0,0-9.32,0l-.34.55L353.91,122.4a6.29,6.29,0,0,0,2.27,8.79l.32.17a6.29,6.29,0,0,1,3.19,6,6.29,6.29,0,0,0,7.87,6.62l2.43-.65a6.3,6.3,0,0,1,7.15,3.11l3.35,6.25a6.29,6.29,0,0,0,8.45,2.6l9.24-4.83a6.3,6.3,0,0,1,5.82,0l9.24,4.83a6.3,6.3,0,0,0,8.45-2.6l3.35-6.25a6.29,6.29,0,0,1,7.14-3.11l2.44.65a6.3,6.3,0,0,0,7.87-6.62h0a6.29,6.29,0,0,1,3.19-6l.31-.17A6.29,6.29,0,0,0,448.27,122.4Z" style="fill:#405F88"></path><path d="M448.27,122.4,406.08,33.71l-.33-.53a5.36,5.36,0,0,0-9.32,0l-.34.55L353.91,122.4a6.29,6.29,0,0,0,2.27,8.79l.32.17a6.29,6.29,0,0,1,3.19,6,6.29,6.29,0,0,0,7.87,6.62l2.43-.65a6.3,6.3,0,0,1,7.15,3.11l3.35,6.25a6.29,6.29,0,0,0,8.45,2.6l9.24-4.83a6.3,6.3,0,0,1,5.82,0l9.24,4.83a6.3,6.3,0,0,0,8.45-2.6l3.35-6.25a6.29,6.29,0,0,1,7.14-3.11l2.44.65a6.3,6.3,0,0,0,7.87-6.62h0a6.29,6.29,0,0,1,3.19-6l.31-.17A6.29,6.29,0,0,0,448.27,122.4Z" style="opacity:0.1"></path><path d="M395.46,298.29a7.16,7.16,0,0,0-14.31,0,2,2,0,0,0,0,.4,3.65,3.65,0,0,0,2.09,2.73,11.23,11.23,0,0,0,10.13,0,3.67,3.67,0,0,0,2.09-2.73,2,2,0,0,0,0-.4Z" style="fill:#37474f"></path><path d="M393.37,301.42a3.67,3.67,0,0,0,2.09-2.73,2,2,0,0,0,0-.4,7.17,7.17,0,0,0-3.72-6.08c0,.07,3.56,4.5.95,7.45-1.79,2-8,2.41-10.69.8a5,5,0,0,0,1.24,1A11.23,11.23,0,0,0,393.37,301.42Z" style="fill:#263238"></path><path d="M383.89,301.89a5.06,5.06,0,0,0-10.11,0,.76.76,0,0,0,0,.15.71.71,0,0,0,0,.14,2.55,2.55,0,0,0,1.47,1.92,7.92,7.92,0,0,0,7.16,0,2.61,2.61,0,0,0,1.48-1.92v-.29Z" style="fill:#455a64"></path><path d="M382.41,304.1a2.61,2.61,0,0,0,1.48-1.92v-.29a5.12,5.12,0,0,0-.34-1.67c.12,2.16-.91,3.48-4.1,3.89s-5.28-.95-5.56-1.44a3,3,0,0,0,1.36,1.43A7.92,7.92,0,0,0,382.41,304.1Z" style="fill:#37474f"></path><path d="M421,296.83a5,5,0,0,0-10,0,.71.71,0,0,0,0,.14.61.61,0,0,0,0,.14A2.56,2.56,0,0,0,412.4,299a7.86,7.86,0,0,0,7.1,0,2.59,2.59,0,0,0,1.47-1.92v-.28Z" style="fill:#455a64"></path><path d="M419.5,299a2.59,2.59,0,0,0,1.47-1.92v-.28a5.12,5.12,0,0,0-.34-1.66c.13,2.15-.89,3.46-4.06,3.86s-5.25-.94-5.52-1.43A3,3,0,0,0,412.4,299,7.86,7.86,0,0,0,419.5,299Z" style="fill:#37474f"></path></g><g id="freepik--pine--inject-36"><path d="M111.57,150.21V293.79c0,1.72-1.14,3.44-3.41,4.76-4.56,2.63-11.94,2.63-16.49,0-2.28-1.32-3.42-3-3.42-4.76V150.21Z" style="fill:#b16668"></path><path d="M22.65,224.52,94.88,50.08h10.06l72.24,174.45a9.23,9.23,0,0,1-6.74,12.59l-1.17.23a9.24,9.24,0,0,0-7.37,10.2h0a9.23,9.23,0,0,1-11.87,10l-3.57-1.1a9.23,9.23,0,0,0-11.12,5l-3.59,7.92a9.23,9.23,0,0,1-13.11,4.13l-14-8.31a9.24,9.24,0,0,0-9.42,0l-14,8.31a9.23,9.23,0,0,1-13.11-4.13l-3.6-7.92a9.23,9.23,0,0,0-11.12-5l-3.57,1.1a9.24,9.24,0,0,1-11.87-10h0a9.23,9.23,0,0,0-7.36-10.2l-1.19-.24A9.22,9.22,0,0,1,22.65,224.52Z" style="fill:#405F88"></path><path d="M22.65,224.52,94.88,50.08h10.06l72.24,174.45a9.23,9.23,0,0,1-6.74,12.59l-1.17.23a9.24,9.24,0,0,0-7.37,10.2h0a9.23,9.23,0,0,1-11.87,10l-3.57-1.1a9.23,9.23,0,0,0-11.12,5l-3.59,7.92a9.23,9.23,0,0,1-13.11,4.13l-14-8.31a9.24,9.24,0,0,0-9.42,0l-14,8.31a9.23,9.23,0,0,1-13.11-4.13l-3.6-7.92a9.23,9.23,0,0,0-11.12-5l-3.57,1.1a9.24,9.24,0,0,1-11.87-10h0a9.23,9.23,0,0,0-7.36-10.2l-1.19-.24A9.22,9.22,0,0,1,22.65,224.52Z" style="opacity:0.30000000000000004"></path><path d="M113,69.57l-8.07-18.34H94.88L81.54,82.3,37.94,187.58a5.36,5.36,0,0,0,4.55,4.32h0a7,7,0,0,1,5.8,7.69l-.16,1.34a7,7,0,0,0,9.42,7.33l3.57-1.36A7,7,0,0,1,70,210.58l4.43,9.95a7,7,0,0,0,10,3.15l12-8a7,7,0,0,1,7.15,0l13.37,8a7,7,0,0,0,10-3.15l4.43-9.95a7,7,0,0,1,8.86-3.68l3.57,1.36a7,7,0,0,0,9.41-7.33l-.15-1.33a7,7,0,0,1,5.8-7.7,5.3,5.3,0,0,0,3.87-2.58Z" style="opacity:0.1"></path><path d="M38.75,173.8,94.88,43.11h10.06L162.47,173.8c2.07,4.2.89,9.21-3.74,10a7,7,0,0,0-5.8,7.7l.15,1.33a7,7,0,0,1-9.41,7.33l-3.57-1.36a7,7,0,0,0-8.86,3.69l-4.43,9.94a7,7,0,0,1-10,3.15l-13.37-8a7,7,0,0,0-7.15,0l-12,8a7,7,0,0,1-10-3.15l-4.43-10a7,7,0,0,0-8.86-3.68l-3.57,1.36a7,7,0,0,1-9.42-7.33l.16-1.33a7,7,0,0,0-5.8-7.7h0C37.86,183,36.68,178,38.75,173.8Z" style="fill:#405F88"></path><path d="M38.75,173.8,94.88,43.11h10.06L162.47,173.8c2.07,4.2.89,9.21-3.74,10a7,7,0,0,0-5.8,7.7l.15,1.33a7,7,0,0,1-9.41,7.33l-3.57-1.36a7,7,0,0,0-8.86,3.69l-4.43,9.94a7,7,0,0,1-10,3.15l-13.37-8a7,7,0,0,0-7.15,0l-12,8a7,7,0,0,1-10-3.15l-4.43-10a7,7,0,0,0-8.86-3.68l-3.57,1.36a7,7,0,0,1-9.42-7.33l.16-1.33a7,7,0,0,0-5.8-7.7h0C37.86,183,36.68,178,38.75,173.8Z" style="opacity:0.2"></path><path d="M104.94,43.11H94.88L54,138.35a5.91,5.91,0,0,0,1,.72l.31.18a6.28,6.28,0,0,1,3.19,6h0a6.29,6.29,0,0,0,7.87,6.61l2.44-.64A6.28,6.28,0,0,1,76,154.35l3.35,6.24a6.28,6.28,0,0,0,8.45,2.6L97,158.37a6.3,6.3,0,0,1,5.82,0l9.24,4.82a6.27,6.27,0,0,0,8.45-2.6l3.35-6.24a6.29,6.29,0,0,1,7.15-3.11l2.43.64a6.28,6.28,0,0,0,7.87-6.61,6.29,6.29,0,0,1,3.19-6l.32-.18a6.23,6.23,0,0,0,1.72-1.45Z" style="opacity:0.1"></path><path d="M52.73,122.4,94.92,33.71l.33-.53a5.36,5.36,0,0,1,9.32,0l.34.55,42.18,88.67a6.29,6.29,0,0,1-2.27,8.79l-.32.17a6.29,6.29,0,0,0-3.19,6,6.29,6.29,0,0,1-7.87,6.62l-2.43-.65a6.3,6.3,0,0,0-7.15,3.11l-3.35,6.25a6.29,6.29,0,0,1-8.45,2.6l-9.24-4.83a6.3,6.3,0,0,0-5.82,0l-9.24,4.83a6.3,6.3,0,0,1-8.45-2.6L76,146.46a6.29,6.29,0,0,0-7.14-3.11l-2.44.65a6.3,6.3,0,0,1-7.87-6.62h0a6.29,6.29,0,0,0-3.19-6l-.31-.17A6.29,6.29,0,0,1,52.73,122.4Z" style="fill:#405F88"></path><path d="M52.73,122.4,94.92,33.71l.33-.53a5.36,5.36,0,0,1,9.32,0l.34.55,42.18,88.67a6.29,6.29,0,0,1-2.27,8.79l-.32.17a6.29,6.29,0,0,0-3.19,6,6.29,6.29,0,0,1-7.87,6.62l-2.43-.65a6.3,6.3,0,0,0-7.15,3.11l-3.35,6.25a6.29,6.29,0,0,1-8.45,2.6l-9.24-4.83a6.3,6.3,0,0,0-5.82,0l-9.24,4.83a6.3,6.3,0,0,1-8.45-2.6L76,146.46a6.29,6.29,0,0,0-7.14-3.11l-2.44.65a6.3,6.3,0,0,1-7.87-6.62h0a6.29,6.29,0,0,0-3.19-6l-.31-.17A6.29,6.29,0,0,1,52.73,122.4Z" style="opacity:0.1"></path><path d="M105.54,298.29a7.16,7.16,0,0,1,14.31,0,2,2,0,0,1,0,.4,3.65,3.65,0,0,1-2.09,2.73,11.23,11.23,0,0,1-10.13,0,3.67,3.67,0,0,1-2.09-2.73,2,2,0,0,1,0-.4Z" style="fill:#37474f"></path><path d="M107.63,301.42a3.67,3.67,0,0,1-2.09-2.73,2,2,0,0,1,0-.4,7.17,7.17,0,0,1,3.72-6.08c0,.07-3.56,4.5-1,7.45,1.79,2,8,2.41,10.69.8a5,5,0,0,1-1.24,1A11.23,11.23,0,0,1,107.63,301.42Z" style="fill:#263238"></path><path d="M117.11,301.89a5.06,5.06,0,0,1,10.11,0,.76.76,0,0,1,0,.15.71.71,0,0,1,0,.14,2.55,2.55,0,0,1-1.47,1.92,7.92,7.92,0,0,1-7.16,0,2.61,2.61,0,0,1-1.48-1.92v-.29Z" style="fill:#455a64"></path><path d="M118.59,304.1a2.61,2.61,0,0,1-1.48-1.92v-.29a5.12,5.12,0,0,1,.34-1.67c-.12,2.16.91,3.48,4.1,3.89s5.28-.95,5.56-1.44a3,3,0,0,1-1.36,1.43A7.92,7.92,0,0,1,118.59,304.1Z" style="fill:#37474f"></path><path d="M80,296.83a5,5,0,0,1,10,0,.71.71,0,0,1,0,.14.61.61,0,0,1,0,.14A2.56,2.56,0,0,1,88.6,299a7.86,7.86,0,0,1-7.1,0A2.59,2.59,0,0,1,80,297.11v-.28Z" style="fill:#455a64"></path><path d="M81.5,299A2.59,2.59,0,0,1,80,297.11v-.28a5.12,5.12,0,0,1,.34-1.66c-.13,2.15.89,3.46,4.06,3.86s5.25-.94,5.52-1.43A3,3,0,0,1,88.6,299,7.86,7.86,0,0,1,81.5,299Z" style="fill:#37474f"></path></g></g><g id="freepik--Rock--inject-36"><g id="freepik--rock--inject-36"><polygon points="317.61 352.6 290.64 367.25 280.94 378.69 297.34 382.57 317.61 394.21 324.31 381.34 315.85 367.25 317.61 352.6" style="fill:#405F88"></polygon><polygon points="317.61 352.6 290.64 367.25 280.94 378.69 297.34 382.57 317.61 394.21 324.31 381.34 315.85 367.25 317.61 352.6" style="opacity:0.30000000000000004"></polygon><polygon points="317.61 352.6 333.13 354.54 335.07 370.58 324.31 381.34 315.85 367.25 317.61 352.6" style="fill:#405F88"></polygon><polygon points="317.61 352.6 333.13 354.54 335.07 370.58 324.31 381.34 315.85 367.25 317.61 352.6" style="opacity:0.35000000000000003"></polygon><polygon points="354.29 373.4 355.35 385.93 344.42 381.34 330.31 387.16 323.61 394.21 317.61 408.67 311.09 429.13 305.98 410.61 317.61 394.21 328.59 383.81 343.71 379.93 354.29 373.4" style="fill:#405F88"></polygon><polygon points="335.95 419.25 356.41 404.79 349.53 389.63 335.95 419.25" style="fill:#405F88"></polygon><g style="opacity:0.5"><polygon points="354.29 373.4 355.35 385.93 344.42 381.34 330.31 387.16 323.61 394.21 317.61 408.67 311.09 429.13 305.98 410.61 317.61 394.21 328.59 383.81 343.71 379.93 354.29 373.4"></polygon><polygon points="335.95 419.25 356.41 404.79 349.53 389.63 335.95 419.25"></polygon></g><polygon points="301.87 361.15 291.69 371.11 289.05 376.93 298.22 378.17 317.61 394.21 297.34 382.57 280.94 378.69 290.64 367.25 301.87 361.15" style="fill:#405F88"></polygon><polygon points="333.13 354.54 331.55 369.53 322.12 377.68 324.31 381.34 335.07 370.58 333.13 354.54" style="fill:#405F88"></polygon><polygon points="305.98 410.61 294.34 407.44 270.89 397.92 256.6 385.4 262.77 377.68 271.94 376.93 264.36 379.58 262.77 385.22 270.53 392.27 304.92 407.08 317.61 394.21 305.98 410.61" style="fill:#405F88"></polygon><g style="opacity:0.25"><polygon points="301.87 361.15 291.69 371.11 289.05 376.93 298.22 378.17 317.61 394.21 297.34 382.57 280.94 378.69 290.64 367.25 301.87 361.15"></polygon><polygon points="333.13 354.54 331.55 369.53 322.12 377.68 324.31 381.34 335.07 370.58 333.13 354.54"></polygon><polygon points="305.98 410.61 294.34 407.44 270.89 397.92 256.6 385.4 262.77 377.68 271.94 376.93 264.36 379.58 262.77 385.22 270.53 392.27 304.92 407.08 317.61 394.21 305.98 410.61"></polygon></g><polygon points="290.64 367.25 271.94 376.93 264.36 379.58 262.77 385.22 270.53 392.27 304.92 407.08 308.51 403.44 297.16 391.21 287.99 391.21 280.94 378.69 290.64 367.25" style="fill:#405F88"></polygon><polygon points="290.64 367.25 271.94 376.93 264.36 379.58 262.77 385.22 270.53 392.27 304.92 407.08 308.51 403.44 297.16 391.21 287.99 391.21 280.94 378.69 290.64 367.25" style="opacity:0.35000000000000003"></polygon><polygon points="333.13 354.54 354.29 373.4 343.71 379.93 328.59 383.81 317.61 394.21 324.31 381.34 335.07 370.58 333.13 354.54" style="fill:#405F88"></polygon><polygon points="344.42 381.34 330.31 387.16 323.61 394.21 317.61 408.67 320.61 422.78 335.95 419.25 349.53 389.63 344.42 381.34" style="fill:#405F88"></polygon><polygon points="280.94 378.69 287.99 391.21 297.16 391.21 297.34 382.57 280.94 378.69" style="fill:#405F88"></polygon><polygon points="266.65 406.2 274.06 408.67 278.12 404.79 294.34 407.44 270.89 397.92 266.65 406.2" style="fill:#405F88"></polygon><g style="opacity:0.45"><polygon points="333.13 354.54 354.29 373.4 343.71 379.93 328.59 383.81 317.61 394.21 324.31 381.34 335.07 370.58 333.13 354.54"></polygon><polygon points="344.42 381.34 330.31 387.16 323.61 394.21 317.61 408.67 320.61 422.78 335.95 419.25 349.53 389.63 344.42 381.34"></polygon><polygon points="280.94 378.69 287.99 391.21 297.16 391.21 297.34 382.57 280.94 378.69"></polygon><polygon points="266.65 406.2 274.06 408.67 278.12 404.79 294.34 407.44 270.89 397.92 266.65 406.2"></polygon></g><polygon points="301.11 409.29 294.34 407.44 287.11 414.67 293.1 424.01 301.11 409.29" style="fill:#405F88"></polygon><polygon points="301.11 409.29 294.34 407.44 287.11 414.67 293.1 424.01 301.11 409.29" style="opacity:0.35000000000000003"></polygon><polygon points="355.35 385.93 363.28 398.62 356.41 404.79 349.53 389.63 344.42 381.34 355.35 385.93" style="fill:#405F88"></polygon><polygon points="311.09 429.13 320.61 422.78 317.61 408.67 311.09 429.13" style="fill:#405F88"></polygon><polygon points="317.61 394.21 308.51 403.44 297.16 391.21 297.34 382.57 317.61 394.21" style="fill:#405F88"></polygon><polygon points="256.6 385.4 252.02 395.45 266.65 406.2 270.89 397.92 256.6 385.4" style="fill:#405F88"></polygon><polygon points="311.09 429.13 293.1 424.01 301.11 409.29 305.98 410.61 311.09 429.13" style="fill:#405F88"></polygon><polygon points="274.06 408.67 287.11 414.67 294.34 407.44 278.12 404.79 274.06 408.67" style="fill:#405F88"></polygon><g style="opacity:0.4"><polygon points="355.35 385.93 363.28 398.62 356.41 404.79 349.53 389.63 344.42 381.34 355.35 385.93"></polygon><polygon points="311.09 429.13 320.61 422.78 317.61 408.67 311.09 429.13"></polygon><polygon points="317.61 394.21 308.51 403.44 297.16 391.21 297.34 382.57 317.61 394.21"></polygon><polygon points="256.6 385.4 252.02 395.45 266.65 406.2 270.89 397.92 256.6 385.4"></polygon><polygon points="311.09 429.13 293.1 424.01 301.11 409.29 305.98 410.61 311.09 429.13"></polygon><polygon points="274.06 408.67 287.11 414.67 294.34 407.44 278.12 404.79 274.06 408.67"></polygon></g></g></g><g id="freepik--Character--inject-36"><g id="freepik--character--inject-36"><path d="M203.44,238.9h0V196.81h0a12.32,12.32,0,0,0-11.06,12v20A10,10,0,0,0,203.44,238.9Z" style="fill:#455a64"></path><path d="M210.88,253.17l15.3-1.34V159.91l-15.3,1.34a11.38,11.38,0,0,0-10.22,11.12v71.47A9.21,9.21,0,0,0,210.88,253.17Z" style="fill:#37474f"></path><path d="M263.13,248.6l-44.82,3.92a3.63,3.63,0,0,1-4-3.67V165a4.49,4.49,0,0,1,4-4.38l44.82-3.92a3.63,3.63,0,0,1,4,3.67v83.87A4.49,4.49,0,0,1,263.13,248.6Z" style="fill:#263238"></path><path d="M263.56,139.21,208.75,144v26.79l54.81-4.8c5-.44,9.07-6.79,9.07-14.19S268.57,138.77,263.56,139.21Z" style="fill:#405F88"></path><path d="M263.56,139.21,208.75,144v26.79l54.81-4.8c5-.44,9.07-6.79,9.07-14.19S268.57,138.77,263.56,139.21Z" style="opacity:0.15"></path><ellipse cx="208.75" cy="157.39" rx="13.44" ry="9.04" transform="translate(36.51 354.08) rotate(-85.81)" style="fill:#405F88"></ellipse><ellipse cx="208.75" cy="157.39" rx="13.44" ry="9.04" transform="translate(36.51 354.08) rotate(-85.81)" style="opacity:0.30000000000000004"></ellipse><path d="M268.62,374.57a9.71,9.71,0,0,0,.06,4.61,12.41,12.41,0,0,0,2.4,2.61,27.85,27.85,0,0,1,5.46,6.53,24,24,0,0,0,7,7.6,17.17,17.17,0,0,0,12.52,1.9c3.88-.91,6-2.43,5.56-5.45C290.45,386.49,279.53,381,268.62,374.57Z" style="fill:#263238"></path><path d="M297.32,273.69c-11.37-15-14.69-18.75-22.24-28.32a59.53,59.53,0,0,1-9,.61l4.94-6.9-47.64.43c0,10.67-.2,75.87-.2,75.87-.26,3.07-2.58,11.86-2.81,22.92-.33,16.05,2.88,44.3,3,46.81q.21,3.52.44,7c.13,1.95.4,3.37,2.36,4.11a12.5,12.5,0,0,0,5.15.89,8.16,8.16,0,0,0,4.27-1.48c1.2-.89,1.06-3.12,1.23-4.48.2-1.61.45-3.21.65-4.83,1.61-13.59,6.14-47.72,8.18-63.59,1.5-11.62,4.11-34.11,5.63-47.36,1.37,1.24,2.9,2.53,4.59,3.92,9.36,7.68,20.66,15,26.16,19.57-4.21,5.78-7.84,10.79-9.27,21.19-.39,2.88-.65,5.77-.85,8.67-.48,7.14-.59,14.29-.75,21.44-.06,3.22-.13,6.44-.27,9.66-.06,1.37-.13,2.74-.23,4.11-.13,1.71-.46,3,.65,4.57a11.28,11.28,0,0,0,2.54,2.33,6.94,6.94,0,0,0,1.47.89,6.36,6.36,0,0,0,4.21-.16,8.15,8.15,0,0,0,2.45-1.13,3.84,3.84,0,0,0,1.39-1.84,16.65,16.65,0,0,0,.3-2.67c.2-1.17.49-2.33.79-3.48.92-3.52,1.95-7,2.84-10.56,4.28-16.85,12.55-35.14,17-49.69C308.88,287.35,307,286.43,297.32,273.69Z" style="fill:#ffa8a7"></path><path d="M249.18,418.62c.37.35.26,2.79-.16,3.44s-3,2.89-7.66,3.22c-4.43.32-8.4-.28-11-1.93s-3.87-3.48-4.11-6,0-5-1.17-6.91c-1.11-1.79-2.89-3.82-3.27-4.79-.84-2.12,0-5.15,0-5.15Z" style="fill:#263238"></path><path d="M273.29,238.78H220.35c-2.79,47.16-1.39,90.5-1.39,90.5s4.11,4.47,13.48,5.09c9.91.66,13.76-2.22,13.76-2.22l9.7-52.83,23.86,19.89a46.43,46.43,0,0,0-4,8.23s3.2,5.42,12.21,7.61S301.8,314,301.8,314s6.94-17.85,7.19-22.35-2.24-6.89-10.5-18.05S273.29,238.78,273.29,238.78Z" style="fill:#405F88"></path><path d="M255.9,279.32l1.72-6.7s12.23-4,18.74-12.26c0,0-3.53,10.9-14.43,14.3l-2.27,4.66,20.1,19.89Z" style="opacity:0.15"></path><path d="M301.61,390.17c-1.38-4.63-5.11-6.5-8.37-9.66a34.42,34.42,0,0,1-6.63-8.33,15.79,15.79,0,0,1-1.4-8c.13-2.27.9-3.15-3.82-3s-6.25,1.32-6.58,3.51-.77,2.78-1.09,1.33.66-3.4-1.1-4.18-1.71-1.75-1.68-2.52a13.12,13.12,0,0,0,0-1.32s-2.31.09-1.49,4.39-.77,5.76-1,10a7.72,7.72,0,0,0,.4,3.27c1.22,2.72,3.52,3.55,5.39,6s4,5.47,6.11,8a16.66,16.66,0,0,0,11.81,6.08C296.41,395.85,303,394.8,301.61,390.17Z" style="fill:#455a64"></path><path d="M246.54,412c-1.42-1.53-2.51-2.7-3.85-4.3a33.05,33.05,0,0,1-2.23-3.05,30.85,30.85,0,0,1-1.72-3.57,22.7,22.7,0,0,1-1.05-9.37c.41-3.24,2-7.13,1.08-7.64s-1.67-1.25-5.16-1.33-8.14-.17-8,2.66.49,4.15,0,3.9-.58-2.15-1.16-3-1-.09-1.07-1.18-.16-1.75-.16-1.75-2.2.19-1.81,3.35a85.6,85.6,0,0,1,.55,10.11c-.09,1.59-.84,4.07,0,6.05a18.19,18.19,0,0,0,2.08,3.31,13.71,13.71,0,0,1,2.7,6.09c.12,1,.06,2,.22,2.93a8.68,8.68,0,0,0,6.36,6.93,21.26,21.26,0,0,0,9.45.47c2.91-.51,6.69-1.7,6.5-5.18A9.07,9.07,0,0,0,246.54,412Z" style="fill:#455a64"></path><path d="M267.57,157.21c7.4-.31,11.12,3.53,14.12,14.56,2.34,8.59,6.36,25.52,6.36,25.52l22.76-22.93,11.71,6.6s-16.2,21.15-25.89,33.45c-7,8.86-12.45,9.18-16.65,3.47-8.61-11.73-17.54-39.15-17.54-39.15C260.1,170.16,260.5,159.91,267.57,157.21Z" style="fill:#e9a5a5"></path><path d="M315.55,158.51a3.48,3.48,0,0,0-3.48.34,10.88,10.88,0,0,0-4.92,8.53,3.51,3.51,0,0,0,1.39,3.16c.29.17,2.23,1.22,2.5,1.38a3.43,3.43,0,0,0,3.48-.34,10.86,10.86,0,0,0,4.93-8.53,3.5,3.5,0,0,0-1.41-3.17C317.75,159.71,315.83,158.67,315.55,158.51Z" style="fill:#455a64"></path><path d="M309.6,168.74c0,3.14,2.2,4.41,4.92,2.84a10.86,10.86,0,0,0,4.93-8.53c0-3.14-2.2-4.42-4.93-2.85A10.9,10.9,0,0,0,309.6,168.74Z" style="fill:#37474f"></path><path d="M345.69,171.18,317.3,160.86h0a1.42,1.42,0,0,0-.58-.12,3.37,3.37,0,0,0-1.59.51,9.72,9.72,0,0,0-4.32,7.49c0,.58.1,1.79.93,2.18l25.38,15.17Z" style="fill:#405F88"></path><path d="M345.69,171.18,317.3,160.86h0a1.42,1.42,0,0,0-.58-.12,3.37,3.37,0,0,0-1.59.51,9.72,9.72,0,0,0-4.32,7.49c0,.58.1,1.79.93,2.18l25.38,15.17Z" style="opacity:0.5"></path><path d="M343.11,167.68c-1.33-.77-3.17-.67-5.21.51A16.31,16.31,0,0,0,330.52,181c0,2.31.8,3.93,2.09,4.72.43.27,3.33,1.83,3.74,2.07,1.34.78,3.18.67,5.22-.5A16.34,16.34,0,0,0,349,174.47c0-2.32-.81-4-2.12-4.74C346.4,169.48,343.52,167.92,343.11,167.68Z" style="fill:#455a64"></path><path d="M334.19,183c0,4.7,3.31,6.61,7.38,4.26A16.34,16.34,0,0,0,349,174.47c0-4.7-3.31-6.61-7.38-4.26A16.31,16.31,0,0,0,334.19,183Z" style="fill:#37474f"></path><path d="M338.28,186.44c-2,0-2.27-2.41-2.27-3.45a14.51,14.51,0,0,1,6.47-11.2,5,5,0,0,1,2.38-.77c2.05,0,2.27,2.41,2.27,3.45a14.51,14.51,0,0,1-6.47,11.2,5,5,0,0,1-2.38.77Z" style="fill:#263238"></path><path d="M344.71,172.05a8.16,8.16,0,0,0-.07-1,5.18,5.18,0,0,0-2.16.75A14.51,14.51,0,0,0,336,183a6.66,6.66,0,0,0,.07,1,5.23,5.23,0,0,0,2.16-.75A14.51,14.51,0,0,0,344.71,172.05Z" style="fill:#405F88"></path><path d="M344.71,172.05a8.16,8.16,0,0,0-.07-1,5.18,5.18,0,0,0-2.16.75A14.51,14.51,0,0,0,336,183a6.66,6.66,0,0,0,.07,1,5.23,5.23,0,0,0,2.16-.75A14.51,14.51,0,0,0,344.71,172.05Z" style="opacity:0.30000000000000004"></path><path d="M340.58,174.06c1.38-1.67,3.17-2.23,3.45-1.61s-.59,6.66-6.43,10.22a20.48,20.48,0,0,0,4.69-6.17C343.19,174.49,342.36,172.85,340.58,174.06Z" style="fill:#e0e0e0"></path><path d="M303.26,165.61a3.43,3.43,0,0,0-3.48.34,10.89,10.89,0,0,0-4.93,8.53,3.46,3.46,0,0,0,1.4,3.15c.29.18,2.22,1.23,2.5,1.39a3.43,3.43,0,0,0,3.48-.34,10.89,10.89,0,0,0,4.93-8.53,3.48,3.48,0,0,0-1.41-3.17C305.46,166.81,303.54,165.77,303.26,165.61Z" style="fill:#455a64"></path><path d="M297.3,175.83c0,3.15,2.21,4.42,4.93,2.85a10.89,10.89,0,0,0,4.93-8.53c0-3.15-2.21-4.42-4.93-2.85A10.89,10.89,0,0,0,297.3,175.83Z" style="fill:#37474f"></path><path d="M328.47,181.12,305.12,168l-.07,0,0,0h0a1.31,1.31,0,0,0-.58-.12,3.26,3.26,0,0,0-1.59.51,9.69,9.69,0,0,0-4.32,7.48,2.73,2.73,0,0,0,.7,2L319.91,196Z" style="fill:#405F88"></path><path d="M328.47,181.12,305.12,168l-.07,0,0,0h0a1.31,1.31,0,0,0-.58-.12,3.26,3.26,0,0,0-1.59.51,9.69,9.69,0,0,0-4.32,7.48,2.73,2.73,0,0,0,.7,2L319.91,196Z" style="opacity:0.5"></path><path d="M328.18,180.68a4.42,4.42,0,0,1-.93-3,11.43,11.43,0,0,1,2-6.06l-9.84,5.67a4.36,4.36,0,0,1,1.46-.44l7.57,4.25Z" style="fill:#263238"></path><path d="M325.9,177.62c-1.34-.78-3.18-.67-5.21.51a16.28,16.28,0,0,0-7.38,12.77c0,2.3.8,3.93,2.09,4.72.43.26,3.33,1.83,3.74,2.07,1.33.78,3.18.67,5.22-.51a16.3,16.3,0,0,0,7.37-12.77c0-2.32-.81-4-2.11-4.74C329.19,179.42,326.31,177.86,325.9,177.62Z" style="fill:#455a64"></path><path d="M317,192.93c0,4.7,3.3,6.61,7.38,4.25a16.3,16.3,0,0,0,7.37-12.77c0-4.71-3.3-6.61-7.37-4.26A16.29,16.29,0,0,0,317,192.93Z" style="fill:#37474f"></path><path d="M321.06,196.38c-2,0-2.26-2.42-2.26-3.45a14.57,14.57,0,0,1,6.46-11.21,5,5,0,0,1,2.39-.76c2.05,0,2.27,2.41,2.27,3.45a14.54,14.54,0,0,1-6.47,11.2,5,5,0,0,1-2.39.77Z" style="fill:#263238"></path><path d="M327.5,182a6.65,6.65,0,0,0-.08-1,5.24,5.24,0,0,0-2.16.74,14.57,14.57,0,0,0-6.46,11.21,6.46,6.46,0,0,0,.07,1,5.24,5.24,0,0,0,2.16-.74A14.54,14.54,0,0,0,327.5,182Z" style="fill:#405F88"></path><path d="M327.5,182a6.65,6.65,0,0,0-.08-1,5.24,5.24,0,0,0-2.16.74,14.57,14.57,0,0,0-6.46,11.21,6.46,6.46,0,0,0,.07,1,5.24,5.24,0,0,0,2.16-.74A14.54,14.54,0,0,0,327.5,182Z" style="opacity:0.30000000000000004"></path><path d="M323.37,184c1.38-1.68,3.17-2.24,3.45-1.62s-.6,6.67-6.43,10.23a20.65,20.65,0,0,0,4.69-6.17C326,184.43,325.15,182.78,323.37,184Z" style="fill:#e0e0e0"></path><polygon points="319.44 165.89 329.27 171.63 319.44 177.31 309.55 171.6 319.44 165.89" style="fill:#37474f"></polygon><path d="M333.53,166.73c-1.37-4.86-2.33-6.24-8.51-8.13s-9.15-1.85-11.83,0-2.38,4.12,1.31,5.68c3.94,1.67,12,1.37,14.75.89Z" style="fill:#e9a5a5"></path><path d="M288.05,197.29a28.65,28.65,0,0,0-6.36,7.9A29.77,29.77,0,0,1,287.5,195Z" style="fill:#f28f8f"></path><path d="M219,250c7.7,5.61,44.83,9.89,61-1.93,0,0-.37-48.08-1.64-72-.06-1.08-.13-2.14-.24-3.16,0-.34-.09-.68-.12-1a12.59,12.59,0,0,0-2.13-5.14,33.28,33.28,0,0,0-5.53-6.48c-1-.95-2.17-1.74-3.27-2.61a3.93,3.93,0,0,0-3.15-1l-1.29,0-1.37,0c-6.06.27-14.75,1.25-21.73,2.14l-1.36.18-1.2.15c-4.79.63-8.34,1.15-8.88,1.23H228c-1.57.4-3,.78-4.19,1.13-3.2.94-.82.13-1.52,3.22-2.07,9.09-1.93,42-1.93,42Z" style="fill:#f5f5f5"></path><path d="M241.55,124.78l-2.17,2.33-1-12.14a5.75,5.75,0,0,0-4.78,1.64c-2.07,2.08-1,8.65,1.53,15.09,0,0,2.4,11.71,3.39,13.64a5.27,5.27,0,0,0,3,2.49Z" style="fill:#263238"></path><path d="M241.21,132.29c-.94.55-2.27-1.27-3.42-2.49s-4.92-2.9-6.84,1.06,1.6,9.42,4.57,10.38c5.12,1.65,5.92-1.64,5.92-1.64l.2,18.89c5.31,9.77,23.54,4.92,16.77-1.58l0-4.8a53.23,53.23,0,0,0,7.74.06c3.78-.55,5.35-3.16,6.53-7.23,1.89-6.56,2.63-11.85,1.16-24.77-1.6-14.17-18.06-14.44-27-8.91S241.21,132.29,241.21,132.29Z" style="fill:#ffa8a7"></path><path d="M278.33,106.47a2.74,2.74,0,0,0-3.86-.09,14.58,14.58,0,0,0,.66-4.78c-.06-1.74-.8-3.84-2.53-4.08a4.62,4.62,0,0,0-2.57.72c-6.58,3.27-13.91,4.65-21.1,6.15a45.15,45.15,0,0,0-9.73,2.85A22.91,22.91,0,0,0,237,108.4c-2,1.24-4,5.08-2.36,7.38a1,1,0,0,1,.2.41l3.06,13.74c1.14,1.1,2.89,4.17,3.36,4.17,2.5,0,3.08-12.19,3.57-14a3,3,0,0,1,2.46-1.92,9.28,9.28,0,0,1,3.27.26,65.21,65.21,0,0,0,13.52,1.12,22.77,22.77,0,0,0,9.47-1.81c2.92-1.4,5.41-4.06,5.85-7.27A4.78,4.78,0,0,0,278.33,106.47Z" style="fill:#263238"></path><path d="M235.55,116a3.42,3.42,0,0,1-5.17-4.48Z" style="fill:#263238"></path><path d="M258.43,152.11s-8.43-.87-11.36-2.46a9.59,9.59,0,0,1-4-4.06,13.23,13.23,0,0,0,2.27,4.77c2.14,2.77,13.1,4.89,13.1,4.89Z" style="fill:#f28f8f"></path><path d="M256,130.29a1.69,1.69,0,1,1-1.68-1.77A1.72,1.72,0,0,1,256,130.29Z" style="fill:#263238"></path><path d="M254.27,123.9l-3.63,2a2.16,2.16,0,0,1,.86-2.87A2,2,0,0,1,254.27,123.9Z" style="fill:#263238"></path><path d="M256.68,142l4.7,1.81a2.47,2.47,0,0,1-3.21,1.54A2.65,2.65,0,0,1,256.68,142Z" style="fill:#f28f8f"></path><path d="M271,125.43l-3.28-2.56a2,2,0,0,1,2.87-.42A2.19,2.19,0,0,1,271,125.43Z" style="fill:#263238"></path><path d="M269.91,129.91a1.69,1.69,0,1,1-1.68-1.77A1.72,1.72,0,0,1,269.91,129.91Z" style="fill:#263238"></path><polygon points="261.77 128.65 262.25 138.81 267.57 137.04 261.77 128.65" style="fill:#f28f8f"></polygon><path d="M238.64,159s7.54,11.22,6.78,25.31c-2.39,44.39-26,51.87-26,51.87l.41-12.92s13-8.39,14.94-30.83c1.25-14.69-3-29.22-6.77-32C228,160.44,231.78,158.37,238.64,159Z" style="fill:#37474f"></path><path d="M213.42,233.26c3.57.6,7.78-1.42,12.53-8a181.28,181.28,0,0,0,12.54-19.15c2.94-5.06,5.07-8.83,6.09-11.14,1.8-4.07,5-9,4.51-13.39a27.76,27.76,0,0,0-2.69-10.19,10.82,10.82,0,0,0-1.16-1.85,1.49,1.49,0,0,0-1.93-.39l.57,1.85c.14,2-1,5.27-2.93,7.82a25.85,25.85,0,0,1-4,4.25,13.66,13.66,0,0,0-.62-4.2c-.7-2.59-2.88-4.91-4.24-4.57s-.51.72-.18,3.46-1.31,6.32-.8,10.21c.28,2.19.25,5.47-.73,7.33-1.46,2.75-8.13,9.26-8.13,9.26,2.77-14,3.11-16.79,4.2-22.25,2.71-9.8,1-17.65-1.73-21.14-8.18,1-12.58,4-14.65,11.34-3,10.57-4.33,20.87-4.33,41.3C205.75,224.4,209.17,232.56,213.42,233.26Z" style="fill:#e9a5a5"></path><path d="M222.26,204.6c-4.56,3.36-7.65,6.3-8.84,11.11,0,0-.34-9.85,9.35-13.69Z" style="fill:#f28f8f"></path><path d="M259,156.86a32.92,32.92,0,0,1,13.67,13.58c3.25,6.13,6.37,13.71,6.48,26.19,1.86-16.21,2.08-31.87-11.61-40A21.65,21.65,0,0,0,259,156.86Z" style="fill:#37474f"></path></g></g></svg>