<svg preserveAspectRatio="none" xmlns="http://www.w3.org/2000/svg" viewBox="0 0 47 52.222">
  <path id="Document" d="M16.416,54.222a18.129,18.129,0,0,1-3.058-.248l-.569-.107C6.6,52.58,3,47.838,3,40.621V15.6a19.338,19.338,0,0,1,.157-2.507C4.068,6.084,8.885,2,16.416,2H36.586C44.932,2,49.921,7.013,50,15.4V40.621c0,8.5-5,13.6-13.413,13.6Zm0-48.418C10,5.8,6.752,9.1,6.752,15.6v25.02c0,6.5,3.251,9.8,9.664,9.8H36.563c6.41,0,9.64-3.3,9.64-9.8V15.6c0-6.5-3.23-9.8-9.64-9.8ZM37.743,39.167a1.876,1.876,0,0,0-1.862-1.89H17.053a1.891,1.891,0,0,0,0,3.781H35.881A1.876,1.876,0,0,0,37.743,39.167ZM35.881,26.208a1.886,1.886,0,0,1,1.8.885,1.945,1.945,0,0,1,0,2.037,1.886,1.886,0,0,1-1.8.885H17.053a1.919,1.919,0,0,1,0-3.807Zm-9.964-9.139a1.9,1.9,0,0,0-1.679-1.9H17.076a1.917,1.917,0,0,0,0,3.8h7.162A1.9,1.9,0,0,0,25.917,17.069Z" transform="translate(-3 -2)" fill="#fff" fill-rule="evenodd"/>
</svg>
