<svg xmlns="http://www.w3.org/2000/svg" preserveAspectRatio="none" viewBox="0 0 21.5 21.5">
  <g id="Chat" transform="translate(-1.25 -1.25)">
    <path id="Path_1" data-name="Path 1" d="M7.7,13.391a1.168,1.168,0,1,1,1.169-1.169A1.169,1.169,0,0,1,7.7,13.391Zm4.543,0a1.168,1.168,0,1,1,1.169-1.169A1.169,1.169,0,0,1,12.238,13.391Zm3.374-1.169a1.169,1.169,0,1,0,1.169-1.167A1.169,1.169,0,0,0,15.613,12.222Z" fill="#200e32" fill-rule="evenodd"/>
    <path id="Path_2" data-name="Path 2" d="M12.02,2A10.006,10.006,0,0,0,2,12.015a10.584,10.584,0,0,0,1.35,5,1.051,1.051,0,0,1,.07.9l-.67,2.243a.624.624,0,0,0,.82.78l2.02-.6a1.7,1.7,0,0,1,1.49.361A10,10,0,1,0,12.02,2Z" fill="none" stroke="#200e32" stroke-linecap="round" stroke-linejoin="round" stroke-width="1.5" fill-rule="evenodd"/>
  </g>
</svg>
