<svg preserveAspectRatio="none" xmlns="http://www.w3.org/2000/svg"  viewBox="0 0 18 20">
  <path id="Delete" d="M15.939,3.39A1.988,1.988,0,0,0,14.064,2H9.936l-.157.006a1.993,1.993,0,0,0-1.756,1.5L7.775,4.768l-.029.111a.878.878,0,0,1-.829.61H3.731l-.1.007a.752.752,0,0,0,.1,1.493H20.269l.1-.007a.752.752,0,0,0-.1-1.493H17.082l-.112-.007a.885.885,0,0,1-.746-.714l-.237-1.216Zm-1.025,2.1a2.442,2.442,0,0,1-.086-.261l-.038-.166-.226-1.169a.521.521,0,0,0-.413-.385L14.064,3.5H9.936a.525.525,0,0,0-.463.278l-.026.068L9.21,5.062a2.448,2.448,0,0,1-.124.427ZM18.978,8.72a.742.742,0,0,1,.672.706l-.01.206-.314,3.851L19,17.241c-.07.75-.132,1.383-.186,1.881A2.938,2.938,0,0,1,15.8,21.964c-2.647.049-5.192.048-7.663,0A2.916,2.916,0,0,1,5.19,19.13l-.127-1.26L4.84,15.427l-.228-2.681-.26-3.218a.744.744,0,0,1,.67-.808.734.734,0,0,1,.773.587l.03.295.245,3.017.267,3.127c.12,1.354.224,2.449.307,3.219a1.453,1.453,0,0,0,1.521,1.494c2.452.053,4.977.054,7.606.005a1.476,1.476,0,0,0,1.586-1.507l.127-1.253c.037-.386.077-.812.119-1.275l.267-3.076.322-3.946a.74.74,0,0,1,.688-.689Z" transform="translate(-3 -2)" fill="#506e93" fill-rule="evenodd"/>
</svg>
