<svg preserveAspectRatio="none" xmlns="http://www.w3.org/2000/svg" viewBox="0 0 47 47">
  <path id="Category" d="M16.132,2H8.993A7.016,7.016,0,0,0,2,9.039v7.2a7.018,7.018,0,0,0,6.993,7.039h7.139a7.018,7.018,0,0,0,6.993-7.039v-7.2A7.016,7.016,0,0,0,16.132,2ZM8.993,5.279h7.139a3.737,3.737,0,0,1,3.714,3.76v7.2A3.739,3.739,0,0,1,16.132,20H8.993a3.739,3.739,0,0,1-3.714-3.76v-7.2A3.737,3.737,0,0,1,8.993,5.279ZM42.009,2H34.868a7.016,7.016,0,0,0-6.993,7.039v7.2a7.018,7.018,0,0,0,6.993,7.039h7.141A7.017,7.017,0,0,0,49,16.24v-7.2A7.016,7.016,0,0,0,42.009,2ZM34.868,5.279h7.141a3.737,3.737,0,0,1,3.712,3.76v7.2A3.738,3.738,0,0,1,42.009,20H34.868a3.739,3.739,0,0,1-3.714-3.76v-7.2A3.737,3.737,0,0,1,34.868,5.279ZM8.993,27.721h7.139a7.017,7.017,0,0,1,6.993,7.042v7.2A7.016,7.016,0,0,1,16.132,49H8.993A7.016,7.016,0,0,1,2,41.961v-7.2A7.017,7.017,0,0,1,8.993,27.721ZM16.132,31H8.993a3.738,3.738,0,0,0-3.714,3.763v7.2a3.737,3.737,0,0,0,3.714,3.76h7.139a3.737,3.737,0,0,0,3.714-3.76v-7.2A3.738,3.738,0,0,0,16.132,31Zm25.878-3.279H34.868a7.017,7.017,0,0,0-6.993,7.042v7.2A7.016,7.016,0,0,0,34.868,49h7.141A7.016,7.016,0,0,0,49,41.961v-7.2A7.016,7.016,0,0,0,42.009,27.721ZM34.868,31h7.141a3.737,3.737,0,0,1,3.712,3.763v7.2a3.737,3.737,0,0,1-3.712,3.76H34.868a3.737,3.737,0,0,1-3.714-3.76v-7.2A3.738,3.738,0,0,1,34.868,31Z" transform="translate(-2 -2)" fill="#fff" fill-rule="evenodd"/>
</svg>
