<svg xmlns="http://www.w3.org/2000/svg" preserveAspectRatio="none" height="40px" viewBox="0 0 19 14.636">
  <path id="_3_User" data-name="3 User" d="M10.434,3.438a3.978,3.978,0,1,0,3.978,3.978A3.967,3.967,0,0,0,10.434,3.438Zm0,1.295A2.684,2.684,0,1,1,7.75,7.416,2.672,2.672,0,0,1,10.434,4.732ZM5.558,4.251a.647.647,0,0,1,0,1.295,1.857,1.857,0,1,0,0,3.714.647.647,0,1,1,0,1.295,3.152,3.152,0,1,1,0-6.3ZM18.47,7.4a3.153,3.153,0,0,0-3.153-3.152.647.647,0,1,0,0,1.295,1.857,1.857,0,1,1,0,3.714.647.647,0,1,0,0,1.295A3.153,3.153,0,0,0,18.47,7.4Zm-.648,4.769a8.7,8.7,0,0,0-1.308-.189.647.647,0,0,0-.089,1.292,7.493,7.493,0,0,1,1.131.164c.571.112.944.3,1.036.492a.545.545,0,0,1,0,.466c-.091.192-.46.377-1.024.492a.647.647,0,1,0,.261,1.268,2.485,2.485,0,0,0,1.932-1.205,1.84,1.84,0,0,0,0-1.579A2.478,2.478,0,0,0,17.821,12.171Zm-12.769.413a.647.647,0,0,0-.69-.6,8.792,8.792,0,0,0-1.326.192l-.178.038a2.339,2.339,0,0,0-1.742,1.16,1.834,1.834,0,0,0,0,1.579,2.481,2.481,0,0,0,1.931,1.2.647.647,0,1,0,.261-1.268c-.563-.116-.932-.3-1.023-.492a.54.54,0,0,1,0-.466c.092-.194.464-.38,1.018-.488l.288-.059a7.585,7.585,0,0,1,.861-.109A.647.647,0,0,0,5.052,12.584ZM4.589,15.3c0-2.06,2.13-2.784,5.845-2.784H10.7c3.559.033,5.582.759,5.582,2.768,0,1.961-1.933,2.712-5.325,2.779l-.52.005C6.711,18.074,4.589,17.362,4.589,15.3Zm10.395-.015c0-.959-1.537-1.474-4.55-1.474s-4.55.524-4.55,1.489,1.537,1.474,4.55,1.474S14.983,16.255,14.983,15.29Z" transform="translate(-0.938 -3.438)" fill="#fff" fill-rule="evenodd"/>
</svg>
