<svg xmlns="http://www.w3.org/2000/svg" preserveAspectRatio="none" viewBox="0 0 30.762 35"><defs><linearGradient id="a" x1=".5" y1="1" x2=".5" gradientUnits="objectBoundingBox"><stop offset="0" stop-color="#f1f4f8"/><stop offset="1" stop-color="#a5b8ce"/></linearGradient><linearGradient id="b" x1=".5" y1="1" x2=".5" gradientUnits="objectBoundingBox"><stop offset="0" stop-color="#506e93"/><stop offset="1" stop-color="#a5b8ce"/></linearGradient></defs><g data-name="Group 85"><g data-name="Group 84"><path data-name="Path 65" d="M121.774 60H102v25.275h19.774a1.113 1.113 0 001.216-.967V60.967a1.113 1.113 0 00-1.216-.967z" transform="translate(-96.792 -55.138)" fill="url(#a)"/></g></g><g data-name="Group 87"><g data-name="Group 86"><path data-name="Path 66" d="M60.736 14.424h-5.127V13.4a1.025 1.025 0 00-1.594-.853l-6.152 4.1a1.025 1.025 0 000 1.706l6.152 4.1a1.025 1.025 0 001.594-.853v-1.024h5.127a1.025 1.025 0 001.025-1.025v-4.1a1.025 1.025 0 00-1.025-1.027zM44.93.194a1.025 1.025 0 00-.924-.141l-12.3 4.1a1.025 1.025 0 00-.7.973v24.747a1.025 1.025 0 00.7.973l12.3 4.1a1.025 1.025 0 001.35-.973V1.025a1.025 1.025 0 00-.426-.831zm-4.7 18.332a1.025 1.025 0 111.024-1.026 1.025 1.025 0 01-1.025 1.025z" transform="translate(-31)" fill="url(#b)"/></g></g></svg>