<svg xmlns="http://www.w3.org/2000/svg" width="736.778" height="784.199"><defs><clipPath id="a"><path data-name="Path 76" d="M80.766 388.229s-2.5 52.325-2.214 66.828.63 19.927 7.82 21.206 34.938 4.063 42.656 1.259 10.156-5.281 12.756-9.567 14.828-62.1 17.591-78.325 13.914-189.15 13.914-189.15.427-3.677-6.988-6.947c-6.094-2.742-35.994-4.063-45.663-4.388a10.156 10.156 0 00-10.258 7.475v.223c-1.847 7.457-29.614 191.386-29.614 191.386z" transform="translate(-78.529 -189.135)" fill="#1f426c" stroke="#263238" stroke-linecap="round" stroke-linejoin="round"/></clipPath><clipPath id="b"><path data-name="Path 82" d="M137.488 293.43c-8.673 0-46.028-3.941-51.817-5.18a45.4 45.4 0 01-4.875-1.3v.406s-2.5 52.325-2.214 66.828.63 19.927 7.82 21.206 34.938 4.063 42.656 1.259 10.156-5.281 12.756-9.567 14.219-58.906 17.347-76.9c-7.312 3.796-14.543 3.187-21.673 3.248z" transform="translate(-78.559 -286.95)" fill="#263238" stroke="#263238" stroke-linecap="round" stroke-linejoin="round"/></clipPath><clipPath id="c"><path data-name="Path 115" d="M452.435 653.66L351.847 479.785S340.594 400.789 316.6 369s-57.627-54.986-38.106-71.236 69.063-47.328 79.219-45.338 78.528 36.563 97.846 42.149 26.081 13.792 23.2 30.469-4.059 133.616 1.646 149.764 69.2 131.239 69.2 131.239" transform="translate(-272.652 -252.335)" fill="#fff" stroke="#263238" stroke-linecap="round" stroke-miterlimit="10"/></clipPath><clipPath id="d"><path data-name="Path 129" d="M405.206 333.606s-23.034 5.4-33.333 2.966-31.322-32.013-45.764-41.742-23.238-12.045-38.35-14.32-25.553 5.017-22.344 18.85 20.78 30.591 33.6 41.681 25.045 30.063 32.642 52.1S344 435.433 360.9 457.7s37.984 31.424 45.074 32.663" transform="translate(-264.834 -280.098)" fill="#fff" stroke="#263238" stroke-linecap="round" stroke-miterlimit="10"/></clipPath><clipPath id="e"><path data-name="Path 139" d="M492 342.615l2.762-8.917c2.762-8.9.67-22.019-6.906-29.474s-34.531-20.577-42.413-27.463-66.869-49.014-77.35-46.434-23.1 17.57-33.78 25.9-48.994 39.691-48.994 39.691-26.914 11.659-25.7 17.144 6.8 12.492 23.684 11.944 45.013-17.367 49.278-19.845 30.819-19.867 30.819-19.867a92.991 92.991 0 0023.4 16.859c12.533 5.809 14.219 6.4 14.219 6.4s3.27 11.883 12.472 17.977" transform="translate(-259.58 -230.214)" fill="#fff" stroke="#263238" stroke-linecap="round" stroke-miterlimit="10"/></clipPath></defs><path data-name="Path 1" d="M521.303 186.896a2.031 2.031 0 10-.589-3.839l-7.7 1.2-.223-1.463 7.7-1.2a2.031 2.031 0 00-.589-3.839l-7.719 1.219-1.645-10.623-23.117-20.882-302.799 556.564 23.2 15.681 379.317-59.11-4.228-27.215 7.7-1.2a2.031 2.031 0 10-.589-3.819l-7.719 1.2-.223-1.483 7.719-1.2a1.909 1.909 0 001.6-2.194 2.031 2.031 0 00-2.214-1.625l-7.7 1.2-2.234-14.32 7.719-1.2a2.031 2.031 0 00-.508-3.8l-7.7 1.2-.219-1.459 7.7-1.2a2.031 2.031 0 00-.589-3.839l-7.719 1.2-2.214-14.219 7.7-1.219a1.889 1.889 0 001.6-2.194 2.031 2.031 0 00-2.194-1.625l-7.719 1.2-.223-1.462 7.7-1.2a2.031 2.031 0 00-.589-3.839l-7.7 1.2-2.234-14.219 7.7-1.2a2.031 2.031 0 00-.589-3.839l-7.7 1.2-.244-1.462 7.719-1.2a2.031 2.031 0 001.6-2.214 1.889 1.889 0 00-2.194-1.6l-7.719 1.2-2.214-14.219 7.7-1.2a2.031 2.031 0 001.6-2.214 1.889 1.889 0 00-2.194-1.6l-7.719 1.2-.223-1.483 7.7-1.2a2.031 2.031 0 10-.589-3.819l-7.7 1.2-2.224-14.334 7.7-1.2a2.031 2.031 0 10-.589-3.819l-7.7 1.2-.244-1.483 7.719-1.2a2.031 2.031 0 10-.609-3.819l-7.7 1.2-2.234-14.32 7.719-1.2a2.031 2.031 0 10-.609-3.819l-7.7 1.2-.223-1.483 7.7-1.2a1.932 1.932 0 10-.589-3.819l-7.719 1.2-2.214-14.219 7.7-1.2a1.932 1.932 0 10-.589-3.819l-7.7 1.2-.244-1.463 7.719-1.2a2.031 2.031 0 00-.609-3.839l-7.7 1.2-2.234-14.219 7.719-1.2a2.031 2.031 0 00-.609-3.839l-7.7 1.2-.223-1.463 7.7-1.2a2.031 2.031 0 00-.589-3.839l-7.719 1.219-2.214-14.219 7.7-1.2a2.031 2.031 0 00-.589-3.839l-7.719 1.2-.223-1.463 7.7-1.2a2.031 2.031 0 10-.589-3.819l-7.7 1.2-2.234-14.32 7.7-1.2a2.031 2.031 0 10-.589-3.819l-7.7 1.2-.223-1.483 7.7-1.2a2.031 2.031 0 00-.589-3.819l-7.719 1.2-2.214-14.219 7.7-1.2a2.031 2.031 0 00-.589-3.819l-7.719 1.2-.223-1.483 7.7-1.2a1.932 1.932 0 10-.589-3.819l-7.7 1.2-2.234-14.32 7.7-1.2a2.031 2.031 0 10-.589-3.819l-7.7 1.2-.244-1.463 7.719-1.2a2.031 2.031 0 00-.609-3.839l-7.7 1.2-2.234-14.219 7.719-1.219a2.031 2.031 0 00-.589-3.819l-7.719 1.2-.223-1.462 7.7-1.2a2.031 2.031 0 00-.589-3.839l-7.7 1.2-2.234-14.219 7.7-1.2a2.031 2.031 0 10-.589-3.839l-7.7 1.2-.244-1.462 7.719-1.2a2.031 2.031 0 10-.609-3.819l-7.7 1.2-2.234-14.219 7.719-1.2a2.031 2.031 0 00-.609-3.819l-7.7 1.2-.223-1.483 7.7-1.2a2.031 2.031 0 10-.589-3.819l-7.719 1.2-2.214-14.32 7.7-1.2a2.031 2.031 0 10-.589-3.819l-7.719 1.2-.223-1.483 7.719-1.2a2.031 2.031 0 00-.609-3.819l-7.7 1.2-2.234-14.32 7.719-1.2a2.031 2.031 0 00-.609-3.819l-7.7 1.2-.223-1.483 7.7-1.2a1.932 1.932 0 10-.589-3.819l-7.719 1.2-2.214-14.32 7.7-1.2a1.932 1.932 0 10-.589-3.819l-7.719 1.2-.223-1.463 7.7-1.2a2.031 2.031 0 00-.589-3.839l-7.7 1.2-2.234-14.219z" opacity=".3"/><path data-name="Path 2" d="M196.871 709.334l351.712-54.722-78.488-504.462-351.732 54.844a16.433 16.433 0 00-13.712 18.769l73.531 471.861a16.413 16.413 0 0018.688 13.711z" fill="#263238" stroke="#263238" stroke-linecap="round" stroke-miterlimit="10"/><path data-name="Path 3" d="M203.402 691.706l-20.071 3.125a5.383 5.383 0 01-6.151-4.49l-7.063-45.36a5.383 5.383 0 014.491-6.147l20.075-3.125z" fill="#fff" stroke="#263238" stroke-linecap="round" stroke-miterlimit="10"/><path data-name="Path 4" d="M194.254 632.841l-20.071 3.125a5.383 5.383 0 01-6.151-4.49l-7.063-45.36a5.383 5.383 0 014.491-6.147l20.075-3.125z" fill="#1f426c" stroke="#263238" stroke-linecap="round" stroke-miterlimit="10"/><path data-name="Path 5" d="M185.07 573.877l-20.071 3.125a5.383 5.383 0 01-6.151-4.49l-7.063-45.36a5.383 5.383 0 014.491-6.147l20.075-3.125z" fill="#fff" stroke="#263238" stroke-linecap="round" stroke-miterlimit="10"/><path data-name="Path 6" d="M175.925 515.033l-20.071 3.125a5.383 5.383 0 01-6.151-4.49l-7.063-45.36a5.383 5.383 0 014.491-6.147l20.075-3.125z" fill="#1f426c" stroke="#263238" stroke-linecap="round" stroke-miterlimit="10"/><path data-name="Path 7" d="M138.045 403.285l12-1.869-30.606-196.625 367.982-57.261 78.488 504.442-367.962 57.2-39.183-251.752-12 1.869a5.362 5.362 0 01-6.094-4.489l-7.17-45.358a5.383 5.383 0 014.55-6.155z" fill="#fff"/><path data-name="Path 8" d="M177.391 312.204l1.219 27.564 137.313-22.4-3.6-23.075z" fill="#1f426c"/><path data-name="Path 9" d="M466.967 178.385a7.191 7.191 0 105.992-8.125 7.191 7.191 0 00-5.992 8.125z" fill="#263238" stroke="#263238" stroke-linecap="round" stroke-miterlimit="10"/><path data-name="Path 10" d="M474.747 176.151l21.49-3.347a2.031 2.031 0 001.6-2.214h0a2.031 2.031 0 00-2.214-1.6l-21.409 3.311a2.031 2.031 0 00-1.625 2.214h0a2.031 2.031 0 002.158 1.636z" fill="#fff" stroke="#263238" stroke-linecap="round" stroke-miterlimit="10"/><path data-name="Path 11" d="M475.64 181.432l21.45-3.331a2.031 2.031 0 001.625-2.214h0a2.031 2.031 0 00-2.214-1.625l-21.491 3.352a2.031 2.031 0 00-1.6 2.214h0a2.031 2.031 0 002.23 1.604z" fill="#fff" stroke="#263238" stroke-linecap="round" stroke-miterlimit="10"/><path data-name="Path 12" d="M470.684 201.805a7.191 7.191 0 106.094-8.125 7.191 7.191 0 00-6.094 8.125z" fill="#263238" stroke="#263238" stroke-linecap="round" stroke-miterlimit="10"/><path data-name="Path 13" d="M478.464 199.571l21.47-3.331a2.031 2.031 0 001.625-2.214h0a2.031 2.031 0 00-2.214-1.625l-21.491 3.352a2.031 2.031 0 00-1.6 2.214h0a2.031 2.031 0 002.21 1.604z" fill="#fff" stroke="#263238" stroke-linecap="round" stroke-miterlimit="10"/><path data-name="Path 14" d="M479.276 204.791l21.491-3.331a2.031 2.031 0 001.6-2.214h0a2.031 2.031 0 00-2.214-1.625l-21.47 3.352a2.031 2.031 0 00-1.625 2.214h0a2.031 2.031 0 002.218 1.604z" fill="#fff" stroke="#263238" stroke-linecap="round" stroke-miterlimit="10"/><path data-name="Path 15" d="M474.261 225.246a7.191 7.191 0 105.992-8.125 7.19 7.19 0 00-5.992 8.125z" fill="#263238" stroke="#263238" stroke-linecap="round" stroke-miterlimit="10"/><path data-name="Path 16" d="M482.099 223.073l21.491-3.331a2.031 2.031 0 001.6-2.214h0a2.031 2.031 0 00-2.214-1.625l-21.47 3.352a2.031 2.031 0 00-1.625 2.214h0a2.031 2.031 0 002.218 1.604z" fill="#fff" stroke="#263238" stroke-linecap="round" stroke-miterlimit="10"/><path data-name="Path 17" d="M482.871 228.313l21.47-3.352a2.031 2.031 0 001.625-2.194h0a2.031 2.031 0 00-2.214-1.625l-21.47 3.352a2.031 2.031 0 00-1.625 2.194h0a2.031 2.031 0 002.214 1.625z" fill="#fff" stroke="#263238" stroke-linecap="round" stroke-miterlimit="10"/><path data-name="Path 18" d="M477.895 248.687a7.191 7.191 0 106.094-8.125 7.191 7.191 0 00-6.094 8.125z" fill="#263238" stroke="#263238" stroke-linecap="round" stroke-miterlimit="10"/><path data-name="Path 19" d="M485.756 246.453l21.491-3.352a2.031 2.031 0 001.625-2.194h0a2.031 2.031 0 00-2.214-1.625l-21.491 3.352a1.909 1.909 0 00-1.6 2.194h0a2.031 2.031 0 002.189 1.625z" fill="#fff" stroke="#263238" stroke-linecap="round" stroke-miterlimit="10"/><path data-name="Path 20" d="M486.568 251.754l21.491-3.352a1.909 1.909 0 001.6-2.214h0a1.909 1.909 0 00-2.194-1.6l-21.491 3.331a2.031 2.031 0 00-1.6 2.214h0a2.031 2.031 0 002.194 1.621z" fill="#fff" stroke="#263238" stroke-linecap="round" stroke-miterlimit="10"/><path data-name="Path 21" d="M481.551 272.127a7.191 7.191 0 105.992-8.125 7.191 7.191 0 00-5.992 8.125z" fill="#263238" stroke="#263238" stroke-linecap="round" stroke-miterlimit="10"/><path data-name="Path 22" d="M489.391 269.89l21.491-3.352a2.031 2.031 0 001.6-2.214h0a1.909 1.909 0 00-2.194-1.6l-21.491 3.331a2.031 2.031 0 00-1.6 2.214h0a2.031 2.031 0 002.194 1.621z" fill="#fff" stroke="#263238" stroke-linecap="round" stroke-miterlimit="10"/><path data-name="Path 23" d="M490.224 275.194l21.47-3.372a2.031 2.031 0 001.625-2.214h0a2.031 2.031 0 00-2.214-1.6l-21.47 3.331a2.031 2.031 0 00-1.625 2.214h0a2.031 2.031 0 002.214 1.641z" fill="#fff" stroke="#263238" stroke-linecap="round" stroke-miterlimit="10"/><path data-name="Path 24" d="M485.187 295.564a7.19 7.19 0 101.327-5.388 7.191 7.191 0 00-1.327 5.388z" fill="#263238" stroke="#263238" stroke-linecap="round" stroke-miterlimit="10"/><path data-name="Path 25" d="M493.027 293.334l21.47-3.352a2.031 2.031 0 001.625-2.214h0a2.031 2.031 0 00-2.214-1.6l-21.47 3.331a2.031 2.031 0 00-1.625 2.214h0a2.031 2.031 0 002.214 1.625z" fill="#fff" stroke="#263238" stroke-linecap="round" stroke-miterlimit="10"/><path data-name="Path 26" d="M493.881 298.615l21.491-3.331a2.031 2.031 0 001.625-2.214h0a2.031 2.031 0 00-2.214-1.625l-21.491 3.352a2.031 2.031 0 00-1.6 2.214h0a2.031 2.031 0 002.189 1.604z" fill="#fff" stroke="#263238" stroke-linecap="round" stroke-miterlimit="10"/><path data-name="Path 27" d="M488.844 318.988a7.191 7.191 0 105.992-8.125 7.191 7.191 0 00-5.992 8.125z" fill="#263238" stroke="#263238" stroke-linecap="round" stroke-miterlimit="10"/><path data-name="Path 28" d="M496.684 316.753l21.491-3.331a2.031 2.031 0 001.625-2.214h0a2.031 2.031 0 00-2.214-1.6l-21.491 3.331a2.031 2.031 0 00-1.6 2.214h0a1.889 1.889 0 002.194 1.6z" fill="#fff" stroke="#263238" stroke-linecap="round" stroke-miterlimit="10"/><path data-name="Path 29" d="M497.516 322.056l21.491-3.331a2.031 2.031 0 001.6-2.214h0a2.031 2.031 0 00-2.214-1.625l-21.47 3.352a2.031 2.031 0 00-1.625 2.214h0a2.031 2.031 0 002.218 1.604z" fill="#fff" stroke="#263238" stroke-linecap="round" stroke-miterlimit="10"/><path data-name="Path 30" d="M492.5 342.429a7.191 7.191 0 105.992-8.125 7.191 7.191 0 00-5.992 8.125z" fill="#263238" stroke="#263238" stroke-linecap="round" stroke-miterlimit="10"/><path data-name="Path 31" d="M500.34 340.194l21.491-3.372a2.031 2.031 0 001.6-2.214h0a2.031 2.031 0 00-2.214-1.625l-21.47 3.352a2.031 2.031 0 00-1.625 2.214h0a2.031 2.031 0 002.214 1.645z" fill="#fff" stroke="#263238" stroke-linecap="round" stroke-miterlimit="10"/><path data-name="Path 32" d="M501.153 345.497l21.47-3.352a2.031 2.031 0 001.625-2.194h0a2.031 2.031 0 00-2.214-1.625l-21.491 3.354a2.031 2.031 0 00-1.6 2.214h0a2.031 2.031 0 002.21 1.603z" fill="#fff" stroke="#263238" stroke-linecap="round" stroke-miterlimit="10"/><path data-name="Path 33" d="M496.136 365.87a7.191 7.191 0 106.094-8.125 7.191 7.191 0 00-6.094 8.125z" fill="#263238" stroke="#263238" stroke-linecap="round" stroke-miterlimit="10"/><path data-name="Path 34" d="M503.997 363.636l21.531-3.331a2.031 2.031 0 001.625-2.214h0a2.031 2.031 0 00-2.214-1.625l-21.491 3.352a2.031 2.031 0 00-1.6 2.214h0a2.031 2.031 0 002.149 1.604z" fill="#fff" stroke="#263238" stroke-linecap="round" stroke-miterlimit="10"/><path data-name="Path 35" d="M504.809 368.937l21.491-3.352a2.031 2.031 0 001.6-2.214h0a2.031 2.031 0 00-2.214-1.6l-21.47 3.352a2.031 2.031 0 00-1.625 2.194h0a2.031 2.031 0 002.214 1.625z" fill="#fff" stroke="#263238" stroke-linecap="round" stroke-miterlimit="10"/><path data-name="Path 36" d="M499.792 389.31a7.191 7.191 0 105.992-8.125 7.191 7.191 0 00-5.992 8.125z" fill="#263238" stroke="#263238" stroke-linecap="round" stroke-miterlimit="10"/><path data-name="Path 37" d="M507.632 387.076l21.491-3.352a2.031 2.031 0 001.6-2.214h0a2.031 2.031 0 00-2.214-1.6l-21.47 3.352a2.031 2.031 0 00-1.625 2.194h0a2.031 2.031 0 002.214 1.625z" fill="#fff" stroke="#263238" stroke-linecap="round" stroke-miterlimit="10"/><path data-name="Path 38" d="M508.465 392.381l21.47-3.352a2.031 2.031 0 001.625-2.214h0a2.031 2.031 0 00-2.214-1.6l-21.491 3.331a2.031 2.031 0 00-1.6 2.214h0a2.031 2.031 0 002.21 1.621z" fill="#fff" stroke="#263238" stroke-linecap="round" stroke-miterlimit="10"/><path data-name="Path 39" d="M503.428 412.751a7.191 7.191 0 101.327-5.387 7.191 7.191 0 00-1.327 5.387z" fill="#263238" stroke="#263238" stroke-linecap="round" stroke-miterlimit="10"/><path data-name="Path 40" d="M511.309 410.517l21.47-3.352a2.031 2.031 0 001.625-2.214h0a2.031 2.031 0 00-2.214-1.6l-21.491 3.331a2.031 2.031 0 00-1.6 2.214h0a2.031 2.031 0 002.21 1.621z" fill="#fff" stroke="#263238" stroke-linecap="round" stroke-miterlimit="10"/><path data-name="Path 41" d="M512.101 415.798l21.552-3.331a2.031 2.031 0 001.6-2.214h0a1.889 1.889 0 00-2.194-1.6l-21.552 3.331a2.031 2.031 0 00-1.625 2.214h0a2.031 2.031 0 002.219 1.6z" fill="#fff" stroke="#263238" stroke-linecap="round" stroke-miterlimit="10"/><path data-name="Path 42" d="M507.084 436.171a7.191 7.191 0 105.992-8.125 7.191 7.191 0 00-5.992 8.125z" fill="#263238" stroke="#263238" stroke-linecap="round" stroke-miterlimit="10"/><path data-name="Path 43" d="M514.924 433.958l21.491-3.352a2.031 2.031 0 001.6-2.214h0a2.031 2.031 0 00-2.194-1.6l-21.491 3.331a2.031 2.031 0 00-1.625 2.214h0a2.031 2.031 0 002.219 1.621z" fill="#fff" stroke="#263238" stroke-linecap="round" stroke-miterlimit="10"/><path data-name="Path 44" d="M515.757 439.239l21.47-3.331a2.031 2.031 0 001.625-2.214h0a2.031 2.031 0 00-2.215-1.622l-21.47 3.352a2.031 2.031 0 00-1.625 2.214h0a2.031 2.031 0 002.214 1.6z" fill="#fff" stroke="#263238" stroke-linecap="round" stroke-miterlimit="10"/><path data-name="Path 45" d="M510.72 459.612a7.191 7.191 0 106.094-8.125 7.19 7.19 0 00-6.094 8.125z" fill="#263238" stroke="#263238" stroke-linecap="round" stroke-miterlimit="10"/><path data-name="Path 46" d="M518.581 457.381l21.47-3.331a2.031 2.031 0 001.625-2.214h0a2.031 2.031 0 00-2.214-1.625l-21.47 3.352a2.031 2.031 0 00-1.625 2.214h0a2.031 2.031 0 002.214 1.6z" fill="#fff" stroke="#263238" stroke-linecap="round" stroke-miterlimit="10"/><path data-name="Path 47" d="M519.434 462.761l21.491-3.331a2.031 2.031 0 001.6-2.214h0a2.031 2.031 0 00-2.194-1.625l-21.491 3.352a2.031 2.031 0 00-1.6 2.214h0a1.909 1.909 0 002.194 1.6z" fill="#fff" stroke="#263238" stroke-linecap="round" stroke-miterlimit="10"/><path data-name="Path 48" d="M514.377 483.073a7.191 7.191 0 105.992-8.125 7.191 7.191 0 00-5.992 8.125z" fill="#263238" stroke="#263238" stroke-linecap="round" stroke-miterlimit="10"/><path data-name="Path 49" d="M522.219 480.818l21.59-3.335a1.909 1.909 0 001.6-2.214h0a2.031 2.031 0 00-2.194-1.625l-21.587 3.339a1.909 1.909 0 00-1.6 2.214h0a1.909 1.909 0 002.194 1.625z" fill="#fff" stroke="#263238" stroke-linecap="round" stroke-miterlimit="10"/><path data-name="Path 50" d="M523.049 486.12l21.47-3.352a1.91 1.91 0 001.621-2.195h0a2.031 2.031 0 00-2.214-1.625l-21.47 3.352a2.031 2.031 0 00-1.625 2.194h0a2.031 2.031 0 002.218 1.626z" fill="#fff" stroke="#263238" stroke-linecap="round" stroke-miterlimit="10"/><path data-name="Path 51" d="M518.012 506.494a7.191 7.191 0 106.094-8.125 7.191 7.191 0 00-6.094 8.125z" fill="#263238" stroke="#263238" stroke-linecap="round" stroke-miterlimit="10"/><path data-name="Path 52" d="M525.874 504.26l21.47-3.352a2.031 2.031 0 001.625-2.194h0a2.031 2.031 0 00-2.214-1.625l-21.47 3.352a2.031 2.031 0 00-1.625 2.194h0a2.031 2.031 0 002.214 1.625z" fill="#fff" stroke="#263238" stroke-linecap="round" stroke-miterlimit="10"/><path data-name="Path 53" d="M526.705 509.48l21.47-3.352a2.031 2.031 0 001.625-2.214h0a2.031 2.031 0 00-2.214-1.6l-21.491 3.327a2.031 2.031 0 00-1.6 2.214h0a2.031 2.031 0 002.21 1.625z" fill="#fff" stroke="#263238" stroke-linecap="round" stroke-miterlimit="10"/><path data-name="Path 54" d="M521.669 529.934a7.191 7.191 0 105.992-8.125 7.191 7.191 0 00-5.992 8.125z" fill="#263238" stroke="#263238" stroke-linecap="round" stroke-miterlimit="10"/><path data-name="Path 55" d="M529.591 527.761l21.469-3.347a2.031 2.031 0 001.625-2.214h0a2.031 2.031 0 00-2.214-1.6l-21.491 3.331a2.031 2.031 0 00-1.6 2.214h0a2.031 2.031 0 002.211 1.616z" fill="#fff" stroke="#263238" stroke-linecap="round" stroke-miterlimit="10"/><path data-name="Path 56" d="M530.342 533.002l21.592-3.352a2.031 2.031 0 001.6-2.214h0a2.031 2.031 0 00-2.214-1.6l-21.47 3.331a2.031 2.031 0 00-1.625 2.214h0a2.031 2.031 0 002.117 1.621z" fill="#fff" stroke="#263238" stroke-linecap="round" stroke-miterlimit="10"/><path data-name="Path 57" d="M525.325 553.375a7.191 7.191 0 101.327-5.387 7.191 7.191 0 00-1.327 5.387z" fill="#263238" stroke="#263238" stroke-linecap="round" stroke-miterlimit="10"/><path data-name="Path 58" d="M533.166 551.14l21.491-3.352a2.031 2.031 0 001.6-2.214h0a2.031 2.031 0 00-2.3-1.564l-21.47 3.331a2.031 2.031 0 00-1.625 2.214h0a2.031 2.031 0 002.304 1.585z" fill="#fff" stroke="#263238" stroke-linecap="round" stroke-miterlimit="10"/><path data-name="Path 59" d="M533.998 556.422l21.47-3.331a2.031 2.031 0 001.625-2.214h0a2.031 2.031 0 00-2.214-1.625l-21.491 3.352a2.031 2.031 0 00-1.6 2.214h0a2.031 2.031 0 002.21 1.604z" fill="#fff" stroke="#263238" stroke-linecap="round" stroke-miterlimit="10"/><path data-name="Path 60" d="M528.961 576.795a7.191 7.191 0 105.992-8.125 7.191 7.191 0 00-5.992 8.125z" fill="#263238" stroke="#263238" stroke-linecap="round" stroke-miterlimit="10"/><path data-name="Path 61" d="M536.822 574.479l21.47-3.331a2.031 2.031 0 001.625-2.214h0a1.91 1.91 0 00-2.214-1.6l-21.491 3.331a2.031 2.031 0 00-1.6 2.214h0a1.91 1.91 0 002.214 1.6z" fill="#fff" stroke="#263238" stroke-linecap="round" stroke-miterlimit="10"/><path data-name="Path 62" d="M537.715 579.863l21.409-3.352a2.031 2.031 0 001.6-2.214h0a2.031 2.031 0 00-2.214-1.625l-21.47 3.352a2.031 2.031 0 00-1.625 2.214h0a2.031 2.031 0 002.3 1.625z" fill="#fff" stroke="#263238" stroke-linecap="round" stroke-miterlimit="10"/><path data-name="Path 63" d="M532.617 600.236a7.191 7.191 0 105.992-8.125 7.191 7.191 0 00-5.992 8.125z" fill="#263238" stroke="#263238" stroke-linecap="round" stroke-miterlimit="10"/><path data-name="Path 64" d="M540.457 598.002l21.491-3.331a2.031 2.031 0 001.6-2.214h0a2.031 2.031 0 00-2.214-1.625l-21.47 3.352a2.031 2.031 0 00-1.625 2.214h0a2.031 2.031 0 002.214 1.6z" fill="#fff" stroke="#263238" stroke-linecap="round" stroke-miterlimit="10"/><path data-name="Path 65" d="M541.291 603.304l21.47-3.352a2.031 2.031 0 001.625-2.194h0a2.031 2.031 0 00-2.214-1.625l-21.491 3.352a2.031 2.031 0 00-1.6 2.214h0a2.031 2.031 0 002.21 1.605z" fill="#fff" stroke="#263238" stroke-linecap="round" stroke-miterlimit="10"/><path data-name="Path 66" d="M536.253 623.677a7.191 7.191 0 106.094-8.125 7.191 7.191 0 00-6.094 8.125z" fill="#263238" stroke="#263238" stroke-linecap="round" stroke-miterlimit="10"/><path data-name="Path 67" d="M544.114 621.443l21.47-3.331a2.031 2.031 0 001.625-2.214h0a2.031 2.031 0 00-2.214-1.625l-21.491 3.352a2.031 2.031 0 00-1.6 2.214h0a2.031 2.031 0 002.21 1.604z" fill="#fff" stroke="#263238" stroke-linecap="round" stroke-miterlimit="10"/><path data-name="Path 68" d="M544.926 626.744l21.491-3.352a2.031 2.031 0 001.6-2.214h0a1.909 1.909 0 00-2.194-1.6l-21.491 3.352a1.889 1.889 0 00-1.6 2.194h0a2.031 2.031 0 002.194 1.62z" fill="#fff" stroke="#263238" stroke-linecap="round" stroke-miterlimit="10"/><g data-name="Group 1" opacity=".3" fill="none" stroke="#000" stroke-linecap="round" stroke-miterlimit="10"><path data-name="Line 1" d="M229.127 226.14l5.342-.813"/><path data-name="Line 2" d="M239.812 224.494l5.342-.833"/><path data-name="Line 3" d="M176.924 241.801l5.322-.833"/><path data-name="Line 4" d="M187.588 240.135l5.342-.833"/><path data-name="Line 5" d="M198.272 238.49l5.322-.833"/><path data-name="Line 6" d="M208.937 236.824l5.342-.833"/><path data-name="Line 7" d="M219.601 235.158l5.342-.833"/><path data-name="Line 8" d="M230.285 233.493l5.322-.833"/><path data-name="Line 9" d="M240.949 231.828l5.342-.813"/><path data-name="Line 10" d="M178.061 249.154l5.342-.833"/><path data-name="Line 11" d="M188.726 247.488l5.342-.833"/><path data-name="Line 12" d="M199.41 245.823l5.342-.813"/><path data-name="Line 13" d="M210.074 244.177l5.342-.833"/><path data-name="Line 14" d="M220.758 242.512l5.322-.833"/><path data-name="Line 15" d="M231.423 240.846l5.342-.833"/><path data-name="Line 16" d="M242.087 239.18l5.342-.833"/><path data-name="Line 17" d="M179.199 256.507l5.342-.833"/><path data-name="Line 18" d="M189.883 254.841l5.322-.833"/><path data-name="Line 19" d="M200.547 253.176l5.342-.833"/><path data-name="Line 20" d="M211.232 251.53l5.322-.833"/><path data-name="Line 21" d="M221.896 249.865l5.342-.833"/><path data-name="Line 22" d="M232.56 248.199l5.342-.833"/><path data-name="Line 23" d="M243.244 246.534l5.322-.833"/><path data-name="Line 24" d="M180.357 263.86l5.322-.833"/><path data-name="Line 25" d="M191.021 262.195l5.342-.833"/><path data-name="Line 26" d="M201.685 260.529l5.342-.833"/><path data-name="Line 27" d="M212.369 258.864l5.342-.813"/><path data-name="Line 28" d="M223.033 257.218l5.342-.833"/><path data-name="Line 29" d="M233.718 255.552l5.322-.833"/><path data-name="Line 30" d="M244.382 253.887l5.342-.833"/><path data-name="Line 31" d="M174.263 224.799l5.342-.833"/><path data-name="Line 32" d="M184.947 223.134l5.342-.813"/><path data-name="Line 33" d="M195.612 221.488l5.342-.833"/><path data-name="Line 34" d="M206.296 219.823l5.322-.833"/><path data-name="Line 35" d="M216.96 218.157l5.342-.833"/><path data-name="Line 36" d="M227.644 216.492l5.322-.813"/><path data-name="Line 37" d="M238.309 214.846l5.342-.833"/><path data-name="Line 38" d="M244.747 218.075l-70.281 10.928"/><path data-name="Line 39" d="M193.966 212.327l27.117-4.225"/><path data-name="Line 40" d="M160.288 288.133l299.062-46.536"/><path data-name="Line 41" d="M164.046 312.224l299.042-46.536"/><path data-name="Line 42" d="M167.783 336.294l299.062-46.536"/><path data-name="Line 43" d="M171.541 360.385l299.042-46.536"/><path data-name="Line 44" d="M175.279 384.476l299.062-46.536"/><path data-name="Line 45" d="M179.036 408.566l299.042-46.556"/><path data-name="Line 46" d="M182.774 432.637l299.062-46.536"/><path data-name="Line 47" d="M186.532 456.728l299.042-46.536"/><path data-name="Line 48" d="M190.269 480.818l299.062-46.536"/><path data-name="Line 49" d="M194.027 504.909l299.042-46.556"/><path data-name="Line 50" d="M197.765 528.979l299.062-46.536"/><path data-name="Line 51" d="M201.523 553.07l299.062-46.536"/><path data-name="Line 52" d="M205.26 577.161l299.062-46.536"/><path data-name="Line 53" d="M214.177 634.361l299.042-46.536"/><path data-name="Line 54" d="M217.143 653.434l299.042-46.556"/><path data-name="Line 55" d="M220.108 672.488l299.042-46.536"/></g><path data-name="Path 69" d="M202.944 311.31s-25.513 27.6-10.766 23.258 34.917-33.191 30.631-21.206-4.062 20.15 2.864 11.883 10.806-9.913 9.4-5.586 4.327 1.381 4.327 1.381 14.219-8.369 12.736-4.062-2.377 4.489 1.645 3.859l13.041-2.031s-.853 1.178 11.192-.711 16.738-4.652 22.77-5.586" fill="none" stroke="#263238" stroke-linecap="round" stroke-miterlimit="10"/><path data-name="Path 70" d="M191.366 349.005s19.663-12.309 22.141-9.608-.914 7.333 7.963 4.936 16.961-9.831 17.591-5.83 6.337 1.077 6.337 1.077l5.017-.792s9.181-.386 12.045-1.869 5.83-15.3 3.636 3.555-9.892 2.559 8.409-5.423 21.694.731 21.694.731a28.049 28.049 0 005.87-2.031c3.839-1.645 7.231-6.277 10.867-2.722s10.156-7.739 10.156-7.739a59.544 59.544 0 017.5 1.909 17.55 17.55 0 007.333.914 55.7 55.7 0 009.181-.406c4.063-.63 7.414-5.261 10.725-3.717s8.328-12.614 5.809 4.225-18.809 24.517-12.188 14.219a84.317 84.317 0 0122.12-22.974c7.414-5.261 9.567-4.57 11.192-.711s3.636 3.534 7.5 1.909.548-3.169 3.859-1.625a9.648 9.648 0 007.333.914c3.027-.467-11.091 7.9 3.027-.467s19.155-42.047 11.761-23.42-4.591 23.339 5.3 20.759" fill="none" stroke="#263238" stroke-linecap="round" stroke-miterlimit="10"/><path data-name="Path 71" d="M193.499 382.668s24.131-23.278 22.648-26.142-9.181.406-14.808 10.522-1.666 15.681 13.467 7.17-6.886 2.031 8.653 2.763 20.13-9.3 20.6-6.3-4.713 2.783 7.5 2.031 6.236-6.094 18.749-4.977 18.078-2.823 18.078-2.823l8.023-1.239s-16.25 1.483 4.855-1.788 30.367-29.392 20.211-15.478-5.383 18.281 5.037 12.573l10.42-5.728s13.163-14.381 6.947 5.078-13.569 5.2 9.567-4.57 22.547-.427 30.266-3.677 6.459-11.294 11.578-4.9 4.794 4.408 12.817 3.148 5.87-2.031 12.9-3.027l15.153-2.4" fill="none" stroke="#263238" stroke-linecap="round" stroke-miterlimit="10"/><path data-name="Path 72" d="M197.561 455.018s16.819-10.847 19.5-26.691-10.583 4.733-9.141 27.117-6.439-8.247 17.022-16.006-2.031 6.5.569 10.156 21.836-11.619 21.613-6.459 4.063 6.561 15.884-3.494-7.414-8.125-8.328-.752 4.794 4.388 19.378-.975.3 2.031 9.344.609 28.925-18.891 25-11.091-.142 12.37 4.245 7.577 13.731-17.57 14.5-12.553a12.187 12.187 0 01-1.808 8.511" fill="none" stroke="#263238" stroke-linecap="round" stroke-miterlimit="10"/><path data-name="Path 73" d="M103.291 263.881a12.19 12.19 0 00-1.259-1.158 18.93 18.93 0 00-4.2-2.478l-.894-.325h-.223c-8-2.478-35.364-3.656-44.545-4.063a10.156 10.156 0 00-10.156 7.5v.223c-1.95 7.455-29.778 191.365-29.778 191.365s-.2 4.063-.487 10.42c-.122 2.783-.244 6.094-.406 9.445v2.641c0 1.788-.142 3.616-.223 5.464-.264 6.52-.508 13.386-.691 19.663a783.957 783.957 0 00-.3 12.188v7.048a104.14 104.14 0 00.711 12.736c.792 5.241 2.62 7.658 7.13 8.45 1.117.2 2.742.447 4.713.691l1.219.142 5.586.609 1.544.142 4.773.386 3.291.2 3.311.162c2.173.1 4.327.142 6.378.142a62.663 62.663 0 008.938-.508h.264l.752-.142.833-.2h.163l.833-.264 1.4-.528 1.28-.528a25.071 25.071 0 004.9-2.62 16.593 16.593 0 001.422-1.138 12.941 12.941 0 001.219-1.219l.528-.63a27.252 27.252 0 002.031-2.925 2.377 2.377 0 00.244-.508l.122-.3.2-.528a4.243 4.243 0 01.163-.467 2.17 2.17 0 01.2-.65l.183-.569a3.116 3.116 0 01.223-.792c.081-.284.142-.447.2-.67s.163-.609.264-.934.142-.548.223-.812.163-.65.264-1.016.162-.609.244-.914.183-.731.284-1.138l.244-.955.3-1.239a4.606 4.606 0 01.284-1.1l.3-1.3c.1-.366.183-.772.284-1.158s.223-.914.325-1.381l.3-1.239a7.517 7.517 0 01.325-1.422c.1-.488.2-.894.325-1.341s.223-.975.325-1.483a3.25 3.25 0 000-.427 4.338 4.338 0 01.2-.853c.061-.284.244-1.1.386-1.666s.183-.853.284-1.3.244-1.117.386-1.686l.3-1.341.366-1.686a7.762 7.762 0 01.325-1.483l.366-1.6a8.363 8.363 0 01.325-1.544l.366-1.6a1.35 1.35 0 01.142-.731 2.913 2.913 0 00.2-.853c.061-.284.223-1.056.325-1.584s.223-1.036.345-1.564.223-1.1.345-1.625.223-1.056.345-1.584.2-1.016.325-1.523.223-1.117.345-1.686l.3-1.463c.122-.528.223-1.036.325-1.544s.223-1.077.345-1.6l.3-1.523a8.578 8.578 0 01.284-1.4c.081-.467.142-.691.223-1.036l.122-.589a7.824 7.824 0 01.264-1.341c.081-.447.223-1.016.325-1.523s.163-.873.264-1.3l.3-1.564a6.453 6.453 0 01.2-1.056l.244-1.178v-.447c0-.162.142-.67.2-1.016l.3-1.483.183-1.016c.1-.467.183-.934.264-1.361l.183-.894.244-1.361a1.182 1.182 0 01.142-.691l.244-1.32.122-.65a6.882 6.882 0 01.2-1.158 7.465 7.465 0 01.244-1.4c.345-2.031.813-6.52 1.381-12.8.223-2.356.447-4.956.691-7.8.873-10.359 1.889-23.684 2.966-38.309 0-1.32.183-2.661.284-4.062 4.063-55.291 8.572-126.243 8.572-126.243a4.773 4.773 0 00-1.275-3.511z" opacity=".3"/><path data-name="Path 74" d="M2.744 452.909S.244 505.234.53 519.737s.63 19.927 7.82 21.206 34.938 4.063 42.656 1.259 10.156-5.281 12.756-9.567 14.828-62.1 17.591-78.325 13.914-189.15 13.914-189.15.427-3.677-6.988-6.947c-6.094-2.742-35.994-4.063-45.663-4.388a10.156 10.156 0 00-10.258 7.475v.223C30.511 268.98 2.744 452.909 2.744 452.909z" fill="#1f426c"/><g data-name="Group 2" clip-path="url(#a)" transform="translate(.507 253.815)"><path data-name="Path 75" d="M46.396 289.237a18.286 18.286 0 004.063-.853c7.8-2.8 10.156-5.281 12.756-9.567s14.828-62.1 17.591-78.325S94.72 11.341 94.72 11.341s.427-3.677-6.988-6.947a13.6 13.6 0 00-2.214-.711c-1.6 40.117-7.028 87.75-16.555 144.341-8.897 53.548-18.992 118.264-22.567 141.213z" opacity=".5"/></g><path data-name="Path 77" d="M2.744 452.909S.244 505.234.53 519.737s.63 19.927 7.82 21.206 34.938 4.063 42.656 1.259 10.156-5.281 12.756-9.567 14.828-62.1 17.591-78.325 13.914-189.15 13.914-189.15.427-3.677-6.988-6.947c-6.094-2.742-35.994-4.063-45.663-4.388a10.156 10.156 0 00-10.258 7.475v.223C30.511 268.98 2.744 452.909 2.744 452.909z" fill="none" stroke="#263238" stroke-linecap="round" stroke-linejoin="round"/><path data-name="Path 78" d="M59.497 458.983c-8.673 0-46.028-3.941-51.817-5.18a45.4 45.4 0 01-4.875-1.3v.406s-2.5 52.325-2.214 66.828.63 19.927 7.82 21.206 34.938 4.063 42.656 1.259 10.156-5.281 12.756-9.567 14.219-58.906 17.347-76.9c-7.312 3.796-14.543 3.187-21.673 3.248z" fill="#263238"/><g data-name="Group 3" transform="translate(.568 452.503)" clip-path="url(#b)"><path data-name="Path 79" d="M46.335 90.549a18.286 18.286 0 004.063-.853c7.8-2.8 10.156-5.281 12.756-9.567s14.828-62.1 17.591-78.325 13.914-189.151 13.914-189.151.427-3.677-6.988-6.947a13.6 13.6 0 00-2.214-.711c-1.6 40.117-7.028 87.75-16.555 144.341C60.005 2.884 49.91 67.6 46.335 90.549z" opacity=".5"/><path data-name="Path 80" d="M59.01 11.314a77.633 77.633 0 0016.88-2.6" fill="none" stroke="#fff" stroke-linecap="round" stroke-linejoin="round" opacity=".26"/><path data-name="Path 81" d="M5.141 5.322s45.845 6.277 53.869 5.992" fill="none" stroke="#fff" stroke-linecap="round" stroke-linejoin="round"/></g><path data-name="Path 83" d="M59.497 458.983c-8.673 0-46.028-3.941-51.817-5.18a45.4 45.4 0 01-4.875-1.3v.406s-2.5 52.325-2.214 66.828.63 19.927 7.82 21.206 34.938 4.063 42.656 1.259 10.156-5.281 12.756-9.567 14.219-58.906 17.347-76.9c-7.312 3.796-14.543 3.187-21.673 3.248z" fill="none" stroke="#263238" stroke-linecap="round" stroke-linejoin="round"/><g transform="translate(468.543)"><circle data-name="Ellipse 1" cx="87.161" cy="87.161" r="87.161" transform="rotate(-27.5 280.922 2.613)" fill="#263238" stroke="#6aafd1" stroke-linecap="round" stroke-linejoin="round"/><circle data-name="Ellipse 2" cx="87.161" cy="87.161" r="87.161" transform="rotate(-82.93 154.753 92.057)" fill="#fff" stroke="#6aafd1" stroke-linecap="round" stroke-linejoin="round"/><circle data-name="Ellipse 3" cx="78.508" cy="78.508" r="78.508" transform="rotate(-80.67 157.15 81.344)" fill="#263238" stroke="#6aafd1" stroke-linecap="round" stroke-linejoin="round"/><path data-name="Path 84" d="M132.406 99.471s-8.653-21.653-23.827-36.867-76.863-24.9-76.863-24.9a225.923 225.923 0 0127.056 31.4c14.076 19.48 60.653 63.883 60.653 63.883s-22.75-19.5-43.327-21.653-72.536 8.653-75.786 8.653 19.48 8.673 35.73 16.25 79.036 14.077 79.036 14.077-27.056 7.577-45.48 14.077-35.73 54.133-35.73 54.133 23.827-21.653 44.4-27.077 49.806-15.092 49.806-15.092-18.4 20.577-22.73 34.653-1.1 46.556-1.1 46.556 9.75-30.327 21.653-42.23 24.9-32.5 24.9-32.5a296.319 296.319 0 0116.257 30.306c8.653 18.423 14.077 45.48 14.077 45.48s14.077-30.306 13-45.48-17.306-42.21-17.306-42.21 10.827-7.577 27.056-1.077 44.4 33.577 44.4 33.577-6.5-35.73-17.327-49.806-57.383-18.424-57.383-18.424 25.98-15.153 42.23-18.4 37.9 4.327 37.9 4.327-24.924-34.531-44.4-36.806-48.747 28.15-48.747 28.15 6.5-32.5 8.673-43.306-2.173-37.904-2.173-37.904-11.9 6.5-25.98 27.077a53.849 53.849 0 00-8.673 41.133z" fill="#1f426c"/><path data-name="Path 85" d="M132.406 99.471s-8.653-21.653-23.827-36.867-76.863-24.9-76.863-24.9a225.923 225.923 0 0127.056 31.4c14.076 19.48 60.653 63.883 60.653 63.883s-22.75-19.5-43.327-21.653-72.536 8.653-75.786 8.653 19.48 8.673 35.73 16.25 79.036 14.077 79.036 14.077-27.056 7.577-45.48 14.077-35.73 54.133-35.73 54.133 23.827-21.653 44.4-27.077 49.806-15.092 49.806-15.092-18.4 20.577-22.73 34.653-1.1 46.556-1.1 46.556 9.75-30.327 21.653-42.23 24.9-32.5 24.9-32.5a296.319 296.319 0 0116.257 30.306c8.653 18.423 14.077 45.48 14.077 45.48s14.077-30.306 13-45.48-17.306-42.21-17.306-42.21 10.827-7.577 27.056-1.077 44.4 33.577 44.4 33.577-6.5-35.73-17.327-49.806-57.383-18.424-57.383-18.424 25.98-15.153 42.23-18.4 37.9 4.327 37.9 4.327-24.924-34.531-44.4-36.806-48.747 28.15-48.747 28.15 6.5-32.5 8.673-43.306-2.173-37.904-2.173-37.904-11.9 6.5-25.98 27.077a53.849 53.849 0 00-8.673 41.133z" opacity=".5"/><path data-name="Path 86" d="M153.734 66.524a176.866 176.866 0 012.5-9.283" fill="none" stroke="#6aafd1" stroke-linecap="round" stroke-linejoin="round" stroke-width=".5"/><path data-name="Path 87" d="M81.36 66.503c10.156 7.414 22.811 17.591 29.331 26.406 11.9 16.25 35.73 50.9 35.73 50.9a322.254 322.254 0 015.5-69.408" fill="none" stroke="#6aafd1" stroke-linecap="round" stroke-linejoin="round" stroke-width=".5"/><path data-name="Path 88" d="M66.37 56.164s3.148 2.031 7.881 5.261" fill="none" stroke="#6aafd1" stroke-linecap="round" stroke-linejoin="round" stroke-width=".5"/><path data-name="Path 89" d="M146.483 143.853s41.153-41.153 58.48-44.4 32.5 9.75 32.5 9.75" fill="none" stroke="#6aafd1" stroke-linecap="round" stroke-linejoin="round" stroke-width=".5"/><path data-name="Path 90" d="M72.951 178.385c-10.014 6.378-10.928 9.973-10.928 9.973" fill="none" stroke="#6aafd1" stroke-linecap="round" stroke-linejoin="round" stroke-width=".5"/><path data-name="Path 91" d="M236.366 181.777s-6.5-16.25-29.25-23.827-58.46-8.673-58.46-8.673-50.111 16.413-68.433 24.964" fill="none" stroke="#6aafd1" stroke-linecap="round" stroke-linejoin="round" stroke-width=".5"/><path data-name="Path 92" d="M126.779 143.102c12.188 3.514 21.877 6.094 21.877 6.094" fill="none" stroke="#6aafd1" stroke-linecap="round" stroke-linejoin="round" stroke-width=".5"/><path data-name="Path 93" d="M50.506 123.866c11.761.711 26.914 2.316 35.344 5.931 6.866 2.945 20.414 7.211 33.17 11.009" fill="none" stroke="#6aafd1" stroke-linecap="round" stroke-linejoin="round" stroke-width=".5"/><path data-name="Path 94" d="M33.87 123.297s3.961 0 9.811.223" fill="none" stroke="#6aafd1" stroke-linecap="round" stroke-linejoin="round" stroke-width=".5"/><path data-name="Path 95" d="M146.483 155.777s-30.306 45.48-32.5 56.306a110.2 110.2 0 00-2.173 19.5" fill="none" stroke="#6aafd1" stroke-linecap="round" stroke-linejoin="round" stroke-width=".5"/><path data-name="Path 96" d="M159.97 170.097c5.83 7.536 12.838 17.57 15.742 25.756a176.317 176.317 0 017.6 30.306" fill="none" stroke="#6aafd1" stroke-linecap="round" stroke-linejoin="round" stroke-width=".5"/><path data-name="Path 97" d="M150.809 159.027s2.417 2.681 5.769 6.8" fill="none" stroke="#6aafd1" stroke-linecap="round" stroke-linejoin="round" stroke-width=".5"/><path data-name="Path 98" d="M118.654 108.814S113.048 86.165 116.521 65s47.938-65 47.938-65a225.115 225.115 0 00-3.677 41.3c0 24.05-12 87.344-12 87.344s7.109-29.108 22.567-42.86 63.964-35.364 66.6-37.4-10.766 18.4-19.541 34.044-56 57.525-56 57.525 26.406-9.628 45.155-15.092 60.674 23.217 60.674 23.217-31.972-3.7-51.838 3.9-49.3 16.738-49.3 16.738 26.955 5.992 38.594 14.889 28.011 37.192 28.011 37.192-25.594-18.952-42.209-21.673-39.183-11.863-39.183-11.863a301.018 301.018 0 004.489 34.1c3.7 20.008 15.092 45.155 15.092 45.155s-29.108-16.413-37.07-29.372-10.562-44.4-10.562-44.4-13.224.163-22.628 14.909-16.473 53.158-16.473 53.158-15.58-32.8-14.991-50.558 35.892-48.425 35.892-48.425-29.961 2.844-45.053 9.669-28.255 25.634-28.255 25.634 0-42.656 14.584-55.8 56.022-5.606 56.022-5.606l-32.3-30.144c-8.125-7.516-20.313-32.033-20.313-32.033s13.447-1.686 36.888 6.825a53.808 53.808 0 0131.02 28.441z" fill="#1f426c"/><path data-name="Path 99" d="M82.112 94.474q-3.656-3.148-7.434-6.094" fill="none" stroke="#6aafd1" stroke-linecap="round" stroke-linejoin="round" stroke-width=".5"/><path data-name="Path 100" d="M140.835 52.285c-3.92 11.923-8.267 27.584-8.389 38.594-.2 20.13.67 62.177.67 62.177a321.575 321.575 0 00-44.952-53.178" fill="none" stroke="#6aafd1" stroke-linecap="round" stroke-linejoin="round" stroke-width=".5"/><path data-name="Path 101" d="M147.052 35.1s-1.422 3.473-3.352 8.877" fill="none" stroke="#6aafd1" stroke-linecap="round" stroke-linejoin="round" stroke-width=".5"/><path data-name="Path 102" d="M133.117 153.076s-57.424-9.425-73.389-2.031-20.7 26.853-20.7 26.853" fill="none" stroke="#6aafd1" stroke-linecap="round" stroke-linejoin="round" stroke-width=".5"/><path data-name="Path 103" d="M212.925 138.126c11.862-.65 14.686 1.747 14.686 1.747" fill="none" stroke="#6aafd1" stroke-linecap="round" stroke-linejoin="round" stroke-width=".5"/><path data-name="Path 104" d="M82.213 236.275s-4.184-16.981 9.852-36.4 42.453-41.135 42.453-41.135 50.253-15.9 70.139-19.642" fill="none" stroke="#6aafd1" stroke-linecap="round" stroke-linejoin="round" stroke-width=".5"/><path data-name="Path 105" d="M148.677 140.969a1214.24 1214.24 0 01-14.219 17.773" fill="none" stroke="#6aafd1" stroke-linecap="round" stroke-linejoin="round" stroke-width=".5"/><path data-name="Path 106" d="M199.417 80.885c-9.161 7.434-20.516 17.57-25.269 25.431-3.859 6.4-12.35 17.773-20.5 28.3" fill="none" stroke="#6aafd1" stroke-linecap="round" stroke-linejoin="round" stroke-width=".5"/><path data-name="Path 107" d="M212.579 70.728s-3.209 2.3-7.82 5.891" fill="none" stroke="#6aafd1" stroke-linecap="round" stroke-linejoin="round" stroke-width=".5"/><path data-name="Path 108" d="M140.064 162.744s51.147 19.256 59.231 26.792a111.594 111.594 0 0113.122 14.564" fill="none" stroke="#6aafd1" stroke-linecap="round" stroke-linejoin="round" stroke-width=".5"/><path data-name="Path 109" d="M137.464 182.224c-.345 9.547-.183 21.8 2.214 30.124a176.056 176.056 0 0011.538 29.047" fill="none" stroke="#6aafd1" stroke-linecap="round" stroke-linejoin="round" stroke-width=".5"/><path data-name="Path 110" d="M138.439 167.924s-.406 3.555-.711 8.877" fill="none" stroke="#6aafd1" stroke-linecap="round" stroke-linejoin="round" stroke-width=".5"/></g><path data-name="Path 111" d="M627.517 607.65c-3.9-10.989-4.591-68.636-3.717-109.688l22.811 4.936a16.677 16.677 0 0011.639-1.727 16.249 16.249 0 002.438-1.666 14.215 14.215 0 002.031-2.031 16.474 16.474 0 004.062-8.552 16.258 16.258 0 00.162-1.706 16.636 16.636 0 00-2.377-9.384 16.942 16.942 0 00-1.909-2.58 16.7 16.7 0 00-9.973-5.342l-27.543-4.062c.244-3.575.528-6.358.813-8.125a38.108 38.108 0 00.609-8.125l1.889-6.094c2.783-8.917.67-22.039-6.906-29.494s-34.531-20.577-42.413-27.463-66.892-48.907-77.472-46.434-23.1 17.57-33.759 25.919-49.075 39.853-49.075 39.853c.122-1.32-19.744 6.7-24.578 14.483a3.392 3.392 0 00-1.036 2.722 14.036 14.036 0 008.816 9.709l-17.225-2.539a5.18 5.18 0 00-5.078 2.275c-6.094-.914-18.525-2.275-27.5.183 0 0 14.645 7.17 25.594 9.567a5.18 5.18 0 003.819 3.392l22.852 4.9a26.085 26.085 0 00-.934 4.063 7.131 7.131 0 00.508 3.7c.1.772.244 1.564.427 2.4 3.25 13.813 20.8 30.591 33.6 41.681s25.045 30.083 32.642 52.1 12.35 42.311 29.25 64.655a104.774 104.774 0 009.364 10.7l157.565 99.532s-33.729-105.609-39.396-121.758zM421.934 434.425c-.264.406-.528.813-.752 1.239l-4.347-.65a36.409 36.409 0 005.1-.589z" opacity=".3"/><path data-name="Path 112" d="M574.603 783.516L474.015 609.641s-11.253-78.996-35.247-110.785-57.627-54.986-38.106-71.236 69.063-47.328 79.219-45.338 78.528 36.563 97.846 42.149 26.081 13.792 23.2 30.469-4.059 133.616 1.646 149.764 69.2 131.239 69.2 131.239" fill="#fff"/><g data-name="Group 4" transform="translate(394.82 382.191)" clip-path="url(#c)"><path data-name="Path 113" d="M207.896 222.514c-5.748-16.148-4.53-133.047-1.645-149.765 1.767-10.156-.1-17.245-6.256-22.344a74.568 74.568 0 01-4.448 27.2c-5.423 15.377-8.125 26.224-8.125 26.224s-.894 55.149 2.722 83.281 21.694 77.756 38.878 104.894c12.716 20.069 30.855 38.147 39.447 46.211-17.673-32.175-56.267-103.269-60.573-115.701z" fill="#1f426c"/><path data-name="Path 114" d="M207.896 222.514c-5.748-16.148-4.53-133.047-1.645-149.765 1.767-10.156-.1-17.245-6.256-22.344a74.568 74.568 0 01-4.448 27.2c-5.423 15.377-8.125 26.224-8.125 26.224s-.894 55.149 2.722 83.281 21.694 77.756 38.878 104.894c12.716 20.069 30.855 38.147 39.447 46.211-17.673-32.175-56.267-103.269-60.573-115.701z" fill="#fff" opacity=".5"/></g><path data-name="Path 116" d="M574.603 783.516L474.015 609.641s-11.253-78.996-35.247-110.785-57.627-54.986-38.106-71.236 69.063-47.328 79.219-45.338 78.528 36.563 97.846 42.149 26.081 13.792 23.2 30.469-4.059 133.616 1.646 149.764 69.2 131.239 69.2 131.239" fill="none" stroke="#263238" stroke-linecap="round" stroke-miterlimit="10"/><path data-name="Path 117" d="M374.159 430.748a90.513 90.513 0 0044.3-14.467c22.608-14.463 15.377-17.184 15.377-17.184s11.741-3.616 18.972-6.317a94.492 94.492 0 0017.184-9.953s28.945 18.992 42.494 24.375a145.7 145.7 0 0019.988 6.825l18.911 24.822a64.715 64.715 0 00-26.226 22.612c-10.847 16.25-24.375 37.964-30.753 40.625s-3.616 5.423-31.647-5.424-90.408-49.623-88.6-65.914z" fill="#1f426c"/><path data-name="Path 118" d="M374.159 430.748a90.513 90.513 0 0044.3-14.467c22.608-14.463 15.377-17.184 15.377-17.184s11.741-3.616 18.972-6.317a94.492 94.492 0 0017.184-9.953s28.945 18.992 42.494 24.375a145.7 145.7 0 0019.988 6.825l18.911 24.822a64.715 64.715 0 00-26.226 22.612c-10.847 16.25-24.375 37.964-30.753 40.625s-3.616 5.423-31.647-5.424-90.408-49.623-88.6-65.914z" fill="#fff" opacity=".5"/><path data-name="Path 119" d="M424.25 439.097s21.734-2.681 37.05-30.57c0 0 18.038 7.638 36.806 2.742" fill="none" stroke="#263238" stroke-linecap="round" stroke-miterlimit="10"/><path data-name="Path 120" d="M483.176 418.927s-10.481 27.747 11.619 64.452" fill="none" stroke="#263238" stroke-linecap="round" stroke-miterlimit="10"/><path data-name="Path 121" d="M459.959 421.466s10.949 13.467 12.736 25.208" fill="none" stroke="#263238" stroke-linecap="round" stroke-miterlimit="10"/><path data-name="Path 122" d="M480.454 496.358s18.281-11.558 28.011-23.583 14.117-24.7 29.453-29.758" fill="none" stroke="#263238" stroke-linecap="round" stroke-miterlimit="10"/><path data-name="Line 56" fill="none" stroke="#263238" stroke-linecap="round" stroke-miterlimit="10" d="M461.299 408.527l-4.448-5.261"/><path data-name="Path 123" d="M358.518 430.261s-18.891-3.819-31.2-.447c0 0 18.119 8.877 29.108 10.156z" fill="#263238" stroke="#263238" stroke-linecap="round" stroke-miterlimit="10"/><path data-name="Path 124" d="M627.7 467.108l-267.8-39.792a5.2 5.2 0 00-5.809 3.88l-1.219 5.159a5.18 5.18 0 003.941 6.358l264.975 57.281a16.738 16.738 0 0020.089-13.894h0a16.738 16.738 0 00-14.178-18.992z" fill="#1f426c" stroke="#263238" stroke-linecap="round" stroke-miterlimit="10"/><path data-name="Path 125" d="M627.7 467.108l-40.483-6.094a20.313 20.313 0 00-9.2 22.2 20.558 20.558 0 003.9 8.125l39.792 8.592a16.737 16.737 0 0020.089-13.894h0a16.738 16.738 0 00-14.1-18.931z" fill="#263238" stroke="#263238" stroke-linecap="round" stroke-miterlimit="10"/><path data-name="Path 126" d="M519.312 492.093s-23.034 5.4-33.333 2.966-31.322-32.013-45.764-41.742-23.238-12.045-38.35-14.32-25.553 5.017-22.344 18.85 20.78 30.591 33.6 41.681 25.045 30.063 32.642 52.1 12.343 42.292 29.243 64.559 37.984 31.424 45.074 32.663" fill="#fff"/><g data-name="Group 5" transform="translate(378.94 438.584)" clip-path="url(#d)"><path data-name="Path 127" d="M128.937 56.778l-1.625-.833c-6.988 1.016-15.173 1.727-20.313.528-10.278-2.438-31.322-32.013-45.744-41.742S38.017 2.686 22.905.411a33.35 33.35 0 00-7.292-.325 98.375 98.375 0 0132.5 14.849C64.201 26.554 75.819 56.027 93.674 61.39s35.263-4.612 35.263-4.612z" fill="#1f426c"/><path data-name="Path 128" d="M128.937 56.778l-1.625-.833c-6.988 1.016-15.173 1.727-20.313.528-10.278-2.438-31.322-32.013-45.744-41.742S38.017 2.686 22.905.411a33.35 33.35 0 00-7.292-.325 98.375 98.375 0 0132.5 14.849C64.201 26.554 75.819 56.027 93.674 61.39s35.263-4.612 35.263-4.612z" fill="#fff" opacity=".5"/></g><path data-name="Path 130" d="M519.312 492.093s-23.034 5.4-33.333 2.966-31.322-32.013-45.764-41.742-23.238-12.045-38.35-14.32-25.553 5.017-22.344 18.85 20.78 30.591 33.6 41.681 25.045 30.063 32.642 52.1 12.343 42.292 29.243 64.559 37.984 31.424 45.074 32.663" fill="none" stroke="#263238" stroke-linecap="round" stroke-miterlimit="10"/><path data-name="Path 131" d="M391.14 467.758s1.1-11.923 17.428-23.034c0 0-10.908-7.17-18.383-5.891s-10.42 5.363-11.558 12.919 12.513 16.006 12.513 16.006z" fill="#fff" stroke="#263238" stroke-linecap="round" stroke-miterlimit="10"/><path data-name="Path 132" d="M401.865 480.413a21.735 21.735 0 004.184 3.291" fill="none" stroke="#263238" stroke-linecap="round" stroke-miterlimit="10"/><path data-name="Path 133" d="M413.809 452.239s-17.347 8.938-14.564 22.872" fill="none" stroke="#263238" stroke-linecap="round" stroke-miterlimit="10"/><path data-name="Path 134" d="M600.688 449.659l2.762-8.917c2.762-8.9.67-22.019-6.906-29.474s-34.531-20.577-42.413-27.463-66.869-49.014-77.35-46.434-23.1 17.57-33.78 25.9-48.994 39.691-48.994 39.691-26.914 11.659-25.7 17.144 6.8 12.492 23.684 11.944 45.013-17.367 49.278-19.845 30.819-19.867 30.819-19.867a92.991 92.991 0 0023.4 16.859c12.533 5.809 14.219 6.4 14.219 6.4s3.27 11.883 12.472 17.977" fill="#fff"/><g data-name="Group 6" transform="translate(368.269 337.258)" clip-path="url(#e)"><path data-name="Path 135" d="M217.465 74.499c9.75 7.658 10.38 22.831 7.678 36.42l7.292 1.483 2.762-8.917c2.763-8.9.67-22.019-6.906-29.474s-34.531-20.577-42.413-27.463c-2.031-1.788-7.638-5.992-14.889-11.152l-1.442.223s35.264 28.947 47.918 38.88z" fill="#1f426c"/><path data-name="Path 136" d="M217.465 74.499c9.75 7.658 10.38 22.831 7.678 36.42l7.292 1.483 2.762-8.917c2.763-8.9.67-22.019-6.906-29.474s-34.531-20.577-42.413-27.463c-2.031-1.788-7.638-5.992-14.889-11.152l-1.442.223s35.264 28.947 47.918 38.88z" fill="#fff" opacity=".5"/><path data-name="Path 137" d="M5.891 93.49a90.513 90.513 0 0044.3-14.467C72.799 64.56 65.568 61.839 65.568 61.839s11.741-3.616 18.972-6.317a94.492 94.492 0 0017.184-9.953s28.945 18.992 42.494 24.375a145.7 145.7 0 0019.988 6.825l18.911 24.822a64.715 64.715 0 00-26.226 22.612c-10.847 16.25-24.375 37.964-30.753 40.625s-3.616 5.423-31.647-5.424-90.408-49.623-88.6-65.914z" fill="#1f426c"/><path data-name="Path 138" d="M5.891 93.49a90.513 90.513 0 0044.3-14.467C72.799 64.56 65.568 61.839 65.568 61.839s11.741-3.616 18.972-6.317a94.492 94.492 0 0017.184-9.953s28.945 18.992 42.494 24.375a145.7 145.7 0 0019.988 6.825l18.911 24.822a64.715 64.715 0 00-26.226 22.612c-10.847 16.25-24.375 37.964-30.753 40.625s-3.616 5.423-31.647-5.424-90.408-49.623-88.6-65.914z" fill="#fff" opacity=".5"/></g><path data-name="Path 140" d="M600.688 449.659l2.762-8.917c2.762-8.9.67-22.019-6.906-29.474s-34.531-20.577-42.413-27.463-66.869-49.014-77.35-46.434-23.1 17.57-33.78 25.9-48.994 39.691-48.994 39.691-26.914 11.659-25.7 17.144 6.8 12.492 23.684 11.944 45.013-17.367 49.278-19.845 30.819-19.867 30.819-19.867a92.991 92.991 0 0023.4 16.859c12.533 5.809 14.219 6.4 14.219 6.4s3.27 11.883 12.472 17.977" fill="none" stroke="#263238" stroke-linecap="round" stroke-miterlimit="10"/><path data-name="Path 141" d="M368.309 420.104s2.722 1.3 8.491-1.016 16.981-14.666 17.1-16.25-24.677 8.837-25.591 17.266z" fill="#fff" stroke="#263238" stroke-linecap="round" stroke-miterlimit="10"/><path data-name="Path 142" d="M471.009 372.675a36.327 36.327 0 01.955-3.6" fill="none" stroke="#263238" stroke-linecap="round" stroke-miterlimit="10"/><path data-name="Path 143" d="M472.086 392.379a39.528 39.528 0 01-1.731-15.113" fill="none" stroke="#263238" stroke-linecap="round" stroke-miterlimit="10"/></svg>