<svg xmlns="http://www.w3.org/2000/svg" preserveAspectRatio="none" viewBox="0 0 21.5 21.5"><path data-name="Path 1" d="M6.45 12.141a1.168 1.168 0 111.169-1.169 1.169 1.169 0 01-1.169 1.169zm4.543 0a1.168 1.168 0 111.169-1.169 1.169 1.169 0 01-1.174 1.169zm3.374-1.169a1.169 1.169 0 101.169-1.167 1.169 1.169 0 00-1.173 1.167z" fill="#200e32" fill-rule="evenodd"/><path data-name="Path 2" d="M10.77.75A10.006 10.006 0 00.75 10.765a10.584 10.584 0 001.35 5 1.051 1.051 0 01.07.9l-.67 2.243a.624.624 0 00.82.78l2.02-.6a1.7 1.7 0 011.49.361A10 10 0 1010.77.75z" fill="none" stroke="#200e32" stroke-linecap="round" stroke-linejoin="round" stroke-width="1.5"/></svg>