<svg preserveAspectRatio="none" xmlns="http://www.w3.org/2000/svg" viewBox="0 0 47 47"><path d="M14.132 0H6.993A7.016 7.016 0 000 7.039v7.2a7.018 7.018 0 006.993 7.039h7.139a7.018 7.018 0 006.993-7.039v-7.2A7.016 7.016 0 0014.132 0zM6.993 3.279h7.139a3.737 3.737 0 013.714 3.76v7.2A3.739 3.739 0 0114.132 18H6.993a3.739 3.739 0 01-3.714-3.76v-7.2a3.737 3.737 0 013.714-3.761zM40.009 0h-7.141a7.016 7.016 0 00-6.993 7.039v7.2a7.018 7.018 0 006.993 7.039h7.141A7.017 7.017 0 0047 14.24v-7.2A7.016 7.016 0 0040.009 0zm-7.141 3.279h7.141a3.737 3.737 0 013.712 3.76v7.2A3.738 3.738 0 0140.009 18h-7.141a3.739 3.739 0 01-3.714-3.76v-7.2a3.737 3.737 0 013.714-3.761zM6.993 25.721h7.139a7.017 7.017 0 016.993 7.042v7.2A7.016 7.016 0 0114.132 47H6.993A7.016 7.016 0 010 39.961v-7.2a7.017 7.017 0 016.993-7.04zM14.132 29H6.993a3.738 3.738 0 00-3.714 3.763v7.2a3.737 3.737 0 003.714 3.76h7.139a3.737 3.737 0 003.714-3.76v-7.2A3.738 3.738 0 0014.132 29zm25.878-3.279h-7.142a7.017 7.017 0 00-6.993 7.042v7.2A7.016 7.016 0 0032.868 47h7.141A7.016 7.016 0 0047 39.961v-7.2a7.016 7.016 0 00-6.991-7.04zM32.868 29h7.141a3.737 3.737 0 013.712 3.763v7.2a3.737 3.737 0 01-3.712 3.76h-7.141a3.737 3.737 0 01-3.714-3.76v-7.2A3.738 3.738 0 0132.868 29z" fill="#fff" fill-rule="evenodd"/></svg>