<svg xmlns="http://www.w3.org/2000/svg" viewBox="0 0 507.289 507.289"><path d="M153.712 375.691l-24 21.248a220.557 220.557 0 0024.832 23.888l20.288-24.8a184.953 184.953 0 01-21.12-20.336zm-31.536-49.504l-29.408 12.624a213.206 213.206 0 0016.144 30.528l26.992-17.152a183.507 183.507 0 01-13.728-26z"/><path d="M399.595 66.763a215.997 215.997 0 00-108.283-29.136c-108.165.174-199.548 80.277-213.888 187.488l-54.8-54.8L0 192.939l91.312 91.312 91.312-91.312L160 170.315l-49.488 49.424c18.803-99.758 114.916-165.384 214.674-146.581S490.57 188.074 471.767 287.831 356.851 453.216 257.093 434.412a183.785 183.785 0 01-58.101-21.586l-16.08 27.664c103.202 59.835 235.37 24.679 295.205-78.523 59.836-103.201 24.68-235.369-78.522-295.204z"/><path d="M267.312 109.627v176l70.4 52.8 19.2-25.6-57.6-43.2v-160z"/></svg>