<svg xmlns="http://www.w3.org/2000/svg" viewBox="0 0 460.002 460.002"><path d="M427.137 0H32.865C14.743 0 0 14.743 0 32.865v394.272c0 18.122 14.743 32.865 32.865 32.865h394.272c18.122 0 32.865-14.743 32.865-32.865V32.865C460.001 14.743 445.258 0 427.137 0zM245.812 30h50.995v54.466h-50.995V30zm-138.614 0h108.615v69.466c0 8.284 6.716 15 15 15h80.995c8.284 0 15-6.716 15-15V30h26.377v119.636H107.198V30zm-.191 400.001V308.673h245.986v121.328H107.007zm322.995-2.864a2.87 2.87 0 01-2.866 2.865h-44.143V293.673c0-8.284-6.716-15-15-15H92.007c-8.284 0-15 6.716-15 15v136.328H32.865A2.868 2.868 0 0130 427.136V32.865A2.868 2.868 0 0132.865 30h44.333v134.636c0 8.284 6.716 15 15 15h275.986c8.284 0 15-6.716 15-15V30h43.953a2.868 2.868 0 012.865 2.865v394.272z"/></svg>